<svg xmlns="http://www.w3.org/2000/svg" xmlns:xlink="http://www.w3.org/1999/xlink" width="185.03" height="249.875" viewBox="0 0 185.03 249.875">
  <defs>
    <linearGradient id="linear-gradient" y1="0.5" x2="1" y2="0.5" gradientUnits="objectBoundingBox">
      <stop offset="0" stop-color="#4bbd9e"/>
      <stop offset="1" stop-color="#2f5fab"/>
    </linearGradient>
    <clipPath id="clip-path">
      <path id="Path_568" data-name="Path 568" d="M838.923,393.456c0,3.714-28.158,6.725-62.9,6.725s-62.9-3.012-62.9-6.725,28.161-6.728,62.9-6.728,62.9,3.012,62.9,6.728" transform="translate(-713.129 -386.728)" style="mix-blend-mode: multiply;isolation: isolate"/>
    </clipPath>
    <clipPath id="clip-path-2">
      <path id="Path_573" data-name="Path 573" d="M720.072,308.112c1.954-1.278,2.945-1.887,4.959-3.044-18-33.035,33.653-52.888,53.184-52.864,17.947.021,73,19.484,52.849,51.547,2.047,1.178,3.054,1.8,5.041,3.094,26.33-35.366-38.439-59.656-57.868-59.7h-.057c-20.212,0-84.79,25.038-58.109,60.966" transform="translate(-713.709 -247.146)" fill="none"/>
    </clipPath>
    <clipPath id="clip-path-3">
      <path id="Path_574" data-name="Path 574" d="M716.787,273.015a3.325,3.325,0,0,0,1.738,5.309,4.379,4.379,0,0,0,.883.243,8.555,8.555,0,0,0,4.8-.613,8.254,8.254,0,0,0,3.432-2.659c10.967-15.085,31.456-21.109,49.587-21.035,17.217.066,36.081,5.562,47.442,18.987a9.044,9.044,0,0,0,8.51,2.823c.188-.052.368-.108.538-.167,2.438-.843,3.22-3.36,1.429-5.65-14.411-18.4-36.394-23.07-57.879-24.581q-2.087-.146-4.225-.146c-20.7,0-44.682,10.184-56.255,27.488" transform="translate(-716.061 -245.527)" fill="none"/>
    </clipPath>
    <clipPath id="clip-path-4">
      <rect id="Rectangle_194" data-name="Rectangle 194" width="115.192" height="28.481" fill="none"/>
    </clipPath>
    <clipPath id="clip-path-5">
      <path id="Path_576" data-name="Path 576" d="M833,274.531c-.177.058-.352.115-.541.167a9.037,9.037,0,0,1-8.51-2.825c-11.36-13.424-30.225-18.917-47.442-18.986-18.131-.074-38.62,5.95-49.587,21.034a8.249,8.249,0,0,1-3.432,2.662,8.554,8.554,0,0,1-4.8.611,4.324,4.324,0,0,1-.883-.243,4.4,4.4,0,0,1,.5-1.125c11.527-18.087,37.358-28.338,58.223-26.852,20.766,1.479,42.167,6.083,55.748,24.131a4.312,4.312,0,0,1,.726,1.427" transform="translate(-717.802 -248.832)" fill="#003340"/>
    </clipPath>
    <linearGradient id="linear-gradient-4" x1="-9.131" y1="16.374" x2="-9.115" y2="16.374" xlink:href="#linear-gradient"/>
    <clipPath id="clip-path-6">
      <path id="Path_584" data-name="Path 584" d="M716.964,278.039c-4.244.834-8.248,13.5-6.58,25.443,1.83,11.881,7.429,23.4,12.556,22.888l9.382-.975-1.369-7.044a43.457,43.457,0,0,0-.082-17.69,53.889,53.889,0,0,0-6.507-16.185l-1.422-7.317Z" transform="translate(-709.997 -277.159)" fill="none"/>
    </clipPath>
    <clipPath id="clip-path-7">
      <path id="Path_585" data-name="Path 585" d="M720.814,277.163c-4.244.831-6.849,13.492-5.181,25.441,1.831,11.877,8.83,23.4,13.956,22.884,5.044-.985,7.6-13.921,5.133-25.707-2.6-11.583-9.335-22.632-13.663-22.63a2.032,2.032,0,0,0-.245.013" transform="translate(-715.123 -277.15)" fill="none"/>
    </clipPath>
    <clipPath id="clip-path-8">
      <path id="Path_586" data-name="Path 586" d="M801.27,284.476a54.852,54.852,0,0,0-6.323,16.185,44.736,44.736,0,0,0-.081,17.69l-1.33,7.044,9.2.975c4.986.515,10.385-11.007,12.164-22.888,1.622-11.945-2.31-24.609-6.434-25.443l-5.808-.88Z" transform="translate(-793.536 -277.159)" fill="none"/>
    </clipPath>
    <clipPath id="clip-path-9">
      <path id="Path_588" data-name="Path 588" d="M790.7,299.78c-2.4,11.786.088,24.722,4.99,25.707,4.982.519,11.784-11.007,13.561-22.884,1.622-11.949-.911-24.61-5.033-25.441a1.9,1.9,0,0,0-.238-.013c-4.209,0-10.756,11.048-13.281,22.63" transform="translate(-789.776 -277.15)" fill="#003340"/>
    </clipPath>
    <clipPath id="clip-path-10">
      <rect id="Rectangle_200" data-name="Rectangle 200" width="28.992" height="15.365" fill="none"/>
    </clipPath>
    <clipPath id="clip-path-11">
      <rect id="Rectangle_201" data-name="Rectangle 201" width="28.814" height="15.365" fill="none"/>
    </clipPath>
    <clipPath id="clip-path-12">
      <rect id="Rectangle_203" data-name="Rectangle 203" width="28.133" height="16.213" fill="none"/>
    </clipPath>
    <clipPath id="clip-path-13">
      <path id="Path_615" data-name="Path 615" d="M774.469,355.248l-2.862-.013c-2.448,4.731-8.524,10.953-13.049,10.953-3.574,0-7.443-2.7-10.346-5.9,2.307,4.779,8.5,11.158,14,11.158,7.3,0,18.641-16.2,12.261-16.2" transform="translate(-748.213 -355.235)" fill="url(#linear-gradient)"/>
    </clipPath>
    <linearGradient id="linear-gradient-6" x1="-33.621" y1="20.874" x2="-33.566" y2="20.874" xlink:href="#linear-gradient"/>
    <clipPath id="clip-path-14">
      <rect id="Rectangle_205" data-name="Rectangle 205" width="31.084" height="7.19" fill="none"/>
    </clipPath>
    <clipPath id="clip-path-15">
      <path id="Path_619" data-name="Path 619" d="M757.615,347.54c2.273-1.206,4.7-2.893,7.174-2.2a9.066,9.066,0,0,1,2.757,1.588c2.9,2.107,6.236,3.906,9.823,3.946-5.279,1.323-10.847-.143-16.273.283-2.567.2-5.082.814-7.648,1.049-1.517.139-5.919.573-6.952-.952-1.216-1.795,3.174-1.33,4.288-1.49a21.128,21.128,0,0,0,6.83-2.223" transform="translate(-746.286 -345.179)" fill="url(#linear-gradient)"/>
    </clipPath>
    <linearGradient id="linear-gradient-8" x1="-34.069" y1="43.464" x2="-34.014" y2="43.464" xlink:href="#linear-gradient"/>
    <clipPath id="clip-path-16">
      <path id="Path_629" data-name="Path 629" d="M716.093,320.376s-3.16,0-1.579,4.482S724,331.839,724,331.839l14.589,6.759,13.531,4.165a3.267,3.267,0,0,0,3.558-1.642l1.513,6.8S735.51,343.45,723.066,335.4c0,0-10.868-.7-11.961-9.294s4.987-6.85,4.987-5.729" transform="translate(-710.974 -319.429)" fill="url(#linear-gradient)"/>
    </clipPath>
    <linearGradient id="linear-gradient-10" x1="-22.1" y1="12.877" x2="-22.064" y2="12.877" xlink:href="#linear-gradient"/>
    <linearGradient id="linear-gradient-11" x1="0.02" y1="0.5" x2="1" y2="0.5" xlink:href="#linear-gradient"/>
    <linearGradient id="linear-gradient-12" x1="0.02" y1="0.5" x2="1" y2="0.5" xlink:href="#linear-gradient"/>
    <linearGradient id="linear-gradient-13" x1="661.014" y1="0.5" x2="661.994" y2="0.5" xlink:href="#linear-gradient"/>
    <linearGradient id="linear-gradient-14" x1="0.02" y1="0.5" x2="1" y2="0.5" xlink:href="#linear-gradient"/>
  </defs>
  <g id="Character" transform="translate(-193.465 -1255.418)">
    <g id="Character-2" data-name="Character" transform="translate(-516.532 1046.473)">
      <g id="Group_323" data-name="Group 323" transform="translate(714.43 445.366)" opacity="0.25">
        <path id="Path_567" data-name="Path 567" d="M838.923,393.456c0,3.714-28.158,6.725-62.9,6.725s-62.9-3.012-62.9-6.725,28.161-6.728,62.9-6.728,62.9,3.012,62.9,6.728" transform="translate(-713.129 -386.728)" style="mix-blend-mode: multiply;isolation: isolate"/>
        <g id="Group_322" data-name="Group 322" clip-path="url(#clip-path)">
          <rect id="Rectangle_190" data-name="Rectangle 190" width="125.796" height="13.453" transform="translate(-0.001 0.001)" opacity="0.25" style="mix-blend-mode: multiply;isolation: isolate"/>
        </g>
      </g>
      <path id="Path_569" data-name="Path 569" d="M723.287,335.758a16.382,16.382,0,0,1-9.25-4.3,10.243,10.243,0,0,1-2.862-9.645,3.93,3.93,0,0,1,1.269-2.131,3.32,3.32,0,0,1,3.208-.255,10.041,10.041,0,0,1,2.765,1.925q1.061.936,2.127,1.87a9.966,9.966,0,0,0-.15-2.542c-.02-.856.55-1.885,1.373-1.741.6.106.919.756,1.149,1.326q2.015,4.965,4.025,9.932c-1.221,1.955-2.433,3.612-3.656,5.565" transform="translate(0.363 30.479)" fill="#fff"/>
      <g id="Group_325" data-name="Group 325" transform="translate(710.235 348.396)">
        <path id="Path_570" data-name="Path 570" d="M724.08,337.142l-.651-.1a17.3,17.3,0,0,1-9.811-4.588,11.205,11.205,0,0,1-3.115-10.62,4.786,4.786,0,0,1,1.63-2.659,4.3,4.3,0,0,1,4.184-.386,10.984,10.984,0,0,1,3.056,2.1l.323.286c0-.059-.006-.12-.007-.181a3.024,3.024,0,0,1,.957-2.294,1.877,1.877,0,0,1,1.589-.457c1.206.217,1.7,1.421,1.905,1.938l4.216,10.408-.27.433c-.621.993-1.238,1.909-1.857,2.828-.6.887-1.2,1.776-1.8,2.736Zm-9.615-16.714a1.807,1.807,0,0,0-1.118.342,2.944,2.944,0,0,0-.914,1.6,9.176,9.176,0,0,0,2.608,8.671,15.182,15.182,0,0,0,8.052,3.909c.492-.767.984-1.5,1.476-2.225.515-.764,1.03-1.529,1.547-2.341l-3.831-9.456c-.242-.592-.378-.7-.416-.723a2.255,2.255,0,0,0-.178.737,6.135,6.135,0,0,0,.1.817,4.944,4.944,0,0,1,.025,1.984l-.388,1.612-3.374-2.965a9.292,9.292,0,0,0-2.474-1.745A3.072,3.072,0,0,0,714.465,320.427Z" transform="translate(-710.165 -318.211)" fill="#000103"/>
      </g>
      <path id="Path_571" data-name="Path 571" d="M754.264,335.648s-13.172-2.832-17.4-4.325c-3.639-1.278-13.506-5.418-13.506-5.418l-3.837,6.806s11.839,5.987,15.963,7.535c4.86,1.823,19.948,5.667,19.948,5.667Z" transform="translate(3.954 33.38)" fill="#fff"/>
      <g id="Group_326" data-name="Group 326" transform="translate(722.085 358.016)">
        <path id="Path_572" data-name="Path 572" d="M756.994,347.612l-1.405-.357c-.618-.159-15.2-3.879-20.053-5.7-4.128-1.548-15.578-7.331-16.063-7.576l-.934-.474,4.789-8.495.821.345c.1.041,9.881,4.143,13.449,5.4,4.125,1.456,17.152,4.263,17.283,4.293l.7.15ZM721.312,332.66c2.873,1.441,11.571,5.76,14.927,7.02,3.885,1.458,14.582,4.274,18.437,5.273l-.919-8.107c-2.818-.614-13.1-2.893-16.825-4.208-3.047-1.07-10.278-4.069-12.736-5.094Z" transform="translate(-718.538 -325.009)" fill="#000103"/>
      </g>
      <line id="Line_12" data-name="Line 12" x1="2.346" y2="25.347" transform="translate(800.959 371.812)" fill="#fff"/>
      <line id="Line_13" data-name="Line 13" x1="2.346" y2="25.347" transform="translate(800.959 371.812)" fill="none" stroke="#000103" stroke-miterlimit="10" stroke-width="1.782"/>
      <g id="Group_328" data-name="Group 328" transform="translate(715.25 247.818)">
        <g id="Group_327" data-name="Group 327" clip-path="url(#clip-path-2)">
          <rect id="Rectangle_191" data-name="Rectangle 191" width="169.044" height="60.967" transform="translate(-20.318 0)" fill="#003340"/>
        </g>
      </g>
      <g id="Group_330" data-name="Group 330" transform="translate(718.58 245.527)">
        <g id="Group_329" data-name="Group 329" clip-path="url(#clip-path-3)">
          <rect id="Rectangle_192" data-name="Rectangle 192" width="121.628" height="33.33" transform="translate(-0.753)" fill="#003340"/>
        </g>
      </g>
      <g id="Group_335" data-name="Group 335" transform="translate(721.043 250.203)" opacity="0.5" style="mix-blend-mode: multiply;isolation: isolate">
        <g id="Group_334" data-name="Group 334">
          <g id="Group_333" data-name="Group 333" clip-path="url(#clip-path-4)">
            <g id="Group_332" data-name="Group 332" transform="translate(0.001 0.001)">
              <path id="Path_575" data-name="Path 575" d="M833,274.531c-.177.058-.352.115-.541.167a9.037,9.037,0,0,1-8.51-2.825c-11.36-13.424-30.225-18.917-47.442-18.986-18.131-.074-38.62,5.95-49.587,21.034a8.249,8.249,0,0,1-3.432,2.662,8.554,8.554,0,0,1-4.8.611,4.324,4.324,0,0,1-.883-.243,4.4,4.4,0,0,1,.5-1.125c11.527-18.087,37.358-28.338,58.223-26.852,20.766,1.479,42.167,6.083,55.748,24.131a4.312,4.312,0,0,1,.726,1.427" transform="translate(-717.802 -248.832)" fill="#003340"/>
              <g id="Group_331" data-name="Group 331" clip-path="url(#clip-path-5)">
                <rect id="Rectangle_193" data-name="Rectangle 193" width="115.194" height="29.997" transform="translate(-0.001 -1.344)" fill="url(#linear-gradient-4)"/>
              </g>
            </g>
          </g>
        </g>
      </g>
      <rect id="Rectangle_195" data-name="Rectangle 195" width="9.99" height="4.509" transform="translate(774.16 358.001)" fill="#231f20"/>
      <path id="Path_577" data-name="Path 577" d="M760.933,348.8c-4.083-.069-8.336.372-11.332,1.994l2.42,5.916h18.062l2.491-5.916c-3.078-1.622-7.449-2.063-11.641-1.994" transform="translate(16.447 42.885)"/>
      <path id="Path_578" data-name="Path 578" d="M774.047,331.8a3.111,3.111,0,0,1,2.819-.866,2.979,2.979,0,0,1,1.932,1.875,5.406,5.406,0,0,1,.173,2.758,8.133,8.133,0,0,1-2.031,4.259,6.539,6.539,0,0,1-4.195,2.069,2.119,2.119,0,0,1-1.977-.7,2.288,2.288,0,0,1-.193-1.574,12.235,12.235,0,0,1,1.288-4.014,17.671,17.671,0,0,1,1.851-3.46,4.228,4.228,0,0,1,.333-.343" transform="translate(25.137 35.434)" fill="#fff"/>
      <g id="Group_336" data-name="Group 336" transform="translate(794.187 364.999)">
        <path id="Path_579" data-name="Path 579" d="M772.434,344.438a2.907,2.907,0,0,1-2.545-1.175,3.233,3.233,0,0,1-.347-2.267,21.368,21.368,0,0,1,1.858-5.49c.181-.345.343-.709.507-1.076a10.1,10.1,0,0,1,1.471-2.573,5.216,5.216,0,0,1,.417-.429c.865-.794,2.829-1.79,4.318-1.4a3.957,3.957,0,0,1,2.623,2.5,6.391,6.391,0,0,1,.225,3.281,16.075,16.075,0,0,1-3.31,6.23,7.571,7.571,0,0,1-4.859,2.386C772.67,344.434,772.551,344.438,772.434,344.438Zm4.953-12.471a4.067,4.067,0,0,0-2.221.955h0a3.163,3.163,0,0,0-.255.26,8.535,8.535,0,0,0-1.153,2.073c-.183.408-.362.811-.565,1.193a19.564,19.564,0,0,0-1.645,4.825,1.727,1.727,0,0,0,.037.882,1.274,1.274,0,0,0,1.056.248,5.523,5.523,0,0,0,3.531-1.752,14.414,14.414,0,0,0,2.787-5.17,4.4,4.4,0,0,0-.122-2.243,1.961,1.961,0,0,0-1.24-1.247A.847.847,0,0,0,777.387,331.967Z" transform="translate(-769.483 -329.943)" fill="#000103"/>
      </g>
      <path id="Path_580" data-name="Path 580" d="M743.725,331.92a3.355,3.355,0,0,0-2.951-.865,3.061,3.061,0,0,0-2.021,1.874,5.18,5.18,0,0,0-.18,2.76,7.983,7.983,0,0,0,2.124,4.257,6.939,6.939,0,0,0,4.39,2.068,2.268,2.268,0,0,0,2.068-.7,2.2,2.2,0,0,0,.2-1.574,11.857,11.857,0,0,0-1.349-4.015,17.45,17.45,0,0,0-1.939-3.462,4.384,4.384,0,0,0-.345-.341" transform="translate(11.824 35.486)" fill="#fff"/>
      <g id="Group_337" data-name="Group 337" transform="translate(749.248 365.416)">
        <path id="Path_581" data-name="Path 581" d="M745.766,344.523c-.123,0-.248,0-.375-.014-1.877-.134-3.528-1.854-4.733-3.109l-.4-.413a9.067,9.067,0,0,1-2.409-4.815,6.183,6.183,0,0,1,.236-3.316,4.069,4.069,0,0,1,2.744-2.509,4.382,4.382,0,0,1,3.893,1.093l.013.013a5.351,5.351,0,0,1,.42.419,10.051,10.051,0,0,1,1.551,2.59c.17.364.338.723.526,1.066a19.733,19.733,0,0,1,1.54,5.513,3.174,3.174,0,0,1-.375,2.314A3.06,3.06,0,0,1,745.766,344.523Zm-4.048-12.19a1.552,1.552,0,0,0-.382.045,2,2,0,0,0-1.3,1.24,4.148,4.148,0,0,0-.123,2.2,6.975,6.975,0,0,0,1.838,3.7l.418.432c.914.953,2.3,2.393,3.375,2.472.634.041,1.022-.1,1.128-.252a1.413,1.413,0,0,0,.028-.832,18.035,18.035,0,0,0-1.3-4.8c-.208-.381-.4-.783-.587-1.187a8.356,8.356,0,0,0-1.213-2.079,3.256,3.256,0,0,0-.262-.259A2.549,2.549,0,0,0,741.718,332.333Z" transform="translate(-737.731 -330.238)" fill="#000103"/>
      </g>
      <path id="Path_582" data-name="Path 582" d="M775.463,359.322l-9.874-1.512-12.6,1.7a6.738,6.738,0,0,1-7.532-5.464l-3.53-19.229a2.82,2.82,0,0,1,2.774-3.329s6.031-3.661,20.046-3.834c12.455-.151,22.3,3.959,19.655,3.834a2.819,2.819,0,0,1,2.771,3.343l-3.541,18.707a7.208,7.208,0,0,1-8.172,5.783" transform="translate(13.242 34.105)" fill="#fff"/>
      <g id="Group_338" data-name="Group 338" transform="translate(754.103 360.738)">
        <path id="Path_583" data-name="Path 583" d="M752.376,360.886a7.742,7.742,0,0,1-7.613-6.356s-3.506-19.1-3.53-19.228c-.766-4.178,4.778-5.514,7.754-6.23.355-.085.678-.163.953-.236a60.944,60.944,0,0,1,15.1-1.9c11.532-.166,17.364,2.638,19.561,3.681.205.1.375.18.511.238.937.351,3.93,1.478,3.363,4.461l-3.541,18.707a8.2,8.2,0,0,1-9.32,6.6l-9.73-1.489-12.453,1.681A8.01,8.01,0,0,1,752.376,360.886Zm13.495-31.925c-.267,0-.535,0-.808,0a59,59,0,0,0-14.6,1.829c-.287.076-.627.157-1,.248-3.218.776-6.624,1.78-6.236,3.892l3.53,19.231a5.708,5.708,0,0,0,6.4,4.641l12.743-1.721,10.017,1.534a6.171,6.171,0,0,0,7.023-4.969l3.541-18.707c.126-.664.065-1.38-2.133-2.206-.2-.085-.391-.175-.621-.284C781.7,331.485,776.392,328.961,765.87,328.961Z" transform="translate(-741.161 -326.932)" fill="#000103"/>
      </g>
      <g id="Group_340" data-name="Group 340" transform="translate(709.997 290.295)">
        <g id="Group_339" data-name="Group 339" clip-path="url(#clip-path-6)">
          <rect id="Rectangle_196" data-name="Rectangle 196" width="23.608" height="49.727" transform="translate(-1.281 0)" fill="#003340"/>
        </g>
      </g>
      <g id="Group_342" data-name="Group 342" transform="translate(717.251 290.282)">
        <g id="Group_341" data-name="Group 341" clip-path="url(#clip-path-7)">
          <rect id="Rectangle_197" data-name="Rectangle 197" width="23.222" height="48.859" transform="translate(-1.157 -0.002)" fill="#003340" style="mix-blend-mode: multiply;isolation: isolate"/>
        </g>
      </g>
      <g id="Group_344" data-name="Group 344" transform="translate(828.228 290.295)">
        <g id="Group_343" data-name="Group 343" clip-path="url(#clip-path-8)">
          <rect id="Rectangle_198" data-name="Rectangle 198" width="22.983" height="49.727" transform="translate(0.001 0)" fill="#003340"/>
        </g>
      </g>
      <g id="Group_346" data-name="Group 346" transform="translate(822.906 290.282)" style="mix-blend-mode: multiply;isolation: isolate">
        <path id="Path_587" data-name="Path 587" d="M790.7,299.78c-2.4,11.786.088,24.722,4.99,25.707,4.982.519,11.784-11.007,13.561-22.884,1.622-11.949-.911-24.61-5.033-25.441a1.9,1.9,0,0,0-.238-.013c-4.209,0-10.756,11.048-13.281,22.63" transform="translate(-789.776 -277.15)" fill="#003340"/>
        <g id="Group_345" data-name="Group 345" clip-path="url(#clip-path-9)">
          <rect id="Rectangle_199" data-name="Rectangle 199" width="22.57" height="48.859" transform="translate(-1.474 -0.002)" fill="#003340"/>
        </g>
      </g>
      <g id="Group_347" data-name="Group 347" transform="translate(755.57 401.739)">
        <path id="Path_589" data-name="Path 589" d="M749.2,356.619l-6.285,38.609s10.324-4.028,14.074-1.367l1.336-30.393Z" transform="translate(-741.9 -355.605)" fill="#fff"/>
        <path id="Path_590" data-name="Path 590" d="M743.211,396.537a1.014,1.014,0,0,1-1-1.176l6.284-38.607a1.015,1.015,0,0,1,1.609-.648l9.126,6.849a1.012,1.012,0,0,1,.4.855L758.3,394.2a1.014,1.014,0,0,1-1.6.783c-2.7-1.919-10.387.419-13.12,1.482A.976.976,0,0,1,743.211,396.537Zm7.016-37.805-5.739,35.257c2.791-.931,8.308-2.463,11.85-1.384l1.247-28.351Z" transform="translate(-742.198 -355.902)" fill="#000103"/>
      </g>
      <path id="Path_591" data-name="Path 591" d="M740.759,387.049l4.874-3.834s7.572-3.576,13.693.11c1.313.791,3.242,8.6,3.242,8.6l-5.1,6.762Z" transform="translate(12.775 56.533)" fill="#fff"/>
      <g id="Group_348" data-name="Group 348" transform="translate(752.521 437.168)">
        <path id="Path_592" data-name="Path 592" d="M757.768,400a1,1,0,0,1-.577-.181l-16.713-11.641a1.015,1.015,0,0,1-.047-1.629l4.873-3.834a1.084,1.084,0,0,1,.194-.12c.331-.154,8.141-3.763,14.648.16,1.456.877,2.947,6.158,3.705,9.228a1.016,1.016,0,0,1-.174.853l-5.1,6.761A1.01,1.01,0,0,1,757.768,400Zm-15.009-12.7,14.79,10.3,4.216-5.595c-.846-3.313-2.089-7.011-2.7-7.535-5.183-3.119-11.738-.461-12.61-.083Z" transform="translate(-740.044 -380.935)" fill="#000103"/>
      </g>
      <path id="Path_593" data-name="Path 593" d="M735.684,397.093l23.9.48S757.84,384.5,747.071,384.35c0,0-8.35.553-11.387,12.743" transform="translate(10.667 57.651)" fill="#fff"/>
      <g id="Group_349" data-name="Group 349" transform="translate(745.338 440.989)">
        <path id="Path_594" data-name="Path 594" d="M759.88,398.883h-.021l-23.9-.481a1.014,1.014,0,0,1-.964-1.257c3.179-12.762,11.934-13.486,12.3-13.51,11.593.16,13.563,13.962,13.583,14.1a1.012,1.012,0,0,1-1,1.146ZM737.3,396.4l21.354.43c-.691-3.077-3.255-11.06-11.3-11.174C747.138,385.68,740.316,386.323,737.3,396.4Z" transform="translate(-734.968 -383.635)" fill="#000103"/>
      </g>
      <g id="Group_352" data-name="Group 352" transform="translate(746.351 439.858)" style="mix-blend-mode: soft-light;isolation: isolate">
        <g id="Group_351" data-name="Group 351">
          <g id="Group_350" data-name="Group 350" clip-path="url(#clip-path-10)">
            <path id="Path_595" data-name="Path 595" d="M761.432,382.836s-.688,6.35-4.191,8.543c0,0-11.573,3.418-20.059,2.034l-1.5,4.308,23.9.481,5.1-6.761s-2.2-7.449-3.244-8.6" transform="translate(-735.683 -382.836)" fill="#003340"/>
          </g>
        </g>
      </g>
      <g id="Group_353" data-name="Group 353" transform="translate(782.252 401.775)">
        <path id="Path_596" data-name="Path 596" d="M770.836,356.643l6.246,38.609s-10.264-4.028-13.989-1.367l-1.326-30.393Z" transform="translate(-760.753 -355.63)" fill="#fff"/>
        <path id="Path_597" data-name="Path 597" d="M777.381,396.562a1.024,1.024,0,0,1-.371-.069c-2.713-1.064-10.343-3.408-13.029-1.486a1.014,1.014,0,0,1-1.6-.781l-1.328-30.392a1.019,1.019,0,0,1,.4-.853l9.069-6.849a1.015,1.015,0,0,1,1.612.647l6.246,38.609a1.015,1.015,0,0,1-1,1.175Zm-10.208-4.3a30.688,30.688,0,0,1,8.932,1.751l-5.7-35.248-7.3,5.513,1.238,28.348A9.888,9.888,0,0,1,767.172,392.261Z" transform="translate(-761.051 -355.927)" fill="#000103"/>
      </g>
      <path id="Path_598" data-name="Path 598" d="M781.195,387.049l-4.844-3.834s-7.524-3.576-13.607.11c-1.3.791-3.224,8.6-3.224,8.6l5.065,6.762Z" transform="translate(20.566 56.533)" fill="#fff"/>
      <g id="Group_354" data-name="Group 354" transform="translate(779.072 437.168)">
        <path id="Path_599" data-name="Path 599" d="M764.883,400a1.011,1.011,0,0,1-.812-.4l-5.064-6.761a1.01,1.01,0,0,1-.173-.851c.754-3.07,2.236-8.349,3.68-9.226,6.479-3.927,14.245-.317,14.57-.161a1.012,1.012,0,0,1,.194.12l4.843,3.834a1.015,1.015,0,0,1-.047,1.625l-16.611,11.641A1,1,0,0,1,764.883,400Zm-3.964-7.995L765.1,397.6,779.8,387.3l-3.677-2.913c-.868-.379-7.371-3.034-12.552.1C762.995,385,761.761,388.7,760.918,392.008Z" transform="translate(-758.804 -380.936)" fill="#000103"/>
      </g>
      <path id="Path_600" data-name="Path 600" d="M786.848,397.093l-23.75.48s1.731-13.072,12.433-13.223c0,0,8.3.553,11.317,12.743" transform="translate(22.052 57.651)" fill="#fff"/>
      <g id="Group_355" data-name="Group 355" transform="translate(784.136 440.987)">
        <path id="Path_601" data-name="Path 601" d="M763.4,398.884a1.012,1.012,0,0,1-1-1.145c.018-.14,1.979-13.943,13.425-14.1.45.025,9.154.75,12.314,13.513a1.013,1.013,0,0,1-.964,1.255l-23.75.481Zm12.367-13.226c-7.828.115-10.426,8.114-11.134,11.174l21.2-.429C782.8,386.245,775.834,385.662,775.762,385.658Z" transform="translate(-762.382 -383.634)" fill="#000103"/>
      </g>
      <g id="Group_358" data-name="Group 358" transform="translate(780.087 439.858)" style="mix-blend-mode: soft-light;isolation: isolate">
        <g id="Group_357" data-name="Group 357">
          <g id="Group_356" data-name="Group 356" clip-path="url(#clip-path-11)">
            <path id="Path_602" data-name="Path 602" d="M762.744,382.836s.684,6.35,4.167,8.543c0,0,11.5,3.418,19.936,2.034l1.488,4.308-23.75.481-5.064-6.761s2.185-7.449,3.224-8.6" transform="translate(-759.521 -382.836)" fill="#003340"/>
          </g>
        </g>
      </g>
      <path id="Path_603" data-name="Path 603" d="M774.367,355.575s-13.055,6.091-25.237,1.567c0,0-16.358-9.92-8-13.575,0,0-8.53.348-11.489-4.349,0,0-6.786-9.92-6.612-13.925,0,0,0-4.7,3.481-5.394,0,0-7.137-3.482-5.919-11.314l3.134-10.266s-6.266-4.176-6.091-10.1,7.135-9.222,12.181-6.438c0,0-5.569-7.658,3.482-16.185,0,0,8.18-5.222,11.66,1.219,0,0,.174-13.053,18.969-12.879,0,0,17.23-2.089,17.578,19.664,0,0,7.308-20.186,25.931-14.443,0,0,9.4,3.306,9.4,13.574,0,0,6.614-6.614,13.227,2.437,0,0,3.827,9.222,1.913,15.489a3.069,3.069,0,0,1-1.567,2.784s5.742-.521,6.091,4.176-5.569,10.269-7.136,11.662a7.418,7.418,0,0,1,2.784,9.572s-.87,3.83-6.96,5.4a21.261,21.261,0,0,1-2.263,18.97s-5.569,6.785-12.705,6.611c0,0-.521,6.965-16.532,9.748,0,0-17.926-.35-19.317-4" transform="translate(3.169 3.471)" fill="#f59390"/>
      <path id="Path_604" data-name="Path 604" d="M733.981,270.053a8.145,8.145,0,0,0,3.792,2.982,6.986,6.986,0,0,0,4.307.149,7.8,7.8,0,0,0,3.741-2.28,11.277,11.277,0,0,0,2.369-4.325,7.012,7.012,0,0,1-.777,5.469,7.724,7.724,0,0,1-4.676,3.561,7.281,7.281,0,0,1-5.859-.839,6,6,0,0,1-2.9-4.716" transform="translate(9.96 8.743)" fill="#da5258"/>
      <path id="Path_605" data-name="Path 605" d="M780.713,270.4a3.671,3.671,0,0,0-1.026,3.4,4.471,4.471,0,0,0,1.84,2.54,8.823,8.823,0,0,0,3.3,1.371c.634.133,1.3.269,2,.371.657.1,1.289.285,1.868-.207a1.314,1.314,0,0,1-.681.978,4.222,4.222,0,0,1-1.115.461,9.9,9.9,0,0,1-2.228.35,7.257,7.257,0,0,1-4.617-1.292,5.3,5.3,0,0,1-2.314-4.5c.076-1.748,1.4-3.414,2.979-3.477" transform="translate(28.126 10.328)" fill="#da5258"/>
      <path id="Path_606" data-name="Path 606" d="M838.352,296.5a5.036,5.036,0,0,0-3.134-2.577,5.522,5.522,0,0,0-2.222-.249,9.707,9.707,0,0,0,1.381-2.715c1.245-3.777.545-7.635-.258-10.95a19.711,19.711,0,0,0-1.974-5.231,10.634,10.634,0,0,0-1.9-2.4,7.542,7.542,0,0,0-2.778-1.636,9.889,9.889,0,0,0-5.769-.132,9.356,9.356,0,0,0-3.47,1.775c.013-.374.02-.747.011-1.121a14.855,14.855,0,0,0-4.641-9.992,17.524,17.524,0,0,0-10.2-4.785,20.059,20.059,0,0,0-11.075,2.214,22.016,22.016,0,0,0-8.24,7.58c-.395.634-.753,1.288-1.09,1.955a17.422,17.422,0,0,0-4.462-9.955,18.782,18.782,0,0,0-9.739-5.2,26.9,26.9,0,0,0-10.81-.082,25.1,25.1,0,0,0-5.225,1.63,18.971,18.971,0,0,0-2.482,1.326c-.4.253-.787.528-1.17.814a8.8,8.8,0,0,0-1.221,1.156,14.214,14.214,0,0,0-2.631,5.174c-.082.282-.127.563-.2.845a6.284,6.284,0,0,0-1.032-.614,9.467,9.467,0,0,0-5.807-.684,12.937,12.937,0,0,0-8.669,6.206,12.494,12.494,0,0,0-.28,12.753,8.508,8.508,0,0,0-3.482-.89,10.187,10.187,0,0,0-4.535.862,8.183,8.183,0,0,0-2.136,1.363,7.843,7.843,0,0,0-1.613,2.137,10.213,10.213,0,0,0-1.09,4.854,10.736,10.736,0,0,0,4.294,8.388,11.044,11.044,0,0,0,3.146,1.662,24.269,24.269,0,0,0-2.47,4.75,20.606,20.606,0,0,0-1.432,6.039,12.756,12.756,0,0,0,1.161,6.556,10.716,10.716,0,0,0,2.6,3.15c-.011.018-.025.037-.037.054a11.789,11.789,0,0,0-1.955,5.447,12.929,12.929,0,0,0,1.105,5.888,26.064,26.064,0,0,0,5.231,7.454,18.777,18.777,0,0,0,6.7,4.919,8.2,8.2,0,0,0,4.464.505,2.86,2.86,0,0,0-.675.984,5.284,5.284,0,0,0-.348,1.884,10.644,10.644,0,0,0,2.723,6.452,20.7,20.7,0,0,0,11.568,6.834,29.735,29.735,0,0,0,13.158-.284,23.9,23.9,0,0,0,9.274-4.055,8.72,8.72,0,0,0,3.83,3.051,27.4,27.4,0,0,0,5.064,1.51,35.374,35.374,0,0,0,10.475.859,23.622,23.622,0,0,0,10.306-3.111,17.333,17.333,0,0,0,4.218-3.435,7.041,7.041,0,0,0,1.9-4.492,5.388,5.388,0,0,0,2.645.386,15.639,15.639,0,0,0,4.852-1.221,17.118,17.118,0,0,0,7.788-6.43,16.873,16.873,0,0,0,2.743-9.731A14.7,14.7,0,0,0,826,325.51a8.556,8.556,0,0,0,3.926-.49,7.526,7.526,0,0,0,3.266-2.39,8.112,8.112,0,0,0,1.527-3.811c.272-2.242.491-4.785-.975-7.362a5.675,5.675,0,0,0-1.562-1.632c.273-.184.553-.357.812-.559a14.89,14.89,0,0,0,4.246-5.367,15.908,15.908,0,0,0,1.108-3.283,13.819,13.819,0,0,0,.246-1.718l.037-.432.016-.215.013-.362A3.609,3.609,0,0,0,838.352,296.5Zm-3.189,1.2c-.014.01-.018-.008-.028.025l-.054.168-.1.338c-.133.447-.3.887-.446,1.325-.338.866-.664,1.731-1.077,2.562a33.724,33.724,0,0,1-2.828,4.863c-.587.863-1.236,1.7-1.929,2.557a2.592,2.592,0,0,0-.6.434,4.843,4.843,0,0,0-1,1.473c-.1.122-.193.232-.3.357a10,10,0,0,0,2.874-.662c.027.018.069.018.093.04a2.981,2.981,0,0,1,1.019,1.725,16.4,16.4,0,0,1-.208,5.289,5.286,5.286,0,0,1-2.188,3.933,18.77,18.77,0,0,1-5.486,2.536,10.136,10.136,0,0,0,2.641.8,26.212,26.212,0,0,1-.048,8.271,20.785,20.785,0,0,1-3,7.651,21.47,21.47,0,0,1-5.817,5.837,22.549,22.549,0,0,1-3.756,2.1,4.865,4.865,0,0,1-1.865.514c-.553.007-1.189-.569-1.792-1.081a3.6,3.6,0,0,0,1.21,2.021,7.609,7.609,0,0,1-3.026,3.121,24.569,24.569,0,0,1-4.274,2.032,35.717,35.717,0,0,1-9.215,1.882,92.791,92.791,0,0,1-9.74.083l-2.506-.088a18.776,18.776,0,0,1-2.395-.156,10.907,10.907,0,0,1-4.2-1.254,13.985,13.985,0,0,0,1.863-1.765,33.314,33.314,0,0,1-11.849,2.771,39.905,39.905,0,0,1-11.74-.587,22.367,22.367,0,0,1-10.1-4.986c-2.6-2.308-5.52-6.776-.1-8.1a17.981,17.981,0,0,0-2.662.324,10.673,10.673,0,0,1-7.5-3.593,33.7,33.7,0,0,1-4.58-5.428,16.018,16.018,0,0,1-2.407-6.372,12.218,12.218,0,0,1,.231-5.137,22.373,22.373,0,0,1,1.34-4.588l.214-.473a8.354,8.354,0,0,1-3.578-2.9,10.392,10.392,0,0,1-1.434-4.8,23.441,23.441,0,0,1,.208-5.595,52.24,52.24,0,0,1,1.04-5.122,10.065,10.065,0,0,0,5.1.287,16.82,16.82,0,0,1-6.26-4.417,9.864,9.864,0,0,1-2.324-6.077,8.2,8.2,0,0,1,.5-3.1,5.533,5.533,0,0,1,.657-1.24,8.038,8.038,0,0,1,1.112-1.1,12.634,12.634,0,0,1,6.665-2.356,12.1,12.1,0,0,0,4.885,4.57A12.522,12.522,0,0,1,729.6,278.7a11.209,11.209,0,0,1,2.035-8.5,10.584,10.584,0,0,1,7.079-4.37,6.169,6.169,0,0,1,3.707.647,3.81,3.81,0,0,1,1.932,2.61,1.859,1.859,0,0,0,3.657-.221l.008-.106c.333-2.958,1.336-6.261,2.93-8.185a4.654,4.654,0,0,1,.607-.563c.292-.212.592-.418.9-.609a14.938,14.938,0,0,1,1.963-1.015,20.917,20.917,0,0,1,4.376-1.295c5.99-1.236,12.789-.17,17.057,3.828a14.859,14.859,0,0,1,3.93,7.9,19.938,19.938,0,0,1-.272,9.259,13.752,13.752,0,0,1-5.232,7.559,12.059,12.059,0,0,1-9.25,2.188,12.062,12.062,0,0,0,10.03-.926,14.5,14.5,0,0,0,4.14-3.361,15.624,15.624,0,0,0,1.578-2.293c.054.351.108.7.188,1.056a10.474,10.474,0,0,0,2.683,5.053,10.07,10.07,0,0,0,10.007,2.763,9.911,9.911,0,0,1-8.451-4.089c-1.888-2.465-1.8-5.749-1.352-8.9a20.209,20.209,0,0,1,10.411-14.725,16.472,16.472,0,0,1,8.8-1.971,14.991,14.991,0,0,1,8.366,3.272,13.209,13.209,0,0,1,4.775,7.8,11.85,11.85,0,0,1,.068,4.779,4.543,4.543,0,0,1-3.027,3.525,4.858,4.858,0,0,0,4.123-3.145,10.941,10.941,0,0,0,.818-3.541,10.6,10.6,0,0,1,3.775-.487,9.287,9.287,0,0,1,4.225,1.091,5.513,5.513,0,0,1,1.411,1.2,8.835,8.835,0,0,1,1.064,1.731,22.784,22.784,0,0,1,1.4,4.351c.788,3.224,1.514,6.268,1.146,9.172a9.035,9.035,0,0,1-1.6,4.044A6.9,6.9,0,0,1,825.8,297a6.371,6.371,0,0,0,5.252-1.315,9.688,9.688,0,0,0,1.39-1.346,5.783,5.783,0,0,1,1.731,1.339,3.155,3.155,0,0,1,1.07,1.874A.153.153,0,0,1,835.163,297.694Z" transform="translate(2.665 2.89)" fill="#da5258"/>
      <path id="Path_607" data-name="Path 607" d="M797.205,291.8H749.527l-23.638.7s3.5,24.732,9.749,29.236h27.618a8.006,8.006,0,0,1,15.768,0h29.926c6.2-4.5,9.671-29.236,9.671-29.236Z" transform="translate(6.6 19.215)" fill="#231f20"/>
      <path id="Path_608" data-name="Path 608" d="M766.32,292.9H755.672l-20.98,26.818h10.648Z" transform="translate(10.255 19.672)" fill="#fff"/>
      <path id="Path_609" data-name="Path 609" d="M797.381,292.9H786.733L765.84,319.716h10.648Z" transform="translate(23.191 19.672)" fill="#fff"/>
      <path id="Path_610" data-name="Path 610" d="M769.872,292.9h-4.034l-20.98,26.818h4.034Z" transform="translate(14.477 19.672)" fill="#fff"/>
      <g id="Group_359" data-name="Group 359" transform="translate(762.137 399.682)">
        <path id="Path_611" data-name="Path 611" d="M749.5,355.165c-6.38,0,4.188,16.311,12.978,16.311,7.3,0,18.638-16.2,12.259-16.2Z" transform="translate(-746.541 -354.152)" fill="#fff"/>
        <path id="Path_612" data-name="Path 612" d="M762.78,372.787c-3.346,0-7.28-2.151-10.8-5.906-3.077-3.285-5.145-7.106-5.145-9.506a2.722,2.722,0,0,1,2.964-2.925h0l25.237.11a2.9,2.9,0,0,1,2.148.781,2.752,2.752,0,0,1,.737,2.013C777.929,362.072,769.126,372.787,762.78,372.787ZM749.8,356.476a1.152,1.152,0,0,0-.752.2,1.077,1.077,0,0,0-.184.695c0,3.78,7.579,13.387,13.915,13.387,5.072,0,13.124-9.623,13.124-13.408a.935.935,0,0,0-.154-.587,1.051,1.051,0,0,0-.71-.18Z" transform="translate(-746.838 -354.449)" fill="#000103"/>
      </g>
      <path id="Path_613" data-name="Path 613" d="M749.5,355.165c-6.38,0,4.188,16.311,12.978,16.311,7.3,0,18.638-16.2,12.259-16.2Z" transform="translate(15.597 45.531)" fill="none" stroke="#000103" stroke-miterlimit="10" stroke-width="1.479"/>
      <g id="Group_364" data-name="Group 364" transform="translate(764.083 400.795)" opacity="0.25" style="mix-blend-mode: multiply;isolation: isolate">
        <g id="Group_363" data-name="Group 363">
          <g id="Group_362" data-name="Group 362" clip-path="url(#clip-path-12)">
            <g id="Group_361" data-name="Group 361" transform="translate(0 0)">
              <path id="Path_614" data-name="Path 614" d="M774.469,355.248l-2.862-.013c-2.448,4.731-8.524,10.953-13.049,10.953-3.574,0-7.443-2.7-10.346-5.9,2.307,4.779,8.5,11.158,14,11.158,7.3,0,18.641-16.2,12.261-16.2" transform="translate(-748.213 -355.235)" fill="url(#linear-gradient)"/>
              <g id="Group_360" data-name="Group 360" clip-path="url(#clip-path-13)">
                <rect id="Rectangle_202" data-name="Rectangle 202" width="32.637" height="16.213" transform="translate(0 0)" fill="url(#linear-gradient-6)"/>
              </g>
            </g>
          </g>
        </g>
      </g>
      <path id="Path_616" data-name="Path 616" d="M776.029,360.149H748.984a2.32,2.32,0,0,1-2.321-2.32v-1.257a2.32,2.32,0,0,1,2.321-2.318h27.045a2.319,2.319,0,0,1,2.318,2.318v1.257a2.32,2.32,0,0,1-2.318,2.32" transform="translate(15.227 45.152)"/>
      <path id="Path_617" data-name="Path 617" d="M752.311,319.181c6.084,5.132,10.851,2.615,15.6-.18a1.356,1.356,0,0,0-1.37-2.338c-3.1,1.827-6.561,4.332-12.306.734-1.456-.911-2.644-.239-2.339,1.367" transform="translate(17.38 29.46)" fill="#da5258"/>
      <g id="Group_369" data-name="Group 369" transform="translate(761.356 386.563)" opacity="0.25" style="mix-blend-mode: multiply;isolation: isolate">
        <g id="Group_368" data-name="Group 368">
          <g id="Group_367" data-name="Group 367" clip-path="url(#clip-path-14)">
            <g id="Group_366" data-name="Group 366" transform="translate(0 -0.001)">
              <path id="Path_618" data-name="Path 618" d="M757.615,347.54c2.273-1.206,4.7-2.893,7.174-2.2a9.066,9.066,0,0,1,2.757,1.588c2.9,2.107,6.236,3.906,9.823,3.946-5.279,1.323-10.847-.143-16.273.283-2.567.2-5.082.814-7.648,1.049-1.517.139-5.919.573-6.952-.952-1.216-1.795,3.174-1.33,4.288-1.49a21.128,21.128,0,0,0,6.83-2.223" transform="translate(-746.286 -345.179)" fill="url(#linear-gradient)"/>
              <g id="Group_365" data-name="Group 365" clip-path="url(#clip-path-15)">
                <rect id="Rectangle_204" data-name="Rectangle 204" width="32.089" height="8.132" transform="translate(-1.005 -0.531)" fill="url(#linear-gradient-8)"/>
              </g>
            </g>
          </g>
        </g>
      </g>
      <path id="Path_620" data-name="Path 620" d="M775.852,360.372,761.8,359,757,337.423l18.581,3.623Z" transform="translate(19.518 38.163)" fill="#fff"/>
      <g id="Group_371" data-name="Group 371" transform="translate(775.5 374.572)">
        <path id="Path_621" data-name="Path 621" d="M776.149,361.683l-.1,0L762,360.3a1.013,1.013,0,0,1-.892-.788L756.3,337.941a1.013,1.013,0,0,1,1.183-1.216l18.58,3.623a1.018,1.018,0,0,1,.821.982l.275,19.326a1.013,1.013,0,0,1-1.013,1.026Zm-13.219-3.324,12.19,1.193-.248-17.37-16.255-3.17Z" transform="translate(-756.28 -336.707)" fill="#000103"/>
      </g>
      <path id="Path_622" data-name="Path 622" d="M770.343,360.5l12.828-2.93,4.187-20.463-17.29,4.064Z" transform="translate(24.947 38.033)" fill="#fff"/>
      <g id="Group_372" data-name="Group 372" transform="translate(794.002 374.13)">
        <path id="Path_623" data-name="Path 623" d="M770.64,361.814a1.009,1.009,0,0,1-1.012-1l-.275-19.327a1.013,1.013,0,0,1,.781-1l17.291-4.065a1.013,1.013,0,0,1,1.224,1.19l-4.188,20.462a1.014,1.014,0,0,1-.767.785l-12.828,2.93A1.028,1.028,0,0,1,770.64,361.814Zm.753-19.539.243,17.259,10.97-2.505,3.741-18.271Z" transform="translate(-769.353 -336.395)" fill="#000103"/>
      </g>
      <path id="Path_624" data-name="Path 624" d="M770.1,351.875a2.458,2.458,0,0,1,.365-1.342c.611-.817,2.252-1.114,3.562-.845a6.156,6.156,0,0,1,3.085,1.731c.756.747,1.333,1.738.674,2.523-.683.814-2.3.981-3.7,1.057l-3.173.173a3.063,3.063,0,0,1-1.254-.1c-.756-.3.385-2.594.437-3.193" transform="translate(24.67 43.216)" fill="#fff" stroke="#000103" stroke-miterlimit="10" stroke-width="1.432"/>
      <g id="Group_373" data-name="Group 373" transform="translate(792.818 391.549)">
        <path id="Path_625" data-name="Path 625" d="M770.823,356.819a3.373,3.373,0,0,1-1.264-.211c-1.643-.661-.954-2.685-.542-3.895a5.8,5.8,0,0,0,.2-.62l1.251.151-1.255-.113,1.255.113-1.247-.219a3.418,3.418,0,0,1,.6-1.875c.988-1.318,3.173-1.663,4.828-1.328a7.371,7.371,0,0,1,3.718,2.071c2.182,2.157,1.128,3.784.754,4.23-1.016,1.21-2.9,1.411-4.593,1.506l-3.175.173C771.191,356.81,771.012,356.819,770.823,356.819Zm2.581-5.6a2.361,2.361,0,0,0-1.565.439,1.536,1.536,0,0,0-.108.582l-.01.117a5.42,5.42,0,0,1-.317,1.169c-.065.19-.166.484-.245.759l.058,0,3.17-.173c1.981-.11,2.614-.391,2.8-.607a2.256,2.256,0,0,0-.6-.817,4.814,4.814,0,0,0-2.451-1.393A3.588,3.588,0,0,0,773.4,351.22Z" transform="translate(-768.516 -348.702)" fill="#000103"/>
      </g>
      <path id="Path_626" data-name="Path 626" d="M746.268,323.41c-.177,2.136-3.514,3.6-7.453,3.285s-6.994-2.317-6.82-4.452,3.511-3.609,7.453-3.285,7,2.315,6.82,4.452" transform="translate(9.132 30.476)" fill="#231f20"/>
      <path id="Path_627" data-name="Path 627" d="M742.328,326.956c-9.168,0-17.319-5.623-21.232-15.168l2.021-.209A20.267,20.267,0,0,0,742.328,324.7Z" transform="translate(4.609 27.43)" fill="#231f20"/>
      <g id="Group_375" data-name="Group 375" transform="translate(711.381 350.12)" opacity="0.25" style="mix-blend-mode: multiply;isolation: isolate">
        <path id="Path_628" data-name="Path 628" d="M716.093,320.376s-3.16,0-1.579,4.482S724,331.839,724,331.839l14.589,6.759,13.531,4.165a3.267,3.267,0,0,0,3.558-1.642l1.513,6.8S735.51,343.45,723.066,335.4c0,0-10.868-.7-11.961-9.294s4.987-6.85,4.987-5.729" transform="translate(-710.974 -319.429)" fill="url(#linear-gradient)"/>
        <g id="Group_374" data-name="Group 374" clip-path="url(#clip-path-16)">
          <rect id="Rectangle_206" data-name="Rectangle 206" width="47.174" height="30.411" transform="translate(-0.96 -1.919)" fill="url(#linear-gradient-10)"/>
        </g>
      </g>
      <path id="Path_630" data-name="Path 630" d="M773.685,335.651a3.252,3.252,0,0,0,3.68-.587s-2.053,4.332-4.048,4.679Z" transform="translate(26.296 37.183)" opacity="0.25" fill="url(#linear-gradient-11)" style="mix-blend-mode: multiply;isolation: isolate"/>
      <path id="Path_631" data-name="Path 631" d="M753.046,364.057l-2.538,24.91s3.019,1.949,2.538,3.206-3.445,4.22-3.445,4.22A19.4,19.4,0,0,1,753.8,406l5.542-7.082s-1.611-7.4-4.87-8.9l1.074-23.867Z" transform="translate(16.447 49.223)" opacity="0.25" fill="url(#linear-gradient-12)" style="mix-blend-mode: multiply;isolation: isolate"/>
      <path id="Path_632" data-name="Path 632" d="M765.452,364.057l2.539,24.91s-3.019,1.949-2.539,3.206,3.445,4.22,3.445,4.22A19.412,19.412,0,0,0,764.7,406l-5.541-7.082s1.611-7.4,4.87-8.9l-1.074-23.867Z" transform="translate(20.415 49.223)" opacity="0.25" fill="url(#linear-gradient-13)" style="mix-blend-mode: multiply;isolation: isolate"/>
      <path id="Path_633" data-name="Path 633" d="M782.75,338.19s-3.289,12.324-8,19.961l6.326-1.35,3.973-19.378Z" transform="translate(26.89 38.163)" opacity="0.25" fill="url(#linear-gradient-14)" style="mix-blend-mode: multiply;isolation: isolate"/>
    </g>
    <g id="Question_Icon" data-name="Question Icon">
      <path id="Icon_open-question-mark" data-name="Icon open-question-mark" d="M7.944,0A8.311,8.311,0,0,0,1.9,2.123,7.017,7.017,0,0,0,0,6.239l3.216.418a3.9,3.9,0,0,1,1-2.219c.611-.611,1.576-1.222,3.731-1.222a5.674,5.674,0,0,1,3.924,1.093,2.688,2.688,0,0,1,.9,2.123c0,2.669-1.093,3.409-2.7,4.824s-3.731,3.473-3.731,7.236v.8H9.552v-.8c0-2.669,1-3.409,2.6-4.824s3.827-3.473,3.827-7.236a6.178,6.178,0,0,0-1.9-4.535C12.7.643,10.645,0,7.944,0ZM6.336,22.512v3.216H9.552V22.512Z" transform="translate(346.469 1266.272)" fill="#fff"/>
      <path id="Icon_feather-message-circle" data-name="Icon feather-message-circle" d="M51.957,26.91a22.094,22.094,0,0,1-2.373,10.019A22.41,22.41,0,0,1,29.547,49.32a22.094,22.094,0,0,1-10.019-2.373L4.5,51.957,9.509,36.929A22.094,22.094,0,0,1,7.136,26.91,22.41,22.41,0,0,1,19.528,6.873,22.094,22.094,0,0,1,29.547,4.5h1.318A22.357,22.357,0,0,1,51.957,25.592Z" transform="translate(325.039 1252.418)" fill="none" stroke="#fff" stroke-linecap="round" stroke-linejoin="round" stroke-width="3"/>
    </g>
  </g>
</svg>
