<svg xmlns="http://www.w3.org/2000/svg" width="477.913" height="334.773" viewBox="0 0 477.913 334.773">
  <g id="Group_466" data-name="Group 466" transform="translate(-1919.673 -340.153)">
    <g id="Group_417" data-name="Group 417" transform="translate(2214.867 343.697)">
      <ellipse id="Ellipse_22" data-name="Ellipse 22" cx="21.992" cy="10.087" rx="21.992" ry="10.087" transform="translate(0 99.979)" fill="#fab52c"/>
      <g id="Group_415" data-name="Group 415" transform="translate(6.727 67.137)">
        <ellipse id="Ellipse_23" data-name="Ellipse 23" cx="17.682" cy="10.208" rx="17.682" ry="10.208" transform="matrix(1, -0.005, 0.005, 1, 8.466, 31.523)" fill="#e3aa34"/>
        <path id="Path_688" data-name="Path 688" d="M3855.825,879.135l-8.32,25.507-35.178.578-8.031-24.583Z" transform="translate(-3803.677 -862.291)" fill="#e3aa34"/>
        <path id="Path_689" data-name="Path 689" d="M3820.086,885.437l8.031,24.488h0c1.11,3.748,2.121,4.583,5.007,6.25a22.174,22.174,0,0,0,7.214,2.7,27.066,27.066,0,0,1-17.208-2.809c-2.886-1.666-4.551-2.511-5.007-6.139h0l-8.031-24.488Z" transform="translate(-3808.543 -867.581)" fill="#d49a22"/>
        <ellipse id="Ellipse_24" data-name="Ellipse 24" cx="26.121" cy="15.08" rx="26.121" ry="15.08" transform="translate(0 0.283) rotate(-0.311)" fill="#fff"/>
        <ellipse id="Ellipse_25" data-name="Ellipse 25" cx="22.421" cy="12.944" rx="22.421" ry="12.944" transform="translate(3.892 1.912) rotate(-0.311)" fill="#1c3d5e"/>
      </g>
      <g id="Group_416" data-name="Group 416" transform="translate(3.248 0)">
        <path id="Path_690" data-name="Path 690" d="M3857.552,538.892c-2.223-20.223-19.422-53.469-19.422-53.469,22.167,6.58,23.628,28.487,23.628,28.487Z" transform="translate(-3828.601 -464.645)" fill="#0a8645"/>
        <path id="Path_691" data-name="Path 691" d="M3940.8,412.361c-2.337-20.21,7.437-56.374,7.437-56.374-20.144,11.351-16.689,33.034-16.689,33.034Z" transform="translate(-3906.831 -355.987)" fill="#0a8645"/>
        <path id="Path_692" data-name="Path 692" d="M3778.769,473.714c18.5,4.177,29.685,36.563,29.685,36.563l.005.065c.684-41.272,26.755-52.216,26.755-52.216-7.786,11.329-15.118,49.928-17.333,62.4a9.508,9.508,0,0,1-9.741,7.889q-.4-.019-.8-.063a9.4,9.4,0,0,1-8.071-7.639C3795.857,503.437,3778.769,473.714,3778.769,473.714Z" transform="translate(-3778.769 -441.73)" fill="#3ec27d"/>
      </g>
    </g>
    <g id="Group_419" data-name="Group 419" transform="translate(2183.341 518.833)">
      <path id="Path_693" data-name="Path 693" d="M3562.707,1571.526l59.955-34.615a1.1,1.1,0,0,1,.44-.134l59.471-34.336a1.109,1.109,0,0,1,1.108,0l82.194,47.455a1.12,1.12,0,0,1,.248.2l5.256,3.034a1.108,1.108,0,0,1,0,1.92l-59.956,34.615a1.1,1.1,0,0,1-.439.134l-59.471,34.336a1.109,1.109,0,0,1-1.108,0l-87.7-50.685A1.108,1.108,0,0,1,3562.707,1571.526Z" transform="translate(-3562.153 -1493.412)" fill="#b58b34" opacity="0.41" style="mix-blend-mode: multiply;isolation: isolate"/>
      <path id="Path_694" data-name="Path 694" d="M3632.378,1568.6v2.678l52.378-30.24a1.1,1.1,0,0,1,.439-.134l59.471-34.336a1.109,1.109,0,0,1,1.108,0l74.617,43.08v-3.083l8.132,2.082v6.05h-.037a1.1,1.1,0,0,1-.517,1.245l-59.955,34.615a1.092,1.092,0,0,1-.439.134l-59.471,34.336a1.108,1.108,0,0,1-1.108,0L3624.8,1577.57a1.093,1.093,0,0,1-.547-.841h-.007v-6.454Z" transform="translate(-3614.278 -1496.874)" fill="#2e6399"/>
      <rect id="Rectangle_252" data-name="Rectangle 252" width="2.375" height="1.583" transform="translate(72.789 40.581) rotate(-180)" fill="#dd4078"/>
      <path id="Path_695" data-name="Path 695" d="M4081.308,1551.088l59.956-34.615a1.109,1.109,0,0,0,0-1.92l-82.195-47.455a1.109,1.109,0,0,0-1.108,0L3998,1501.713a1.109,1.109,0,0,0,0,1.92l82.195,47.455A1.109,1.109,0,0,0,4081.308,1551.088Z" transform="translate(-3927.572 -1463.741)" fill="#4974e3"/>
      <path id="Path_696" data-name="Path 696" d="M3708.1,1765.808l59.955-34.615a1.108,1.108,0,0,0,0-1.92l-82.194-47.455a1.108,1.108,0,0,0-1.108,0l-59.956,34.615a1.109,1.109,0,0,0,0,1.92l82.195,47.455A1.108,1.108,0,0,0,3708.1,1765.808Z" transform="translate(-3614.278 -1643.992)" fill="#4974e3"/>
      <path id="Path_697" data-name="Path 697" d="M4439.521,1786.362l-39.605,24.652-23.5-18.284S4422.687,1773.878,4439.521,1786.362Z" transform="translate(-4245.704 -1728.293)" fill="#2e6399"/>
      <path id="Path_698" data-name="Path 698" d="M4120.413,1564.986c3.4-12.805,27.033-18.026,54.063-31.213.865-.5.756-1.38-.243-1.957l-73.308-42.324a3.78,3.78,0,0,0-3.389-.141c-33.574,9.942-54.5,20.26-54.063,31.213Z" transform="translate(-3966.201 -1482.265)" fill="#97b6de"/>
      <path id="Path_699" data-name="Path 699" d="M4120.413,1529.688c-2.465-14.932,21.333-22.552,45.427-37.891.766-.574.686-2.893-.281-3.469l-70.992-40.927a3.083,3.083,0,0,0-3.149,0c-30.386,12.135-49.082,25.677-47.9,37.428Z" transform="translate(-3966.201 -1446.967)" fill="#f5f9ff"/>
      <g id="Group_418" data-name="Group 418" transform="translate(93.612 4.961)">
        <path id="Path_700" data-name="Path 700" d="M4146.965,1495.416l25.992-16.626c.331-.212.273-.552-.13-.761h0a1.474,1.474,0,0,0-1.328.005l-25.993,16.626c-.331.212-.272.552.13.761h0A1.474,1.474,0,0,0,4146.965,1495.416Z" transform="translate(-4145.293 -1477.874)" fill="#7396ff" opacity="0.32"/>
        <path id="Path_701" data-name="Path 701" d="M4200.082,1529.739l25.992-16.626c.331-.212.272-.552-.13-.761h0a1.475,1.475,0,0,0-1.328.005l-25.992,16.626c-.331.212-.272.552.13.761h0A1.475,1.475,0,0,0,4200.082,1529.739Z" transform="translate(-4189.883 -1506.687)" fill="#7396ff" opacity="0.32"/>
        <path id="Path_702" data-name="Path 702" d="M4253.2,1564.062l25.992-16.626c.331-.212.272-.552-.13-.761h0a1.475,1.475,0,0,0-1.328.005l-25.992,16.626c-.331.212-.272.552.13.761h0A1.476,1.476,0,0,0,4253.2,1564.062Z" transform="translate(-4234.473 -1535.5)" fill="#7396ff" opacity="0.32"/>
        <path id="Path_703" data-name="Path 703" d="M4306.316,1598.385l25.992-16.626c.331-.212.272-.552-.13-.761h0a1.475,1.475,0,0,0-1.328.005l-25.992,16.626c-.331.212-.272.552.13.761h0A1.475,1.475,0,0,0,4306.316,1598.385Z" transform="translate(-4279.063 -1564.313)" fill="#7396ff" opacity="0.32"/>
        <path id="Path_704" data-name="Path 704" d="M4359.433,1632.708l25.992-16.626c.331-.212.272-.552-.13-.761h0a1.475,1.475,0,0,0-1.328.005l-25.992,16.626c-.331.212-.272.552.13.761h0A1.475,1.475,0,0,0,4359.433,1632.708Z" transform="translate(-4323.653 -1593.126)" fill="#7396ff" opacity="0.32"/>
        <path id="Path_705" data-name="Path 705" d="M4413.8,1680.134l25.993-16.626c.331-.212.272-.552-.13-.761h0a1.475,1.475,0,0,0-1.328.005l-25.992,16.626c-.331.212-.272.552.13.761h0A1.474,1.474,0,0,0,4413.8,1680.134Z" transform="translate(-4369.29 -1632.939)" fill="#7396ff" opacity="0.32"/>
        <path id="Path_706" data-name="Path 706" d="M4466.913,1714.457l25.992-16.626c.331-.212.272-.552-.13-.761h0a1.476,1.476,0,0,0-1.328.005l-25.992,16.626c-.331.212-.272.552.13.761h0A1.475,1.475,0,0,0,4466.913,1714.457Z" transform="translate(-4413.879 -1661.753)" fill="#7396ff" opacity="0.32"/>
        <path id="Path_707" data-name="Path 707" d="M4520.03,1748.781l25.992-16.626c.331-.212.272-.552-.13-.761h0a1.475,1.475,0,0,0-1.328.005l-25.992,16.626c-.331.212-.272.552.13.761h0A1.475,1.475,0,0,0,4520.03,1748.781Z" transform="translate(-4458.47 -1690.566)" fill="#7396ff" opacity="0.32"/>
      </g>
      <path id="Path_708" data-name="Path 708" d="M3820.283,1721.056l-58.671,34.87-75.618-41.8h0a9.376,9.376,0,0,1,4.282-8.886l47.514-30.308,79.582,44.226Z" transform="translate(-3666.071 -1638.334)" fill="#97b6de"/>
      <path id="Path_709" data-name="Path 709" d="M3806.786,1706.572s-8.891-4.084-14.889.184-42.478,25.255-42.478,25.255l-79.555-49.861s36.213-36.362,60.028-20.442Z" transform="translate(-3652.573 -1623.851)" fill="#fff"/>
      <path id="Path_710" data-name="Path 710" d="M3805.634,1696.236l27.485-14.023c.35-.179.325-.523-.056-.77h0a1.475,1.475,0,0,0-1.322-.124l-27.485,14.023c-.35.179-.325.523.055.77h0A1.475,1.475,0,0,0,3805.634,1696.236Z" transform="translate(-3765.184 -1643.61)" fill="#7396ff" opacity="0.32"/>
      <path id="Path_711" data-name="Path 711" d="M3861.263,1727.139l26.922-15.072c.343-.192.3-.535-.085-.767h0a1.474,1.474,0,0,0-1.326-.073l-26.922,15.072c-.343.192-.3.535.085.767h0A1.474,1.474,0,0,0,3861.263,1727.139Z" transform="translate(-3811.866 -1668.701)" fill="#7396ff" opacity="0.32"/>
      <path id="Path_712" data-name="Path 712" d="M3919.231,1755.724l25.611-17.208c.326-.219.26-.558-.147-.758h0a1.474,1.474,0,0,0-1.327.035L3917.757,1755c-.326.219-.26.558.147.758h0A1.474,1.474,0,0,0,3919.231,1755.724Z" transform="translate(-3860.498 -1690.96)" fill="#7396ff" opacity="0.32"/>
      <path id="Path_713" data-name="Path 713" d="M3973.109,1788.841l25.61-17.208c.326-.219.26-.558-.147-.758h0a1.475,1.475,0,0,0-1.327.035l-25.611,17.208c-.326.219-.26.558.147.758h0A1.474,1.474,0,0,0,3973.109,1788.841Z" transform="translate(-3905.727 -1718.76)" fill="#7396ff" opacity="0.32"/>
      <path id="Path_714" data-name="Path 714" d="M4026.987,1821.957l25.611-17.208c.326-.219.26-.558-.147-.758h0a1.474,1.474,0,0,0-1.327.035l-25.61,17.208c-.326.219-.26.558.147.758h0A1.474,1.474,0,0,0,4026.987,1821.957Z" transform="translate(-3950.955 -1746.56)" fill="#7396ff" opacity="0.32"/>
      <path id="Path_715" data-name="Path 715" d="M4082.406,1868.145l25.61-17.208c.326-.219.26-.558-.147-.758h0a1.475,1.475,0,0,0-1.328.035l-25.61,17.208c-.326.219-.26.558.147.758h0A1.475,1.475,0,0,0,4082.406,1868.145Z" transform="translate(-3997.478 -1785.333)" fill="#7396ff" opacity="0.32"/>
      <path id="Path_716" data-name="Path 716" d="M4136.284,1901.26l25.61-17.208c.326-.219.26-.558-.147-.758h0a1.475,1.475,0,0,0-1.328.035l-25.61,17.208c-.326.219-.26.558.147.758h0A1.475,1.475,0,0,0,4136.284,1901.26Z" transform="translate(-4042.707 -1813.133)" fill="#7396ff" opacity="0.32"/>
      <path id="Path_717" data-name="Path 717" d="M4190.162,1934.376l25.61-17.208c.326-.219.26-.558-.147-.758h0a1.474,1.474,0,0,0-1.327.035l-25.611,17.208c-.326.219-.26.558.147.758h0A1.474,1.474,0,0,0,4190.162,1934.376Z" transform="translate(-4087.935 -1840.933)" fill="#7396ff" opacity="0.32"/>
      <path id="Path_718" data-name="Path 718" d="M4081.524,1558.849c12.51,7.279,30.565,18.344,41.4,24.6a.773.773,0,0,1-.347,1.44l-9.565.549a.774.774,0,0,0-.654,1.106l3,6.3a.773.773,0,0,1-1.048,1.024c-5.257-2.775-19.428-14.4-39.731-29.77C4072.513,1562.527,4075.26,1555.2,4081.524,1558.849Z" transform="translate(-3991.749 -1540.045)" fill="#db5723"/>
    </g>
    <g id="Group_424" data-name="Group 424" transform="translate(2154.045 620.244)">
      <g id="Group_420" data-name="Group 420" transform="translate(0 0)">
        <path id="Path_719" data-name="Path 719" d="M3436.579,2161.742l27.089-15.64c1.623-.937,1.419-2.573-.455-3.655l-49.042-28.314a7.036,7.036,0,0,0-6.331-.262l-27.089,15.64c-1.623.937-1.419,2.573.455,3.655l49.041,28.314A7.037,7.037,0,0,0,3436.579,2161.742Z" transform="translate(-3379.657 -2107.693)" fill="#b58b34" opacity="0.41" style="mix-blend-mode: multiply;isolation: isolate"/>
        <path id="Path_720" data-name="Path 720" d="M3930.634,2275.547l.082-2.714-3.5,2.265a17.166,17.166,0,0,0,1.092,2.376C3928.412,2277.388,3930.634,2275.547,3930.634,2275.547Z" transform="translate(-3839.313 -2241.668)" fill="#f5f9ff"/>
        <path id="Path_721" data-name="Path 721" d="M3475.795,2146.486l27.089-15.64c1.623-.937,1.419-2.573-.455-3.655l-49.042-28.314a7.036,7.036,0,0,0-6.331-.262l-27.089,15.64c-1.623.937-1.419,2.573.455,3.655l49.041,28.314A7.036,7.036,0,0,0,3475.795,2146.486Z" transform="translate(-3412.577 -2094.886)" fill="#f5f9ff"/>
        <path id="Path_722" data-name="Path 722" d="M3472.846,2131.455l-19.458-32.577a7.036,7.036,0,0,0-6.331-.262l-27.089,15.64c-1.623.937-1.419,2.573.455,3.655l49.041,28.314a7.261,7.261,0,0,0,3.26.888Z" transform="translate(-3412.577 -2094.886)" fill="#96beff"/>
        <path id="Path_723" data-name="Path 723" d="M3451.5,2197.825l-4.973-6.749-27.659-1.162.006,3.162,30.228,9.633Z" transform="translate(-3412.577 -2172.061)" fill="#96beff"/>
        <path id="Path_724" data-name="Path 724" d="M3925.013,2294.121c0,.471.333.66.742.423a1.636,1.636,0,0,0,.743-1.281c0-.471-.332-.66-.743-.423A1.636,1.636,0,0,0,3925.013,2294.121Z" transform="translate(-3837.467 -2258.377)" fill="#97cbff"/>
        <path id="Path_725" data-name="Path 725" d="M3475.795,2127.2l27.089-15.64c1.623-.937,1.419-2.573-.455-3.655l-49.042-28.314a7.036,7.036,0,0,0-6.331-.262l-27.089,15.64c-1.623.937-1.419,2.573.455,3.655l49.041,28.314A7.036,7.036,0,0,0,3475.795,2127.2Z" transform="translate(-3412.577 -2078.695)" fill="#1c3d5e"/>
        <path id="Path_726" data-name="Path 726" d="M3496.551,2124.3l7.48-4.318c.308-.178.27-.492-.087-.7h0a1.349,1.349,0,0,0-1.208-.05l-7.479,4.318c-.309.178-.27.492.087.7h0A1.348,1.348,0,0,0,3496.551,2124.3Z" transform="translate(-3476.524 -2112.628)" fill="#3956cc"/>
        <path id="Path_727" data-name="Path 727" d="M3840.343,2329.105l6.008-3.469a1.112,1.112,0,0,0,.463-.884h0c0-.339-.208-.5-.463-.35l-6.008,3.469a1.112,1.112,0,0,0-.463.884h0C3839.88,2329.1,3840.088,2329.252,3840.343,2329.105Z" transform="translate(-3766 -2284.913)" fill="#97cbff"/>
        <path id="Path_728" data-name="Path 728" d="M3454.854,2224.92l-2.958-1.708a.768.768,0,0,1-.319-.61h0c0-.234.144-.342.319-.241l2.958,1.708a.767.767,0,0,1,.319.61h0C3455.173,2224.913,3455.03,2225.021,3454.854,2224.92Z" transform="translate(-3440.031 -2199.267)" fill="#2e6399"/>
        <path id="Path_729" data-name="Path 729" d="M3480.989,2241.333l-2.958-1.708a.767.767,0,0,1-.319-.61h0c0-.234.144-.343.319-.241l2.958,1.708a.767.767,0,0,1,.319.609h0C3481.308,2241.325,3481.165,2241.434,3480.989,2241.333Z" transform="translate(-3461.971 -2213.044)" fill="#2e6399"/>
        <path id="Path_730" data-name="Path 730" d="M3482.139,2093.352l41.239,23.809a1.441,1.441,0,0,1,0,2.5l-25.038,14.455a1.44,1.44,0,0,1-1.44,0L3455.66,2110.3a1.44,1.44,0,0,1,0-2.5l25.038-14.456A1.441,1.441,0,0,1,3482.139,2093.352Z" transform="translate(-3442.855 -2090.837)" fill="#97cbff"/>
      </g>
      <g id="Group_421" data-name="Group 421" transform="translate(15.861 4.631)">
        <path id="Path_731" data-name="Path 731" d="M3489.922,2126.1l20.687-11.943c.961-.555.841-1.524-.269-2.165l-6.795-3.923a4.168,4.168,0,0,0-3.75-.155l-20.687,11.943c-.961.555-.841,1.524.269,2.165l6.8,3.923A4.168,4.168,0,0,0,3489.922,2126.1Z" transform="translate(-3478.458 -2107.543)" fill="#fff"/>
        <path id="Path_732" data-name="Path 732" d="M3602.729,2127.67a7.307,7.307,0,0,0,6.611-.012c1.831-1.057,1.841-2.766.021-3.817a7.306,7.306,0,0,0-6.611.012C3600.919,2124.911,3600.91,2126.62,3602.729,2127.67Z" transform="translate(-3581.639 -2120.566)" fill="#e1eaf4"/>
        <path id="Path_733" data-name="Path 733" d="M3543.953,2148.465l5.908-3.411c.221-.127.193-.352-.062-.5h0a.964.964,0,0,0-.865-.036l-5.908,3.411c-.22.127-.193.352.062.5h0A.965.965,0,0,0,3543.953,2148.465Z" transform="translate(-3532.536 -2138.511)" fill="#e1eaf4"/>
        <path id="Path_734" data-name="Path 734" d="M3529.977,2171.956l13.469-7.776c.221-.127.193-.352-.062-.5h0a.965.965,0,0,0-.865-.036l-13.469,7.776c-.221.127-.193.352.062.5h0A.964.964,0,0,0,3529.977,2171.956Z" transform="translate(-3520.804 -2154.566)" fill="#e1eaf4"/>
        <path id="Path_735" data-name="Path 735" d="M3513.414,2162.393l13.469-7.776c.221-.127.193-.352-.062-.5h0a.964.964,0,0,0-.864-.036l-13.469,7.776c-.221.127-.193.352.062.5h0A.964.964,0,0,0,3513.414,2162.393Z" transform="translate(-3506.9 -2146.539)" fill="#e1eaf4"/>
      </g>
      <g id="Group_422" data-name="Group 422" transform="translate(43.852 21.181)">
        <path id="Path_736" data-name="Path 736" d="M3664.287,2229.2l20.687-11.943c.961-.555.841-1.524-.269-2.165l-6.795-3.923a4.167,4.167,0,0,0-3.75-.155l-20.687,11.943c-.961.555-.841,1.524.269,2.165l6.8,3.923A4.168,4.168,0,0,0,3664.287,2229.2Z" transform="translate(-3652.823 -2210.636)" fill="#fff"/>
        <path id="Path_737" data-name="Path 737" d="M3777.095,2230.764a7.306,7.306,0,0,0,6.611-.012c1.831-1.057,1.841-2.766.021-3.817a7.307,7.307,0,0,0-6.611.012C3775.284,2228,3775.275,2229.713,3777.095,2230.764Z" transform="translate(-3756.005 -2223.66)" fill="#e1eaf4"/>
        <path id="Path_738" data-name="Path 738" d="M3718.317,2251.558l5.908-3.411c.22-.127.193-.352-.062-.5h0a.963.963,0,0,0-.864-.036l-5.908,3.411c-.221.127-.193.352.062.5h0A.963.963,0,0,0,3718.317,2251.558Z" transform="translate(-3706.901 -2241.604)" fill="#e1eaf4"/>
        <path id="Path_739" data-name="Path 739" d="M3704.342,2275.049l13.469-7.776c.221-.127.193-.352-.062-.5h0a.965.965,0,0,0-.865-.036l-13.469,7.776c-.22.127-.193.352.062.5h0A.964.964,0,0,0,3704.342,2275.049Z" transform="translate(-3695.169 -2257.659)" fill="#e1eaf4"/>
        <path id="Path_740" data-name="Path 740" d="M3687.779,2265.486l13.469-7.776c.22-.127.193-.352-.062-.5h0a.965.965,0,0,0-.865-.036l-13.469,7.776c-.221.127-.193.352.062.5h0A.963.963,0,0,0,3687.779,2265.486Z" transform="translate(-3681.265 -2249.632)" fill="#e1eaf4"/>
      </g>
      <g id="Group_423" data-name="Group 423" transform="translate(29.768 12.638)">
        <path id="Path_741" data-name="Path 741" d="M3576.555,2175.983l20.687-11.944c.961-.555.841-1.524-.269-2.165l-6.795-3.923a4.169,4.169,0,0,0-3.75-.156l-20.686,11.944c-.961.555-.841,1.524.269,2.165l6.795,3.923A4.168,4.168,0,0,0,3576.555,2175.983Z" transform="translate(-3565.091 -2157.421)" fill="#db5723"/>
        <path id="Path_742" data-name="Path 742" d="M3689.362,2177.549a7.308,7.308,0,0,0,6.611-.012c1.831-1.057,1.841-2.766.021-3.817a7.307,7.307,0,0,0-6.611.012C3687.552,2174.79,3687.542,2176.5,3689.362,2177.549Z" transform="translate(-3668.272 -2170.445)" fill="#fff"/>
        <path id="Path_743" data-name="Path 743" d="M3630.585,2198.344l5.908-3.411c.221-.127.193-.352-.062-.5h0a.964.964,0,0,0-.865-.036l-5.908,3.411c-.221.127-.193.352.062.5h0A.964.964,0,0,0,3630.585,2198.344Z" transform="translate(-3619.169 -2188.39)" fill="#fff"/>
        <path id="Path_744" data-name="Path 744" d="M3616.61,2221.834l13.469-7.776c.221-.127.193-.352-.062-.5h0a.964.964,0,0,0-.864-.036l-13.469,7.776c-.221.127-.193.352.062.5h0A.964.964,0,0,0,3616.61,2221.834Z" transform="translate(-3607.437 -2204.445)" fill="#fff"/>
        <path id="Path_745" data-name="Path 745" d="M3600.046,2212.271l13.469-7.776c.221-.127.193-.352-.062-.5h0a.964.964,0,0,0-.865-.036l-13.469,7.776c-.221.127-.193.352.062.5h0A.963.963,0,0,0,3600.046,2212.271Z" transform="translate(-3593.532 -2196.417)" fill="#fff"/>
      </g>
    </g>
    <g id="Group_438" data-name="Group 438" transform="translate(2035.88 341.347)">
      <path id="Path_746" data-name="Path 746" d="M2720.75,1018.95l126.174-74.466c6.761-3.9-25.932-22.071-33.155-26.211l-3.9-19.912c-7.223-4.14,10.5-20.162,3.742-16.258L2648.4,977.484c-6.761,3.9-6.387,10.424.836,14.564l46.189,26.474C2702.653,1022.662,2713.989,1022.853,2720.75,1018.95Z" transform="translate(-2643.569 -794.785)" fill="#b58b34" opacity="0.41" style="mix-blend-mode: multiply;isolation: isolate"/>
      <path id="Path_747" data-name="Path 747" d="M2712.6,953.149c0-.005,0-.01,0-.015q0-.082,0-.165c0-.055,0-.11.008-.166,0-.008,0-.016,0-.023s0-.015,0-.023c0-.039.005-.077.009-.116.005-.054.011-.109.018-.163,0-.026.008-.051.011-.077s0-.022,0-.033l.007-.052q.013-.082.028-.164c.01-.051.02-.1.031-.154v-.01q.018-.082.038-.165t.043-.163l.012-.043.009-.031c.009-.029.017-.058.025-.087.016-.052.032-.1.05-.155s.027-.078.041-.117l.006-.017.006-.017c.018-.049.036-.1.055-.147s.037-.094.056-.141l.025-.059.011-.026.024-.055q.032-.073.066-.145c.023-.048.046-.1.069-.143l.007-.013.011-.022c.025-.05.051-.1.078-.15s.052-.092.078-.138l.052-.092.024-.043c.044-.074.091-.147.138-.219.016-.024.03-.048.045-.072l.007-.011q.091-.137.189-.269l.028-.037.026-.034c.023-.03.045-.06.069-.09q.058-.074.118-.146l.046-.054.024-.028.044-.051c.039-.045.079-.089.119-.132l.093-.1.017-.018.015-.016c.043-.044.087-.087.132-.13s.093-.087.14-.13l0,0,0,0c.045-.041.091-.081.137-.12s.1-.081.147-.12l.018-.014.021-.016.108-.083q.074-.054.149-.106l.042-.028.014-.01,0,0,.089-.059q.075-.048.151-.092l.819-.471,4.489,2.43s-1.073.622-1.123.654-.1.065-.149.1-.1.07-.149.106-.1.074-.148.113l-.061.05c-.078.063-.155.128-.23.2h0c-.076.069-.15.14-.223.212l-.028.027q-.1.1-.2.215l-.03.034q-.1.109-.188.221l-.033.041q-.09.113-.177.231c-.03.04-.058.082-.086.123s-.07.1-.1.15-.076.119-.113.179c-.024.039-.049.077-.073.117s-.039.07-.059.1c-.035.062-.07.123-.1.186l-.026.051c-.045.087-.089.174-.13.262l-.01.022q-.064.139-.122.281l-.012.029q-.056.138-.1.277l-.012.036q-.047.137-.088.275l-.012.042c-.026.092-.051.184-.073.275l-.01.042q-.032.138-.057.277l-.007.04c-.016.093-.03.186-.041.279,0,.012,0,.025,0,.037q-.016.14-.024.28c0,.047-.005.093-.007.14s0,.11,0,.165,0,.115,0,.172.006.115.01.171.011.123.019.184.013.095.02.142l.041.255,15.514,95.885c.074.456,1.841,3.373,1.442,3.141l-4.243-3.6a4.94,4.94,0,0,1-1.683-2.98l-15.223-94.085-.185-1.141q-.011-.071-.021-.142c0-.04-.008-.081-.012-.121,0,0,0,0,0-.007s0-.011,0-.017,0-.026,0-.04c0-.057-.008-.114-.011-.171s0-.091,0-.137C2712.6,953.162,2712.6,953.155,2712.6,953.149Z" transform="translate(-2701.521 -850.074)" fill="#c5d7f0"/>
      <g id="Group_426" data-name="Group 426" transform="translate(15.356 13.694)">
        <g id="Group_425" data-name="Group 425">
          <path id="Path_748" data-name="Path 748" d="M2742.313,513.209a6.365,6.365,0,0,0-3.032,6l15.74,97.281c.345,2.146,2.266,2.936,4.288,1.769l148.991-86.02a6.364,6.364,0,0,0,3.032-6l-15.738-97.283c-.347-2.145-2.266-2.936-4.288-1.769Z" transform="translate(-2739.226 -426.649)" fill="#e1eef9"/>
        </g>
      </g>
      <path id="Path_749" data-name="Path 749" d="M2702.244,874.826s0-.01,0-.015c0-.055,0-.11,0-.165s0-.11.008-.166c0-.008,0-.015,0-.023s0-.015,0-.023c0-.039.006-.077.009-.116q.008-.081.018-.163c0-.026.007-.052.011-.077l0-.033c0-.018,0-.035.008-.053.009-.054.018-.109.028-.163s.02-.1.031-.155v-.01c.012-.055.025-.11.038-.165s.028-.109.043-.163c0-.014.009-.029.013-.043l.009-.031c.008-.029.016-.058.025-.087.016-.052.033-.1.05-.155s.027-.078.041-.117l.006-.016.006-.018q.027-.073.055-.147t.057-.14l.025-.059.011-.026.024-.055c.021-.048.043-.1.066-.144s.046-.1.069-.143l.007-.013.011-.022c.025-.05.051-.1.078-.15s.052-.092.078-.138c.017-.031.034-.062.052-.092l.024-.043c.044-.074.091-.147.138-.219.015-.024.03-.048.045-.072l.007-.011q.091-.137.189-.269l.028-.037.026-.034.069-.09q.058-.074.118-.146l.046-.054.024-.028.044-.051q.059-.067.119-.132c.031-.033.062-.065.093-.1l.017-.018.015-.016q.065-.066.132-.13t.139-.13l0,0,0,0q.068-.061.137-.119t.147-.12l.018-.014.021-.016c.036-.028.072-.056.108-.083s.1-.072.149-.106l.042-.028.014-.01,0,0,.089-.059c.05-.032.1-.063.151-.093l3.607-2.083,4.428,2.674s-3.8,1.989-3.851,2.021-.1.065-.149.1-.1.07-.149.106-.1.074-.148.113l-.061.05c-.078.063-.155.128-.23.2h0c-.076.068-.15.14-.223.212l-.028.027q-.1.1-.2.215l-.03.034q-.1.108-.188.221l-.033.041q-.091.113-.177.23c-.03.04-.058.082-.086.123s-.07.1-.1.15-.076.119-.113.179c-.024.039-.049.077-.073.117s-.04.07-.059.1c-.035.062-.071.124-.1.186l-.026.051c-.045.087-.089.174-.13.262l-.01.022q-.064.139-.122.281l-.012.029q-.056.138-.1.278l-.012.036q-.048.137-.088.275l-.012.042q-.04.138-.073.275l-.01.042q-.032.139-.057.277l-.007.04c-.016.093-.03.186-.041.279,0,.012,0,.025,0,.037q-.016.14-.024.28c0,.047-.005.093-.006.14s0,.11,0,.165,0,.115,0,.172.006.114.01.171.011.123.019.184.013.095.02.142l.042.256,15.514,95.885c.074.456,1.841,3.373,1.442,3.141l-4.243-3.6a4.94,4.94,0,0,1-1.683-2.98l-15.223-94.085-.185-1.141q-.012-.071-.021-.142c0-.04-.009-.081-.012-.121,0,0,0,0,0-.007s0-.011,0-.016,0-.026,0-.04c0-.057-.008-.114-.011-.171s0-.091,0-.137C2702.244,874.84,2702.244,874.833,2702.244,874.826Z" transform="translate(-2692.824 -782.972)" fill="#c5d7f0"/>
      <path id="Path_750" data-name="Path 750" d="M2853.118,1192.929l.052-7.176,5.8,4.905,1.248-2.875,145.751-84.15c1.755-1.014,5.244-.885,7.271.285l63.144,36.229v-1.009l9.59,4.66,1.348-.545-.182,4.426a2.053,2.053,0,0,1-1.113,1.707l-151.676,87.8a7.652,7.652,0,0,1-6.879-.169l-72.679-41.9a2.786,2.786,0,0,1-1.674-2.212Z" transform="translate(-2819.479 -980.689)" fill="#9eb9de"/>
      <path id="Path_751" data-name="Path 751" d="M2934.887,1199.293l151.671-87.568c1.756-1.013,1.533-2.8-.494-3.971l-72.678-41.961a7.673,7.673,0,0,0-6.878-.285l-151.671,87.568c-1.756,1.014-1.533,2.8.494,3.971l72.678,41.961A7.672,7.672,0,0,0,2934.887,1199.293Z" transform="translate(-2819.928 -948.685)" fill="#e1eef9"/>
      <g id="Group_429" data-name="Group 429" transform="translate(57.695 123.446)">
        <g id="Group_428" data-name="Group 428">
          <g id="Group_427" data-name="Group 427">
            <path id="Path_752" data-name="Path 752" d="M3759.549,1119.934a1.16,1.16,0,0,0,1-.116l9.208-5.314c.333-.192.423-.451.2-.578l-6.1-3.524a1.159,1.159,0,0,0-1,.117l-9.208,5.314c-.332.191-.423.45-.2.578Z" transform="translate(-3632.873 -1110.332)" fill="#2e6399"/>
            <path id="Path_753" data-name="Path 753" d="M3693.006,1218.778a1.154,1.154,0,0,0,1-.116l9.207-5.313c.332-.191.42-.449.2-.578l-6.1-3.525a1.157,1.157,0,0,0-1,.117l-9.207,5.313c-.337.194-.423.452-.207.577Z" transform="translate(-3577.012 -1193.309)" fill="#2e6399"/>
            <path id="Path_754" data-name="Path 754" d="M3726.647,1259.806a1.156,1.156,0,0,0,1-.118l9.209-5.314c.327-.189.425-.449.2-.577l-6.1-3.526a1.171,1.171,0,0,0-1,.119l-9.209,5.314c-.331.191-.422.451-.206.576Z" transform="translate(-3605.253 -1227.751)" fill="#2e6399"/>
            <path id="Path_755" data-name="Path 755" d="M3817.655,1267.734a1.16,1.16,0,0,0,1-.116l9.208-5.314c.328-.189.419-.45.2-.576l-6.1-3.525a1.165,1.165,0,0,0-1,.115l-9.209,5.314c-.33.19-.418.45-.2.577Z" transform="translate(-3681.65 -1234.408)" fill="#2e6399"/>
            <path id="Path_756" data-name="Path 756" d="M3969.966,1241.491a1.159,1.159,0,0,0,1-.117l9.208-5.314c.333-.192.424-.451.2-.578l-7.164-4.138a1.171,1.171,0,0,0-1,.117l-9.208,5.314c-.332.191-.418.453-.2.577Z" transform="translate(-3808.621 -1211.86)" fill="#2e6399"/>
            <path id="Path_757" data-name="Path 757" d="M3871.192,1288.887a1.49,1.49,0,0,0,1.189-.226l12.064-6.962c.432-.249.609-.558.389-.685l-7.164-4.139a1.506,1.506,0,0,0-1.186.225l-12.064,6.962c-.437.252-.607.562-.392.686Z" transform="translate(-3725.724 -1250.095)" fill="#2e6399"/>
            <path id="Path_758" data-name="Path 758" d="M3401.141,1597.627a1.136,1.136,0,0,0,.933-.156l9.2-5.31c.336-.194.46-.437.277-.543l-2.649-1.53a1.154,1.154,0,0,0-.94.16l-9.2,5.31c-.332.191-.451.434-.27.539Z" transform="translate(-3334.928 -1513.033)" fill="#2e6399"/>
            <path id="Path_759" data-name="Path 759" d="M3324.5,1643a1.136,1.136,0,0,0,.933-.156l9.2-5.31c.336-.194.46-.437.277-.543l-2.649-1.53a1.154,1.154,0,0,0-.94.16l-9.2,5.31c-.332.191-.451.434-.27.539Z" transform="translate(-3270.591 -1551.124)" fill="#2e6399"/>
            <path id="Path_760" data-name="Path 760" d="M3243.792,1689.137a1.14,1.14,0,0,0,.923-.163l9.2-5.312c.33-.191.463-.432.286-.534l-2.551-1.474a1.156,1.156,0,0,0-.926.165l-9.2,5.312c-.332.191-.458.432-.283.533Z" transform="translate(-3202.925 -1589.901)" fill="#2e6399"/>
            <path id="Path_761" data-name="Path 761" d="M3293.763,1625.817a1.14,1.14,0,0,0,.923-.163l9.2-5.312c.33-.191.463-.432.286-.534l-2.551-1.474a1.156,1.156,0,0,0-.926.165l-9.2,5.312c-.332.191-.458.432-.284.533Z" transform="translate(-3244.874 -1536.746)" fill="#2e6399"/>
            <path id="Path_762" data-name="Path 762" d="M3476.5,1373.178a1.169,1.169,0,0,0,1.005-.12l59.92-34.579c.327-.188.425-.451.2-.578l-7.164-4.138a1.182,1.182,0,0,0-1,.118l-59.92,34.579c-.333.192-.423.456-.208.58Z" transform="translate(-3394.374 -1297.839)" fill="#2e6399"/>
            <path id="Path_763" data-name="Path 763" d="M3917.031,1314.722c.014.008.057,0,.1-.027l7.039-4.062c.038-.022.06-.047.046-.055l-.445-.257a.145.145,0,0,0-.1.027l-7.039,4.062c-.039.022-.06.048-.046.055Z" transform="translate(-3769.919 -1278.215)" fill="#2e6399"/>
            <path id="Path_764" data-name="Path 764" d="M4029.431,1257.459a.062.062,0,0,0,.055,0l2.988-1.725c.016-.009.019-.024.005-.032l-.445-.257a.062.062,0,0,0-.055,0l-2.988,1.725c-.017.01-.019.024-.006.032Z" transform="translate(-3864.272 -1232.144)" fill="#2e6399"/>
            <path id="Path_765" data-name="Path 765" d="M3739.023,1313.06a1.163,1.163,0,0,0,1-.118l9.207-5.313c.327-.189.423-.452.2-.578l-6.1-3.525a1.176,1.176,0,0,0-1,.117l-9.208,5.313c-.334.193-.422.453-.2.579Z" transform="translate(-3615.642 -1272.455)" fill="#2e6399"/>
            <path id="Path_766" data-name="Path 766" d="M3660.053,1358.644a1.165,1.165,0,0,0,1-.116l9.207-5.313c.33-.191.424-.453.206-.578l-6.1-3.525a1.172,1.172,0,0,0-1,.117l-9.207,5.313c-.327.188-.418.45-.2.577Z" transform="translate(-3549.349 -1310.723)" fill="#2e6399"/>
            <path id="Path_767" data-name="Path 767" d="M3581.068,1404.228a1.161,1.161,0,0,0,1-.116l9.209-5.314c.329-.19.419-.45.2-.576l-6.1-3.525a1.162,1.162,0,0,0-1,.115l-9.209,5.314c-.329.19-.418.45-.2.577Z" transform="translate(-3483.043 -1348.99)" fill="#2e6399"/>
            <path id="Path_768" data-name="Path 768" d="M3502.081,1449.8a1.159,1.159,0,0,0,1-.116l9.209-5.314c.333-.192.423-.452.2-.578l-6.1-3.525a1.166,1.166,0,0,0-1,.117l-9.209,5.314c-.331.191-.418.451-.2.577Z" transform="translate(-3416.735 -1387.24)" fill="#2e6399"/>
            <path id="Path_769" data-name="Path 769" d="M3423.1,1495.381a1.174,1.174,0,0,0,1-.12l9.205-5.312c.329-.19.418-.45.2-.576l-6.1-3.525a1.161,1.161,0,0,0-1,.114l-9.205,5.312c-.333.192-.426.455-.207.581Z" transform="translate(-3350.434 -1425.508)" fill="#2e6399"/>
            <path id="Path_770" data-name="Path 770" d="M3344.106,1540.928a1.166,1.166,0,0,0,1-.117l9.206-5.313c.332-.191.423-.452.205-.578l-6.1-3.525a1.169,1.169,0,0,0-1,.117l-9.206,5.313c-.33.191-.42.452-.2.578Z" transform="translate(-3284.121 -1463.744)" fill="#2e6399"/>
            <path id="Path_771" data-name="Path 771" d="M3166.206,1595.669a1.164,1.164,0,0,0,1-.117l25.086-14.477c.332-.191.421-.451.2-.577l-6.1-3.525a1.165,1.165,0,0,0-1,.116l-25.086,14.477c-.332.191-.42.452-.2.578Z" transform="translate(-3134.779 -1502.005)" fill="#2e6399"/>
            <path id="Path_772" data-name="Path 772" d="M3648.04,1305.14a1.141,1.141,0,0,0,.995-.115l9.209-5.315c.331-.191.424-.448.2-.575l-6.1-3.526a1.159,1.159,0,0,0-1,.117l-9.209,5.315c-.333.192-.417.449-.2.573Z" transform="translate(-3539.264 -1265.809)" fill="#2e6399"/>
            <path id="Path_773" data-name="Path 773" d="M3569.051,1350.723a1.156,1.156,0,0,0,1-.116l9.212-5.316c.327-.189.421-.446.2-.574l-6.1-3.526a1.158,1.158,0,0,0-.993.116l-9.212,5.316c-.328.189-.42.45-.2.575Z" transform="translate(-3472.956 -1304.074)" fill="#2e6399"/>
            <path id="Path_774" data-name="Path 774" d="M3490.072,1396.3a1.16,1.16,0,0,0,1-.118l9.207-5.313c.326-.188.427-.45.206-.578l-6.1-3.526a1.179,1.179,0,0,0-1,.12l-9.208,5.313c-.329.19-.422.451-.206.576Z" transform="translate(-3406.656 -1342.33)" fill="#2e6399"/>
            <path id="Path_775" data-name="Path 775" d="M3411.1,1441.876a1.153,1.153,0,0,0,1-.117l9.206-5.312c.332-.192.426-.449.2-.577l-6.1-3.526a1.163,1.163,0,0,0-1,.119l-9.206,5.313c-.33.191-.42.45-.2.575Z" transform="translate(-3340.36 -1380.595)" fill="#2e6399"/>
            <path id="Path_776" data-name="Path 776" d="M3332.086,1487.426a1.156,1.156,0,0,0,1-.117l9.211-5.316c.332-.192.423-.448.2-.575l-6.1-3.526a1.157,1.157,0,0,0-1,.117l-9.211,5.316c-.329.19-.42.45-.2.575Z" transform="translate(-3274.031 -1418.831)" fill="#2e6399"/>
            <path id="Path_777" data-name="Path 777" d="M3253.126,1533a1.149,1.149,0,0,0,1-.116l9.2-5.312c.334-.193.428-.451.207-.578l-6.1-3.526a1.166,1.166,0,0,0-1,.12l-9.2,5.312c-.33.191-.419.45-.2.574Z" transform="translate(-3207.746 -1457.092)" fill="#2e6399"/>
            <path id="Path_778" data-name="Path 778" d="M3174.147,1578.581a1.152,1.152,0,0,0,1-.116l9.211-5.316c.329-.19.42-.446.2-.573l-6.1-3.526a1.154,1.154,0,0,0-.992.115l-9.211,5.316c-.329.19-.419.45-.2.574Z" transform="translate(-3141.446 -1495.355)" fill="#2e6399"/>
            <path id="Path_779" data-name="Path 779" d="M3614.393,1264.117a1.157,1.157,0,0,0,1-.115l9.208-5.314c.327-.189.418-.448.2-.576l-6.1-3.525a1.158,1.158,0,0,0-.993.115l-9.208,5.314c-.333.192-.422.451-.205.576Z" transform="translate(-3511.02 -1231.372)" fill="#2e6399"/>
            <path id="Path_780" data-name="Path 780" d="M3535.43,1309.684a1.157,1.157,0,0,0,1-.113l9.208-5.314c.331-.191.423-.451.2-.579l-6.1-3.525a1.164,1.164,0,0,0-1,.118l-9.208,5.314c-.328.189-.418.449-.2.574Z" transform="translate(-3444.733 -1269.624)" fill="#2e6399"/>
            <path id="Path_781" data-name="Path 781" d="M3456.439,1355.267a1.159,1.159,0,0,0,1-.116l9.207-5.313c.329-.19.419-.448.2-.577l-6.1-3.525a1.16,1.16,0,0,0-.995.116l-9.207,5.313c-.334.193-.423.452-.207.577Z" transform="translate(-3378.422 -1307.889)" fill="#2e6399"/>
            <path id="Path_782" data-name="Path 782" d="M3377.469,1400.834a1.149,1.149,0,0,0,1-.113l9.209-5.314c.332-.191.423-.451.2-.579l-6.1-3.525a1.163,1.163,0,0,0-1,.118l-9.209,5.314c-.332.192-.418.449-.2.574Z" transform="translate(-3312.128 -1346.141)" fill="#2e6399"/>
            <path id="Path_783" data-name="Path 783" d="M3298.472,1446.4a1.153,1.153,0,0,0,1-.112l9.209-5.314c.333-.192.421-.45.2-.578l-6.1-3.525a1.156,1.156,0,0,0-1,.117l-9.209,5.314c-.326.188-.416.448-.2.573Z" transform="translate(-3245.813 -1384.39)" fill="#2e6399"/>
            <path id="Path_784" data-name="Path 784" d="M3219.475,1491.972a1.161,1.161,0,0,0,1.006-.117l9.207-5.313c.326-.188.42-.449.2-.578l-6.1-3.525a1.167,1.167,0,0,0-1,.117l-9.207,5.313c-.334.193-.425.453-.208.578Z" transform="translate(-3179.499 -1422.648)" fill="#2e6399"/>
            <path id="Path_785" data-name="Path 785" d="M3140.51,1537.546a1.156,1.156,0,0,0,1-.114l9.209-5.314c.332-.191.421-.45.2-.578l-6.1-3.525a1.16,1.16,0,0,0-1,.117l-9.209,5.314c-.329.19-.419.449-.2.575Z" transform="translate(-3113.209 -1460.907)" fill="#2e6399"/>
            <path id="Path_786" data-name="Path 786" d="M3771.987,1153.866a1.159,1.159,0,0,0,1-.116l15.613-9.01c.332-.192.423-.451.2-.579l-6.1-3.525a1.163,1.163,0,0,0-1,.119l-15.613,9.01c-.333.192-.423.452-.206.577Z" transform="translate(-3643.315 -1135.714)" fill="#2e6399"/>
            <path id="Path_787" data-name="Path 787" d="M3009.191,1533.558a1.16,1.16,0,0,0,1-.116l15.613-9.01c.326-.188.421-.45.2-.577l-6.1-3.524a1.165,1.165,0,0,0-1,.115l-15.613,9.01c-.332.191-.423.45-.2.578Z" transform="translate(-3002.97 -1454.455)" fill="#2e6399"/>
            <path id="Path_788" data-name="Path 788" d="M3805.641,1185.835a1.149,1.149,0,0,0,1-.118l18.613-10.741c.332-.192.426-.45.205-.577l-6.1-3.526a1.165,1.165,0,0,0-1,.119l-18.613,10.741c-.335.193-.422.451-.206.576Z" transform="translate(-3671.565 -1161.098)" fill="#2e6399"/>
            <path id="Path_789" data-name="Path 789" d="M3896.613,1212.489a1.164,1.164,0,0,0,1-.117l12.41-7.162c.332-.192.422-.452.2-.578l-6.1-3.525a1.165,1.165,0,0,0-1,.116l-12.41,7.162c-.332.191-.421.452-.2.579Z" transform="translate(-3747.934 -1186.477)" fill="#2e6399"/>
            <path id="Path_790" data-name="Path 790" d="M3680.583,1165.516a1.159,1.159,0,0,0,1-.118l9.2-5.31c.332-.191.423-.451.2-.578l-6.1-3.524a1.16,1.16,0,0,0-1,.117l-9.2,5.31c-.336.194-.425.452-.2.579Z" transform="translate(-3566.583 -1148.599)" fill="#2e6399"/>
            <path id="Path_791" data-name="Path 791" d="M3601.954,1210.843a1.164,1.164,0,0,0,1-.117l9.208-5.314c.33-.19.422-.451.2-.578l-6.1-3.524a1.162,1.162,0,0,0-1,.116l-9.208,5.314c-.332.191-.425.451-.2.579Z" transform="translate(-3500.577 -1186.647)" fill="#2e6399"/>
            <path id="Path_792" data-name="Path 792" d="M3523,1256.421a1.149,1.149,0,0,0,1-.114l9.208-5.314c.33-.19.42-.45.2-.577l-6.1-3.524a1.156,1.156,0,0,0-1,.115l-9.208,5.314c-.333.192-.42.448-.2.576Z" transform="translate(-3434.294 -1224.911)" fill="#2e6399"/>
            <path id="Path_793" data-name="Path 793" d="M3444,1302.009a1.164,1.164,0,0,0,1-.117l9.2-5.31c.334-.193.424-.452.2-.579l-6.1-3.524a1.159,1.159,0,0,0-1,.117l-9.2,5.311c-.331.191-.424.451-.2.579Z" transform="translate(-3367.979 -1263.18)" fill="#2e6399"/>
            <path id="Path_794" data-name="Path 794" d="M3365.037,1347.574a1.147,1.147,0,0,0,1-.114l9.206-5.313c.334-.193.424-.452.2-.579l-6.1-3.524a1.159,1.159,0,0,0-1,.117l-9.206,5.313c-.334.193-.419.448-.2.576Z" transform="translate(-3301.691 -1301.431)" fill="#2e6399"/>
            <path id="Path_795" data-name="Path 795" d="M3286.024,1393.134a1.16,1.16,0,0,0,1-.115l9.211-5.316c.329-.19.418-.448.2-.576l-6.1-3.524a1.153,1.153,0,0,0-1,.114l-9.211,5.316c-.327.189-.42.449-.2.577Z" transform="translate(-3235.364 -1339.677)" fill="#2e6399"/>
            <path id="Path_796" data-name="Path 796" d="M3207.041,1438.7a1.161,1.161,0,0,0,1-.116l9.207-5.313c.333-.192.425-.453.2-.58l-6.1-3.524a1.163,1.163,0,0,0-1,.118l-9.208,5.313c-.332.191-.423.45-.2.578Z" transform="translate(-3169.06 -1377.925)" fill="#2e6399"/>
            <path id="Path_797" data-name="Path 797" d="M3128.081,1484.281a1.151,1.151,0,0,0,1-.113l9.214-5.318c.327-.189.417-.448.2-.575l-6.1-3.524a1.151,1.151,0,0,0-1,.113l-9.214,5.317c-.329.19-.417.447-.2.575Z" transform="translate(-3102.774 -1416.192)" fill="#2e6399"/>
            <path id="Path_798" data-name="Path 798" d="M3064.824,1573.7a1.407,1.407,0,0,1,.54-.176.746.746,0,0,1,.453.061l6.1,3.525a.209.209,0,0,1,.111.264.675.675,0,0,1-.305.312l-2.4,1.387,8,4.622a.207.207,0,0,1,.1.266.663.663,0,0,1-.309.311l-6.2,3.58a1.441,1.441,0,0,1-.542.18.755.755,0,0,1-.46-.06l-14.505-8.379a.2.2,0,0,1-.1-.264.653.653,0,0,1,.31-.314Z" transform="translate(-3046.89 -1499.164)" fill="#2e6399"/>
            <path id="Path_799" data-name="Path 799" d="M3937.073,1230.82c.014.008.057,0,.1-.027l7.039-4.062c.039-.022.06-.047.046-.055l-.445-.257a.145.145,0,0,0-.1.027l-7.039,4.062c-.039.022-.06.048-.046.055Z" transform="translate(-3786.744 -1207.781)" fill="#2e6399"/>
          </g>
        </g>
      </g>
      <path id="Path_800" data-name="Path 800" d="M3625.925,1478.053l33.7-18.908c.39-.219.383-.586-.017-.816l-14.323-8.245a1.616,1.616,0,0,0-1.436-.02l-33.7,18.908c-.39.219-.382.586.017.816l14.323,8.245A1.616,1.616,0,0,0,3625.925,1478.053Z" transform="translate(-3454.742 -1271.948)" fill="#2e6399"/>
      <path id="Path_801" data-name="Path 801" d="M2877.1,1661.654a1.415,1.415,0,1,0,.7-2.144A1.627,1.627,0,0,0,2877.1,1661.654Z" transform="translate(-2839.505 -1447.857)" fill="none" stroke="#342b8c" stroke-linecap="round" stroke-linejoin="round" stroke-width="6.995"/>
      <path id="Path_802" data-name="Path 802" d="M2724.857,428.381l3.246,1.886a.546.546,0,0,0,.548,0l147.9-85.391h0l.818-.472.117-.066c.051-.027.1-.053.152-.078.124-.061.247-.114.37-.161l.034-.013c.116-.043.231-.08.345-.11l.028-.008a3.328,3.328,0,0,1,.345-.07l.023,0a2.981,2.981,0,0,1,.318-.026l.057,0a2.653,2.653,0,0,1,.3.013c.028,0,.054.008.081.012.072.009.142.022.211.037s.115.03.172.047.095.028.141.046a2.282,2.282,0,0,1,.347.16l-4.336-2.52a2.274,2.274,0,0,0-.354-.163c-.01,0-.02-.01-.03-.014l-.021-.006a2.351,2.351,0,0,0-.292-.08l-.018,0c-.027-.005-.055-.007-.082-.012-.05-.008-.1-.016-.151-.022l-.032,0c-.036,0-.074,0-.112-.005s-.063,0-.095,0h-.024c-.069,0-.139,0-.211.007h0l-.015,0c-.059,0-.119.01-.18.018l-.048.008-.061.01-.075.012c-.049.009-.1.021-.147.033l-.016,0h0l-.01,0q-.085.021-.171.047c-.053.016-.107.034-.161.052s-.107.039-.16.06-.1.043-.155.066-.1.047-.155.073-.1.051-.152.079l-.39.223h0l-.22.127-.01.006h0l-147.672,85.258A.547.547,0,0,0,2724.857,428.381Zm149.132-85.941Z" transform="translate(-2711.58 -341.347)" fill="#e6f0ff"/>
      <g id="Group_430" data-name="Group 430" transform="translate(13.711 2.358)">
        <path id="Path_803" data-name="Path 803" d="M2732.067,442.594a6.364,6.364,0,0,0-3.032,6l15.74,97.281c.345,2.146,2.266,2.936,4.288,1.769l148.991-86.02a6.364,6.364,0,0,0,3.032-6l-15.738-97.283c-.347-2.145-2.266-2.936-4.288-1.769Z" transform="translate(-2728.98 -356.034)" fill="#1c3d5e"/>
      </g>
      <g id="Group_431" data-name="Group 431" transform="translate(19.167 14.572)">
        <path id="Path_804" data-name="Path 804" d="M2765.92,512.728c-1.918,1.086-3.218,3.424-2.9,5.224l14.237,81.613c.312,1.8,2.121,2.377,4.039,1.29L2922.61,520.8c1.918-1.086,3.218-3.424,2.9-5.223l-14.234-81.615c-.314-1.8-2.121-2.377-4.039-1.29Z" transform="translate(-2762.969 -432.122)" fill="#66a7ff"/>
      </g>
      <g id="Group_432" data-name="Group 432" transform="translate(54.069 14.572)">
        <path id="Path_805" data-name="Path 805" d="M3108.028,515.575l-14.234-81.615c-.314-1.8-2.121-2.377-4.039-1.29l-109.369,61.957Z" transform="translate(-2980.386 -432.122)" fill="#dbe3ff" opacity="0.28"/>
      </g>
      <path id="Path_806" data-name="Path 806" d="M2855.688,344.3,2709.7,428.111s-6.973,3.289-5.777,9.894l13.937,86.319" transform="translate(-2694.115 -343.822)" fill="none" stroke="#342b8c" stroke-linecap="round" stroke-linejoin="round" stroke-width="2.443"/>
      <line id="Line_40" data-name="Line 40" x2="6.644" y2="3.898" transform="translate(85.072 239.606)" fill="none" stroke="#342b8c" stroke-linecap="round" stroke-linejoin="round" stroke-width="6.995"/>
      <line id="Line_41" data-name="Line 41" x2="6.644" y2="3.898" transform="translate(93.383 244.611)" fill="none" stroke="#342b8c" stroke-linecap="round" stroke-linejoin="round" stroke-width="6.995"/>
      <line id="Line_42" data-name="Line 42" x1="152.889" y2="88.24" transform="translate(35.014 115.835)" fill="none" stroke="#342b8c" stroke-linecap="round" stroke-linejoin="round" stroke-width="2.443"/>
      <g id="Group_437" data-name="Group 437" transform="translate(31.8 29.149)">
        <g id="Group_433" data-name="Group 433">
          <path id="Path_807" data-name="Path 807" d="M2856.4,660.27l114.956-66.37c1.9-1.1,3.1-4.058,2.685-6.614l-9.991-61.308c-.417-2.556-2.294-3.74-4.193-2.643L2844.9,589.7c-1.9,1.1-3.1,4.058-2.685,6.614l9.991,61.308C2852.624,660.183,2854.5,661.366,2856.4,660.27Z" transform="translate(-2842.058 -522.926)" fill="#fff"/>
          <path id="Path_808" data-name="Path 808" d="M2842.937,603.741l-1.221-7.492c-.358-2.2,1.14-5.016,3.347-6.291l113.842-65.727c2.207-1.274,4.286-.523,4.645,1.677l1.221,7.492Z" transform="translate(-2841.663 -523.501)" fill="#1c3d5e"/>
          <path id="Path_809" data-name="Path 809" d="M3546.24,569.32c.162.994,1.1,1.333,2.1.758a3.057,3.057,0,0,0,1.512-2.842c-.162-.994-1.1-1.333-2.1-.758A3.057,3.057,0,0,0,3546.24,569.32Z" transform="translate(-3433.113 -559.251)" fill="#fff"/>
          <path id="Path_810" data-name="Path 810" d="M3500.808,595.55c.162.994,1.1,1.333,2.1.757a3.057,3.057,0,0,0,1.512-2.842c-.162-.994-1.1-1.333-2.1-.758A3.058,3.058,0,0,0,3500.808,595.55Z" transform="translate(-3394.975 -581.27)" fill="#fff"/>
          <path id="Path_811" data-name="Path 811" d="M3455.376,621.781c.162.994,1.1,1.333,2.1.757a3.057,3.057,0,0,0,1.512-2.842c-.162-.994-1.1-1.333-2.1-.757A3.057,3.057,0,0,0,3455.376,621.781Z" transform="translate(-3356.836 -603.29)" fill="#fff"/>
        </g>
        <g id="Group_434" data-name="Group 434" transform="translate(84.349 28.418)">
          <path id="Path_812" data-name="Path 812" d="M3375.126,746.986c-4.386-2.163-7.18-6.759-7.866-12.941a33.555,33.555,0,0,1,3.413-17.837,31.872,31.872,0,0,1,11.681-13.57c4.961-3,10.015-3.509,14.231-1.43,4.387,2.163,7.18,6.759,7.867,12.94a33.556,33.556,0,0,1-3.413,17.837,31.874,31.874,0,0,1-11.681,13.57,17.038,17.038,0,0,1-8.761,2.689A12.268,12.268,0,0,1,3375.126,746.986Zm9.971-39.813c-7.867,4.759-13.623,16.8-12.57,26.287h0c.479,4.321,2.235,7.436,4.942,8.771,2.537,1.251,5.785.821,9.144-1.211,7.867-4.759,13.623-16.8,12.57-26.287-.48-4.321-2.235-7.436-4.943-8.771a7,7,0,0,0-3.126-.7A11.828,11.828,0,0,0,3385.1,707.173Z" transform="translate(-3367.1 -699.949)" fill="#307de5"/>
        </g>
        <path id="Path_813" data-name="Path 813" d="M3440.678,781.924l-9.025,15.22c-.56.945-.284,2.048.5,2.008l11.3-.576a1.821,1.821,0,0,0,1.331-2.028l-2.276-14.644C3442.355,780.893,3441.282,780.9,3440.678,781.924Z" transform="translate(-3336.694 -739.7)" fill="#db5723"/>
        <g id="Group_436" data-name="Group 436" transform="translate(6.675 44.683)">
          <path id="Path_814" data-name="Path 814" d="M2893.057,888.168l64.7-37.352a4.368,4.368,0,0,0,1.726-4.252l-7.061-43.331c-.268-1.644-1.475-2.4-2.7-1.7l-64.7,37.352a4.368,4.368,0,0,0-1.726,4.252l7.061,43.331C2890.629,888.112,2891.835,888.873,2893.057,888.168Z" transform="translate(-2883.247 -801.271)" fill="#c5d7f0"/>
          <g id="Group_435" data-name="Group 435" transform="translate(5.161 9.034)">
            <path id="Path_815" data-name="Path 815" d="M2917.392,895.32l57.6-33.256a3.174,3.174,0,0,0,1.254-3.09h0c-.195-1.194-1.072-1.747-1.959-1.235L2916.688,891a3.174,3.174,0,0,0-1.254,3.09h0C2915.628,895.28,2916.5,895.833,2917.392,895.32Z" transform="translate(-2915.395 -857.549)" fill="#db5723"/>
            <path id="Path_816" data-name="Path 816" d="M2929.776,1051.629l22.459-12.967a2.511,2.511,0,0,0,.992-2.445h0c-.154-.945-.848-1.382-1.55-.977l-22.459,12.967a2.511,2.511,0,0,0-.992,2.445h0C2928.38,1051.6,2929.074,1052.034,2929.776,1051.629Z" transform="translate(-2926.141 -1006.588)" fill="#307de5"/>
            <path id="Path_817" data-name="Path 817" d="M3142.6,928.754l22.459-12.967a2.511,2.511,0,0,0,.992-2.445h0c-.154-.945-.848-1.382-1.55-.977l-22.459,12.967a2.511,2.511,0,0,0-.992,2.445h0C3141.206,928.722,3141.9,929.159,3142.6,928.754Z" transform="translate(-3104.801 -903.439)" fill="#307de5"/>
            <path id="Path_818" data-name="Path 818" d="M2935.166,1098.16l25-14.435-.557-3.422-25,14.435Z" transform="translate(-2931.524 -1044.545)" fill="#fff"/>
            <path id="Path_819" data-name="Path 819" d="M3147.991,975.286l25-14.435-.558-3.422-25,14.435Z" transform="translate(-3110.185 -941.396)" fill="#fff"/>
            <path id="Path_820" data-name="Path 820" d="M2943.126,1147l25-14.435-.558-3.422-25,14.435Z" transform="translate(-2938.206 -1085.548)" fill="#fff"/>
            <path id="Path_821" data-name="Path 821" d="M3155.951,1024.13l25-14.434-.558-3.422-25,14.434Z" transform="translate(-3116.866 -982.399)" fill="#fff"/>
            <path id="Path_822" data-name="Path 822" d="M3255.006,1061.826l10.308-5.951-.558-3.422-10.308,5.951Z" transform="translate(-3200.021 -1021.165)" fill="#fff"/>
            <path id="Path_823" data-name="Path 823" d="M3042.181,1184.7l10.308-5.951-.558-3.422-10.308,5.951Z" transform="translate(-3021.36 -1124.315)" fill="#fff"/>
          </g>
        </g>
      </g>
    </g>
    <g id="Group_445" data-name="Group 445" transform="translate(2288.672 358.195)">
      <ellipse id="Ellipse_26" data-name="Ellipse 26" cx="30.486" cy="18.157" rx="30.486" ry="18.157" transform="translate(13.636 122.808) rotate(-8.38)" fill="#b58b34" opacity="0.41" style="mix-blend-mode: multiply;isolation: isolate"/>
      <g id="Group_440" data-name="Group 440" transform="translate(68.843 12.693)">
        <g id="Group_439" data-name="Group 439">
          <path id="Path_824" data-name="Path 824" d="M4647.36,530.484c4.876-8.2,17.722-6.184,19.092,3.556.728,5.175-2.18,9.793-5.118,13.764-2.922,3.949-5.962,7.81-8.907,11.743-1.113,1.487-3.649.033-2.521-1.474,2.13-2.846,4.3-5.658,6.456-8.488,2.123-2.792,4.467-5.575,5.983-8.76,1.867-3.921,1.923-8.907-2.04-11.533a7.382,7.382,0,0,0-10.424,2.665,1.461,1.461,0,0,1-2.521-1.474Z" transform="translate(-4647.145 -525.372)" fill="#66a7ff"/>
        </g>
      </g>
      <ellipse id="Ellipse_27" data-name="Ellipse 27" cx="16.892" cy="28.387" rx="16.892" ry="28.387" transform="matrix(0.029, -1, 1, 0.029, 25.521, 156.875)" fill="#4787de"/>
      <ellipse id="Ellipse_28" data-name="Ellipse 28" cx="16.892" cy="28.387" rx="16.892" ry="28.387" transform="matrix(0.029, -1, 1, 0.029, 25.779, 147.957)" fill="#66a7ff"/>
      <path id="Path_825" data-name="Path 825" d="M4506.145,1178.393l-3.461,8.673a1.754,1.754,0,0,0,.708,2.142l10.632,6.556a1.753,1.753,0,0,0,2.672-1.457l.212-10.676a1.753,1.753,0,0,0-.832-1.527l-7.384-4.553A1.753,1.753,0,0,0,4506.145,1178.393Z" transform="translate(-4456.926 -1059.944)" fill="#9ec7ff"/>
      <path id="Path_826" data-name="Path 826" d="M4538.732,1155.2l3.808-1.973,8.846,5.551,1.377,11.9a1.93,1.93,0,0,1-.67,1.694l-1.619,1.369a2.4,2.4,0,0,1-3.955-1.882l.188-9.427-8.058-4.969A1.3,1.3,0,0,1,4538.732,1155.2Z" transform="translate(-4486.704 -1039.747)" fill="#9ec7ff"/>
      <g id="Group_441" data-name="Group 441" transform="translate(54.267 30.545)">
        <path id="Path_827" data-name="Path 827" d="M4560.15,724.35l27.275-45.915L4560.75,636.58l-3.732,2.378,25.211,39.558-25.884,43.574Z" transform="translate(-4556.346 -636.58)" fill="#1c3d5e"/>
      </g>
      <g id="Group_443" data-name="Group 443" transform="translate(69.598 42.32)">
        <g id="Group_442" data-name="Group 442">
          <path id="Path_828" data-name="Path 828" d="M4656.236,712.087c-5.405,8.687,4.7,16.166,11.526,19.7,2.294,1.189,5.072,1.839,7.217,3.231a5.138,5.138,0,0,1,2.042,2.578c1.363,4.021-3.024,6.742-6.047,8.177-1.689.8-3.172-1.715-1.474-2.521,2.23-1.059,7.38-4.269,3.1-6.119-5-2.158-9.869-4.374-14.069-7.919-5.571-4.7-9.018-11.844-4.812-18.6.991-1.592,3.518-.128,2.521,1.474Z" transform="translate(-4651.845 -709.927)" fill="#66a7ff"/>
        </g>
      </g>
      <g id="Group_444" data-name="Group 444" transform="translate(59.667 27.18)">
        <path id="Path_829" data-name="Path 829" d="M4593.77,710.183l29.318-48.466-27.27-46.1-3.809,2.253,25.922,43.821-27.948,46.2Z" transform="translate(-4589.984 -615.618)" fill="#1c3d5e"/>
      </g>
      <path id="Rectangle_253" data-name="Rectangle 253" d="M12.49,0H36.625a12.49,12.49,0,0,1,12.49,12.49v0a12.49,12.49,0,0,1-12.49,12.49H12.49A12.49,12.49,0,0,1,0,12.49v0A12.49,12.49,0,0,1,12.49,0Z" transform="translate(28.202 26.388) rotate(-32.499)" fill="#66a7ff"/>
      <path id="Path_830" data-name="Path 830" d="M4540.711,497.272l-12.432,7.348a1.311,1.311,0,0,1-1.791-.46h0a1.311,1.311,0,0,1,.46-1.791l12.432-7.348a1.312,1.312,0,0,1,1.792.46h0A1.312,1.312,0,0,1,4540.711,497.272Z" transform="translate(-4476.862 -487.047)" fill="#b5cfea"/>
      <path id="Path_831" data-name="Path 831" d="M4581.294,526.086l-12.432,7.348a1.311,1.311,0,0,1-1.791-.46h0a1.311,1.311,0,0,1,.46-1.791l12.432-7.348a1.312,1.312,0,0,1,1.792.46h0A1.312,1.312,0,0,1,4581.294,526.086Z" transform="translate(-4510.931 -511.236)" fill="#b5cfea"/>
      <path id="Path_832" data-name="Path 832" d="M4598.354,574.994l-12.432,7.348a1.311,1.311,0,0,1-1.791-.46h0a1.311,1.311,0,0,1,.46-1.791l12.432-7.348a1.311,1.311,0,0,1,1.791.46h0A1.311,1.311,0,0,1,4598.354,574.994Z" transform="translate(-4525.251 -552.293)" fill="#b5cfea"/>
      <ellipse id="Ellipse_29" data-name="Ellipse 29" cx="8.928" cy="30.467" rx="8.928" ry="30.467" transform="translate(0 26.895) rotate(-34.642)" fill="#66a7ff"/>
      <path id="Path_833" data-name="Path 833" d="M4315.218,589.1l7.24-8.341a28.536,28.536,0,0,0,1-36.188h0a28.536,28.536,0,0,0-32.488-9.268l-10.791,4.008Z" transform="translate(-4270.249 -519.519)" fill="#9ec7ff"/>
      <path id="Path_834" data-name="Path 834" d="M4319.986,559.08l7.548-2.8a19.953,19.953,0,0,1,20.828,4.382,19.905,19.905,0,0,0-24.506-9.232l-7.548,2.8Z" transform="translate(-4300.575 -533.501)" fill="#d1e5ff"/>
      <path id="Path_835" data-name="Path 835" d="M4475.833,577.724h0a27.133,27.133,0,0,0-2.092-2.371,28.529,28.529,0,0,1-2.643,33.816l-7.022,8.09,3.515,4.994,7.24-8.341A28.535,28.535,0,0,0,4475.833,577.724Z" transform="translate(-4424.621 -554.636)" fill="#66a7ff"/>
      <ellipse id="Ellipse_30" data-name="Ellipse 30" cx="8.928" cy="30.467" rx="8.928" ry="30.467" transform="translate(2.589 24.871) rotate(-34.642)" fill="#1c3d5e"/>
      <path id="Path_836" data-name="Path 836" d="M4331.052,652.462c.094,5.12,1.979,12.651,11.483,15.923a5.423,5.423,0,0,0,7.062-6.476c-1.507-5.6-5.91-11.939-10.761-14.4A5.4,5.4,0,0,0,4331.052,652.462Z" transform="translate(-4312.951 -614.725)" fill="#fff"/>
      <path id="Path_837" data-name="Path 837" d="M4297.5,586.924c-9.565-13.843-20.607-22.793-24.664-19.99a3.712,3.712,0,0,0-1.4,2.631c5.182,1.1,13.931,9.122,21.705,20.373s12.179,22.272,11.378,27.509a3.712,3.712,0,0,0,2.958-.383C4311.531,614.262,4307.065,600.767,4297.5,586.924Z" transform="translate(-4262.903 -547.138)" fill="#e9f5ff"/>
      <path id="Path_838" data-name="Path 838" d="M4689.162,878.335l9.825,4.733a2.207,2.207,0,0,1,.933,3.127l-4.466,7.42a1.5,1.5,0,0,1-1.971.562l-10-5.13a1.616,1.616,0,0,1-.648-2.27l4.8-7.984A1.188,1.188,0,0,1,4689.162,878.335Z" transform="translate(-4608.066 -808.881)" fill="#b6d1ed"/>
      <path id="Path_839" data-name="Path 839" d="M4745.011,906.576l1.149.641a1.725,1.725,0,0,1,.638,2.4l-4.651,7.728a1.6,1.6,0,0,1-2.1.6l-1.88-.964Z" transform="translate(-4654.71 -832.688)" fill="#9dbee3"/>
    </g>
    <g id="Group_449" data-name="Group 449" transform="translate(2080.164 595.904)">
      <g id="Group_448" data-name="Group 448" transform="translate(0)">
        <ellipse id="Ellipse_31" data-name="Ellipse 31" cx="22.522" cy="13.002" rx="22.522" ry="13.002" transform="matrix(1, -0.005, 0.005, 1, 0, 38.165)" fill="#b58b34" opacity="0.41" style="mix-blend-mode: multiply;isolation: isolate"/>
        <g id="Group_447" data-name="Group 447" transform="translate(5.851)">
          <ellipse id="Ellipse_32" data-name="Ellipse 32" cx="22.522" cy="13.002" rx="22.522" ry="13.002" transform="matrix(1, -0.005, 0.005, 1, 4.958, 36.389)" fill="#307de5"/>
          <rect id="Rectangle_254" data-name="Rectangle 254" width="45.043" height="36.144" transform="translate(50.071 49.269) rotate(-180)" fill="#307de5"/>
          <path id="Path_840" data-name="Path 840" d="M2999.475,2007.645v36.144h0c-.036,3.341,2.143,6.682,6.545,9.223a28.443,28.443,0,0,0,9.117,3.18c-7.733,1.393-16.481.34-22.578-3.18-4.4-2.541-6.581-5.882-6.544-9.223h0l.193-35.694Z" transform="translate(-2981.176 -1994.71)" fill="#186bdb"/>
          <ellipse id="Ellipse_33" data-name="Ellipse 33" cx="22.522" cy="13.002" rx="22.522" ry="13.002" transform="translate(4.958 0.244) rotate(-0.311)" fill="#e1eef9"/>
          <ellipse id="Ellipse_34" data-name="Ellipse 34" cx="18.614" cy="10.746" rx="18.614" ry="10.746" transform="translate(8.765 2.27) rotate(-0.31)" fill="#186bdb"/>
          <path id="Path_841" data-name="Path 841" d="M3021.017,1984.544c7.292-4.21,19.077-4.231,26.324-.048a11.66,11.66,0,0,1,4.514,4.287,11.859,11.859,0,0,1-4.6,4.362c-7.292,4.21-19.077,4.231-26.324.047a11.659,11.659,0,0,1-4.514-4.287A11.857,11.857,0,0,1,3021.017,1984.544Z" transform="translate(-3006.701 -1972.656)" fill="#edb239"/>
          <path id="Path_842" data-name="Path 842" d="M3085.387,2018.229c-.029-.068-.061-.14-.1-.214a7.089,7.089,0,0,0-5.2-3.855c-5.364-.964-11.089-.582-15.485,1.343a11.66,11.66,0,0,0-4.961,3.761,7.361,7.361,0,0,0-1.073,2.135C3070.629,2026.493,3083.618,2020.936,3085.387,2018.229Z" transform="translate(-3042.086 -1999.752)" fill="#f7d65b"/>
          <g id="Group_446" data-name="Group 446" transform="translate(0 24.391)">
            <path id="Path_843" data-name="Path 843" d="M2969.417,2084.357c-2.548,1.339-6.425,2.511-7.311,5.616-.49,1.719-.4,8-.284,12.042a2.4,2.4,0,0,0,3.658,1.971c.5-.305.932-.577,1.225-.729,3.293-1.709,6.216,3.271,2.914,4.985-2.414,1.253-5.854,3.7-8.719,3.38-4.077-.459-4.614-4.542-4.7-7.837-.133-5.029-.822-11.059.323-15.99,1.062-4.576,6.264-6.467,9.982-8.421,3.286-1.727,6.207,3.253,2.914,4.985Z" transform="translate(-2955.872 -2079.013)" fill="#358bff"/>
          </g>
        </g>
      </g>
      <rect id="Rectangle_255" data-name="Rectangle 255" width="12.954" height="10.2" rx="5.1" transform="translate(45.49 46.466) rotate(-180)" fill="#ffd22d"/>
      <path id="Path_844" data-name="Path 844" d="M3137.724,2088.314s.339-15.7-5.279-16.051" transform="translate(-3098.249 -2048.955)" fill="none" stroke="#fff" stroke-linecap="round" stroke-linejoin="round" stroke-width="10.96"/>
    </g>
    <g id="Group_457" data-name="Group 457" transform="translate(1919.673 500.909)">
      <g id="Group_452" data-name="Group 452" transform="translate(0 24.694)">
        <path id="Path_845" data-name="Path 845" d="M1920.252,1620.668l62.549-35.956a1.155,1.155,0,0,1,1.155,0l85.564,49.615a1.149,1.149,0,0,1,.174.135l5.009,2.9a1.155,1.155,0,0,1,0,2l-52.706,37.918c-.358.206-10.641-1.757-11-1.964l-85.564-49.615a1.144,1.144,0,0,1-.175-.135l-5.009-2.9A1.155,1.155,0,0,1,1920.252,1620.668Z" transform="translate(-1919.672 -1569.241)" fill="#b58b34" opacity="0.41" style="mix-blend-mode: multiply;isolation: isolate"/>
        <g id="Group_450" data-name="Group 450" transform="translate(15.028)">
          <path id="Path_846" data-name="Path 846" d="M2013.869,1632.771l.1-.059-.1-.059a1.155,1.155,0,0,1,0-2l62.549-35.956a1.156,1.156,0,0,1,1.155,0l85.564,49.615a1.135,1.135,0,0,1,.544.741h.032v.263l0,2.5s0,.008,0,.011v.005h0a1.6,1.6,0,0,1-.579,1.381l-62.55,36.452a1.155,1.155,0,0,1-1.155,0l-85.562-50.9A1.155,1.155,0,0,1,2013.869,1632.771Z" transform="translate(-2013.29 -1577.623)" fill="#c4880c"/>
          <path id="Path_847" data-name="Path 847" d="M2549.279,1870.47l59.029-32.766.036-19.123-59.329,34.633Z" transform="translate(-2463.015 -1765.697)" fill="#fff"/>
          <line id="Line_43" data-name="Line 43" x1="58.346" y2="33.21" transform="translate(86.718 65.15)" fill="none" stroke="#baced8" stroke-miterlimit="10" stroke-width="3.862"/>
          <line id="Line_44" data-name="Line 44" x1="59.223" y2="33.119" transform="translate(85.852 59.57)" fill="none" stroke="#baced8" stroke-miterlimit="10" stroke-width="3.862"/>
          <line id="Line_45" data-name="Line 45" x1="58.346" y2="33.21" transform="translate(86.711 68.869)" fill="none" stroke="#baced8" stroke-miterlimit="10" stroke-width="3.862"/>
          <path id="Path_848" data-name="Path 848" d="M2099.774,1788.805c-34.625-19.177-72.41-41.154-86.262-48.888l.011-18.617,86.287,48.7Z" transform="translate(-2013.476 -1684.031)" fill="#c4880c"/>
          <path id="Path_849" data-name="Path 849" d="M2014.067,1538.445l62.549-35.956a1.155,1.155,0,0,1,1.155,0l84.541,49.021v-.521l1.6,0,0,1.922h-.023a1.143,1.143,0,0,1-.556,1.19l-62.549,35.956a1.154,1.154,0,0,1-1.155,0l-85.564-49.615A1.155,1.155,0,0,1,2014.067,1538.445Z" transform="translate(-2013.455 -1500.217)" fill="#c4880c"/>
          <path id="Path_850" data-name="Path 850" d="M2100.807,1576.869l62.549-35.956a1.155,1.155,0,0,0,0-2l-85.564-49.615a1.155,1.155,0,0,0-1.155,0l-62.549,35.956a1.155,1.155,0,0,0,0,2l85.564,49.615A1.155,1.155,0,0,0,2100.807,1576.869Z" transform="translate(-2013.476 -1489.141)" fill="#edb239"/>
        </g>
        <g id="Group_451" data-name="Group 451" transform="translate(52.584 20.244)">
          <path id="Path_851" data-name="Path 851" d="M2264.78,1640.442l26.146-15.03c1.138-.654,1-1.8-.314-2.562l-12.026-6.973a4.931,4.931,0,0,0-4.436-.192L2248,1630.715c-1.138.654-1,1.8.314,2.562l12.026,6.973A4.93,4.93,0,0,0,2264.78,1640.442Z" transform="translate(-2247.235 -1615.246)" fill="#fff"/>
        </g>
        <path id="Path_852" data-name="Path 852" d="M2294.035,1646.594l21.028-12.14c.61-.352.532-.973-.172-1.379h0a2.664,2.664,0,0,0-2.388-.1l-21.028,12.14c-.609.352-.532.972.172,1.379h0A2.664,2.664,0,0,0,2294.035,1646.594Z" transform="translate(-2231.444 -1609.688)" fill="#f1a32f"/>
        <path id="Path_853" data-name="Path 853" d="M2331.277,1671.422l21.028-12.14c.61-.352.532-.972-.172-1.379h0a2.664,2.664,0,0,0-2.388-.1l-21.028,12.14c-.609.352-.532.972.172,1.379h0A2.665,2.665,0,0,0,2331.277,1671.422Z" transform="translate(-2262.708 -1630.53)" fill="#f1a32f"/>
      </g>
      <g id="Group_456" data-name="Group 456" transform="translate(14.938 0)">
        <g id="Group_455" data-name="Group 455">
          <path id="Path_854" data-name="Path 854" d="M2499.57,1419.248l-86.2-50.673.032-16.92,86.2,48.471Z" transform="translate(-2349.058 -1349.032)" fill="#ba4a1e"/>
          <g id="Group_453" data-name="Group 453" transform="translate(0 19.038)">
            <path id="Path_855" data-name="Path 855" d="M2163.717,1502.306l-1.6,0v.786l-84.541-49.021a1.155,1.155,0,0,0-1.155,0l-62.549,35.956a1.155,1.155,0,0,0,0,2l85.562,50.9a1.156,1.156,0,0,0,1.155,0l62.55-36.452a2.014,2.014,0,0,0,.43-2.241h.151Z" transform="translate(-2013.2 -1453.912)" fill="#ba4a1e"/>
            <rect id="Rectangle_256" data-name="Rectangle 256" width="2.242" height="2.562" transform="matrix(0.002, -1, 1, 0.002, 0, 37.221)" fill="#dd4078"/>
          </g>
          <path id="Path_856" data-name="Path 856" d="M2100.608,1528.445l62.549-35.956a1.155,1.155,0,0,0,0-2l-85.564-49.615a1.155,1.155,0,0,0-1.155,0l-62.549,35.956a1.155,1.155,0,0,0,0,2l85.564,49.615A1.155,1.155,0,0,0,2100.608,1528.445Z" transform="translate(-2013.22 -1423.797)" fill="#ba4a1e"/>
          <path id="Path_857" data-name="Path 857" d="M2549.279,1716.644l59.029-32.766.036-19.123-59.329,34.633Z" transform="translate(-2462.925 -1611.871)" fill="#fff"/>
          <line id="Line_46" data-name="Line 46" x1="58.346" y2="33.21" transform="translate(86.808 65.15)" fill="none" stroke="#baced8" stroke-miterlimit="10" stroke-width="3.862"/>
          <line id="Line_47" data-name="Line 47" x1="59.223" y2="33.119" transform="translate(85.942 59.57)" fill="none" stroke="#baced8" stroke-miterlimit="10" stroke-width="3.862"/>
          <line id="Line_48" data-name="Line 48" x1="58.346" y2="33.21" transform="translate(86.801 68.869)" fill="none" stroke="#baced8" stroke-miterlimit="10" stroke-width="3.862"/>
          <path id="Path_858" data-name="Path 858" d="M2854.87,1761.48s7.651,5.965,8.1,12.01l-5.507,2.934s-4.542-10.122-7.76-12.006Z" transform="translate(-2715.347 -1693.068)" fill="#4974e3"/>
          <path id="Path_859" data-name="Path 859" d="M2120.892,1645.77l-82.224-48.521.032-16.92,82.228,46.639Z" transform="translate(-2034.504 -1540.996)" fill="#e1eaf4"/>
          <g id="Group_454" data-name="Group 454" transform="translate(0.032 2.118)">
            <path id="Path_860" data-name="Path 860" d="M2163.91,1399.09l0-1.922-1.6,0v.521l-84.541-49.021a1.155,1.155,0,0,0-1.155,0l-62.549,35.956a1.155,1.155,0,0,0,0,2l85.564,49.615a1.155,1.155,0,0,0,1.155,0l62.549-35.956a1.143,1.143,0,0,0,.556-1.19Z" transform="translate(-2013.398 -1348.509)" fill="#ba4a1e"/>
            <rect id="Rectangle_257" data-name="Rectangle 257" width="2.242" height="2.562" transform="translate(0 37.166) rotate(-89.892)" fill="#dd4078"/>
          </g>
          <path id="Path_861" data-name="Path 861" d="M2100.807,1423.042l62.549-35.956a1.155,1.155,0,0,0,0-2l-85.564-49.615a1.155,1.155,0,0,0-1.155,0l-62.549,35.956a1.155,1.155,0,0,0,0,2l85.564,49.615A1.155,1.155,0,0,0,2100.807,1423.042Z" transform="translate(-2013.386 -1335.315)" fill="#db5723"/>
          <line id="Line_49" data-name="Line 49" x2="80.68" y2="46.324" transform="translate(5.262 46.366)" fill="none" stroke="#baced8" stroke-miterlimit="10" stroke-width="3.862"/>
          <line id="Line_50" data-name="Line 50" x2="80.68" y2="46.324" transform="translate(5.255 50.31)" fill="none" stroke="#baced8" stroke-miterlimit="10" stroke-width="3.862"/>
          <line id="Line_51" data-name="Line 51" x2="80.68" y2="46.324" transform="translate(5.248 54.254)" fill="none" stroke="#baced8" stroke-miterlimit="10" stroke-width="3.862"/>
        </g>
        <path id="Path_862" data-name="Path 862" d="M2037.318,1645.745l-8.614,5.322,53.814,20.559Z" transform="translate(-2026.14 -1595.911)" fill="#f1a32f"/>
      </g>
    </g>
    <g id="Group_464" data-name="Group 464" transform="translate(1951.431 474.108)">
      <path id="Path_863" data-name="Path 863" d="M2145.431,1483.494l-27.926-16.258,20.072-30.1Z" transform="translate(-2117.505 -1393.987)" fill="#2e6399"/>
      <path id="Path_864" data-name="Path 864" d="M2117.505,1242.693l61.619-34.643,8.609-38.4-61.619,34.643Z" transform="translate(-2117.505 -1169.443)" fill="#1c3d5e"/>
      <path id="Path_865" data-name="Path 865" d="M2191.2,1257.867l61.619-34.643-19.173-54.864L2172.028,1203Z" transform="translate(-2163.276 -1168.359)" fill="#307de5"/>
      <path id="Path_866" data-name="Path 866" d="M2201.993,1239.391l52.423-29.938,1.011,2.85.006,0,14.928,42.1-52.423,29.938-1.011-2.85-.006,0Z" transform="translate(-2188.43 -1202.856)" fill="#c6dbf5"/>
      <path id="Path_867" data-name="Path 867" d="M2211.961,1243.964l52.423-29.938,1.011,2.85.006,0,14.928,42.1-52.423,29.938-1.011-2.85-.006,0Z" transform="translate(-2196.798 -1206.695)" fill="#dbefff"/>
      <path id="Path_868" data-name="Path 868" d="M2222.454,1242.369l52.423-29.938,1.011,2.85.006,0,14.928,42.1-52.423,29.938-1.011-2.85-.005,0Z" transform="translate(-2205.606 -1205.356)" fill="#fff"/>
      <path id="Path_869" data-name="Path 869" d="M2496.889,1246.729a1.459,1.459,0,0,0,1.7,1.43,1.9,1.9,0,0,0,1.5-1.977,1.459,1.459,0,0,0-1.7-1.43A1.9,1.9,0,0,0,2496.889,1246.729Z" transform="translate(-2435.983 -1232.469)" fill="#a8c4e5"/>
      <g id="Group_458" data-name="Group 458" transform="translate(53.224 1.689)">
        <path id="Path_870" data-name="Path 870" d="M2458.586,1189.877a2.263,2.263,0,0,0,.932-2.128c-.061-2.457-2.272-5.551-4.83-6.756a4.7,4.7,0,0,0-1.783-.482,2.053,2.053,0,0,0-2.234,2.427h0a6.273,6.273,0,0,0,.714,2.58l-1.358.783a8.173,8.173,0,0,1-.973-3.485h0a3.693,3.693,0,0,1,1.607-3.42,4.834,4.834,0,0,1,4.587.132c3.222,1.52,5.808,5.185,5.886,8.345a3.694,3.694,0,0,1-1.607,3.421,3.394,3.394,0,0,1-1.06.422.763.763,0,0,1-.866-.924h0a1.094,1.094,0,0,1,.662-.755A1.841,1.841,0,0,0,2458.586,1189.877Z" transform="translate(-2449.053 -1178.879)" fill="#1c3d5e"/>
      </g>
      <path id="Path_871" data-name="Path 871" d="M2437.808,1280a1.459,1.459,0,0,0,1.7,1.43,1.9,1.9,0,0,0,1.5-1.977,1.459,1.459,0,0,0-1.7-1.429A1.9,1.9,0,0,0,2437.808,1280Z" transform="translate(-2386.387 -1260.404)" fill="#a8c4e5"/>
      <g id="Group_459" data-name="Group 459" transform="translate(43.739 7.03)">
        <path id="Path_872" data-name="Path 872" d="M2399.505,1223.153a2.264,2.264,0,0,0,.932-2.128c-.061-2.457-2.273-5.551-4.83-6.757a4.7,4.7,0,0,0-1.783-.482,2.053,2.053,0,0,0-2.234,2.427h0a6.27,6.27,0,0,0,.714,2.58l-1.358.783a8.177,8.177,0,0,1-.973-3.485h0a3.694,3.694,0,0,1,1.607-3.421,4.835,4.835,0,0,1,4.587.132c3.222,1.519,5.808,5.185,5.886,8.345a3.693,3.693,0,0,1-1.607,3.42,3.391,3.391,0,0,1-1.06.422.763.763,0,0,1-.866-.924h0a1.1,1.1,0,0,1,.662-.755A1.841,1.841,0,0,0,2399.505,1223.153Z" transform="translate(-2389.972 -1212.154)" fill="#1c3d5e"/>
      </g>
      <path id="Path_873" data-name="Path 873" d="M2378.726,1313.28a1.459,1.459,0,0,0,1.7,1.43,1.9,1.9,0,0,0,1.5-1.977,1.459,1.459,0,0,0-1.7-1.429A1.9,1.9,0,0,0,2378.726,1313.28Z" transform="translate(-2336.789 -1288.338)" fill="#a8c4e5"/>
      <g id="Group_460" data-name="Group 460" transform="translate(34.255 12.372)">
        <path id="Path_874" data-name="Path 874" d="M2340.424,1256.429a2.263,2.263,0,0,0,.932-2.128c-.061-2.457-2.272-5.551-4.829-6.757a4.7,4.7,0,0,0-1.783-.482,2.054,2.054,0,0,0-2.234,2.427h0a6.274,6.274,0,0,0,.714,2.58l-1.358.783a8.174,8.174,0,0,1-.973-3.485h0a3.694,3.694,0,0,1,1.607-3.42,4.834,4.834,0,0,1,4.587.132c3.222,1.52,5.808,5.185,5.886,8.345a3.693,3.693,0,0,1-1.607,3.421,3.388,3.388,0,0,1-1.06.422.763.763,0,0,1-.866-.925h0a1.1,1.1,0,0,1,.662-.755A1.849,1.849,0,0,0,2340.424,1256.429Z" transform="translate(-2330.891 -1245.429)" fill="#1c3d5e"/>
      </g>
      <path id="Path_875" data-name="Path 875" d="M2319.645,1346.556a1.458,1.458,0,0,0,1.7,1.43,1.9,1.9,0,0,0,1.5-1.977,1.459,1.459,0,0,0-1.7-1.43A1.9,1.9,0,0,0,2319.645,1346.556Z" transform="translate(-2287.193 -1316.271)" fill="#a8c4e5"/>
      <g id="Group_461" data-name="Group 461" transform="translate(24.771 17.714)">
        <path id="Path_876" data-name="Path 876" d="M2281.344,1289.7a2.263,2.263,0,0,0,.931-2.128c-.061-2.457-2.272-5.551-4.829-6.757a4.7,4.7,0,0,0-1.783-.482,2.054,2.054,0,0,0-2.234,2.427h0a6.273,6.273,0,0,0,.714,2.579l-1.358.783a8.177,8.177,0,0,1-.973-3.485h0a3.693,3.693,0,0,1,1.607-3.42,4.834,4.834,0,0,1,4.587.132c3.222,1.52,5.808,5.185,5.886,8.345a3.694,3.694,0,0,1-1.607,3.421,3.392,3.392,0,0,1-1.059.422.763.763,0,0,1-.866-.925h0a1.094,1.094,0,0,1,.661-.755A1.86,1.86,0,0,0,2281.344,1289.7Z" transform="translate(-2271.81 -1278.705)" fill="#1c3d5e"/>
      </g>
      <path id="Path_877" data-name="Path 877" d="M2260.564,1379.832a1.459,1.459,0,0,0,1.7,1.43,1.9,1.9,0,0,0,1.5-1.977,1.459,1.459,0,0,0-1.7-1.43A1.9,1.9,0,0,0,2260.564,1379.832Z" transform="translate(-2237.595 -1344.206)" fill="#a8c4e5"/>
      <g id="Group_462" data-name="Group 462" transform="translate(15.286 23.056)">
        <path id="Path_878" data-name="Path 878" d="M2222.262,1322.98a2.263,2.263,0,0,0,.931-2.128c-.061-2.457-2.273-5.551-4.83-6.756a4.7,4.7,0,0,0-1.783-.482,2.054,2.054,0,0,0-2.234,2.427h0a6.274,6.274,0,0,0,.714,2.58l-1.358.783a8.173,8.173,0,0,1-.973-3.485h0a3.693,3.693,0,0,1,1.607-3.421,4.835,4.835,0,0,1,4.587.132c3.222,1.52,5.808,5.185,5.886,8.345a3.694,3.694,0,0,1-1.607,3.421,3.391,3.391,0,0,1-1.06.422.763.763,0,0,1-.866-.924h0a1.1,1.1,0,0,1,.662-.755A1.843,1.843,0,0,0,2222.262,1322.98Z" transform="translate(-2212.728 -1311.981)" fill="#1c3d5e"/>
      </g>
      <g id="Group_463" data-name="Group 463" transform="translate(23.229 18.496)">
        <line id="Line_52" data-name="Line 52" x1="48.144" y2="27.067" fill="none" stroke="#a8c4e5" stroke-miterlimit="10" stroke-width="1.323"/>
        <line id="Line_53" data-name="Line 53" x1="48.144" y2="27.067" transform="translate(2.32 6.718)" fill="none" stroke="#a8c4e5" stroke-miterlimit="10" stroke-width="1.323"/>
        <line id="Line_54" data-name="Line 54" x1="48.144" y2="27.067" transform="translate(4.64 13.435)" fill="none" stroke="#a8c4e5" stroke-miterlimit="10" stroke-width="1.323"/>
        <line id="Line_55" data-name="Line 55" x1="48.144" y2="27.067" transform="translate(6.96 20.153)" fill="none" stroke="#a8c4e5" stroke-miterlimit="10" stroke-width="1.323"/>
        <line id="Line_56" data-name="Line 56" x1="48.144" y2="27.067" transform="translate(9.28 26.87)" fill="none" stroke="#a8c4e5" stroke-miterlimit="10" stroke-width="1.323"/>
        <path id="Path_879" data-name="Path 879" d="M2515.151,1299l6.464-3.634-2.32-6.718-6.464,3.634Z" transform="translate(-2472.599 -1287.833)" fill="none" stroke="#a8c4e5" stroke-miterlimit="10" stroke-width="1.323"/>
        <path id="Path_880" data-name="Path 880" d="M2474.883,1321.638l6.464-3.634-2.32-6.718-6.464,3.634Z" transform="translate(-2438.794 -1306.838)" fill="none" stroke="#a8c4e5" stroke-miterlimit="10" stroke-width="1.323"/>
        <path id="Path_881" data-name="Path 881" d="M2434.615,1344.277l6.464-3.634-2.32-6.718-6.464,3.634Z" transform="translate(-2404.99 -1325.843)" fill="none" stroke="#a8c4e5" stroke-miterlimit="10" stroke-width="1.323"/>
        <path id="Path_882" data-name="Path 882" d="M2394.346,1366.917l6.464-3.634-2.32-6.718-6.464,3.634Z" transform="translate(-2371.186 -1344.848)" fill="none" stroke="#a8c4e5" stroke-miterlimit="10" stroke-width="1.323"/>
        <path id="Path_883" data-name="Path 883" d="M2354.078,1389.556l6.464-3.634-2.32-6.718-6.464,3.634Z" transform="translate(-2337.382 -1363.854)" fill="none" stroke="#a8c4e5" stroke-miterlimit="10" stroke-width="1.323"/>
        <path id="Path_884" data-name="Path 884" d="M2313.809,1412.2l6.464-3.634-2.32-6.718-6.464,3.634Z" transform="translate(-2303.578 -1382.859)" fill="none" stroke="#a8c4e5" stroke-miterlimit="10" stroke-width="1.323"/>
        <path id="Path_885" data-name="Path 885" d="M2273.541,1434.835l6.464-3.634-2.32-6.718-6.464,3.634Z" transform="translate(-2269.774 -1401.864)" fill="none" stroke="#a8c4e5" stroke-miterlimit="10" stroke-width="1.323"/>
        <path id="Path_886" data-name="Path 886" d="M2529.6,1340.844l6.464-3.634-2.32-6.718-6.464,3.634Z" transform="translate(-2484.731 -1322.962)" fill="none" stroke="#a8c4e5" stroke-miterlimit="10" stroke-width="1.323"/>
        <path id="Path_887" data-name="Path 887" d="M2489.336,1363.484l6.464-3.634-2.32-6.718-6.464,3.634Z" transform="translate(-2450.927 -1341.967)" fill="none" stroke="#a8c4e5" stroke-miterlimit="10" stroke-width="1.323"/>
        <path id="Path_888" data-name="Path 888" d="M2449.067,1386.123l6.464-3.634-2.32-6.718-6.464,3.634Z" transform="translate(-2417.123 -1360.972)" fill="none" stroke="#a8c4e5" stroke-miterlimit="10" stroke-width="1.323"/>
        <path id="Path_889" data-name="Path 889" d="M2408.8,1408.763l6.464-3.634-2.32-6.718-6.464,3.634Z" transform="translate(-2383.319 -1379.977)" fill="none" stroke="#a8c4e5" stroke-miterlimit="10" stroke-width="1.323"/>
        <path id="Path_890" data-name="Path 890" d="M2368.53,1431.4l6.464-3.634-2.32-6.718-6.464,3.634Z" transform="translate(-2349.515 -1398.982)" fill="none" stroke="#a8c4e5" stroke-miterlimit="10" stroke-width="1.323"/>
        <path id="Path_891" data-name="Path 891" d="M2328.262,1454.042l6.464-3.634-2.32-6.718-6.464,3.634Z" transform="translate(-2315.711 -1417.987)" fill="none" stroke="#a8c4e5" stroke-miterlimit="10" stroke-width="1.323"/>
        <path id="Path_892" data-name="Path 892" d="M2287.994,1476.682l6.464-3.634-2.32-6.718-6.464,3.634Z" transform="translate(-2281.907 -1436.993)" fill="none" stroke="#a8c4e5" stroke-miterlimit="10" stroke-width="1.323"/>
        <path id="Path_893" data-name="Path 893" d="M2544.057,1382.691l6.464-3.634-2.32-6.718-6.464,3.634Z" transform="translate(-2496.864 -1358.09)" fill="none" stroke="#a8c4e5" stroke-miterlimit="10" stroke-width="1.323"/>
        <path id="Path_894" data-name="Path 894" d="M2503.788,1405.33l6.464-3.634-2.32-6.718-6.464,3.634Z" transform="translate(-2463.06 -1377.095)" fill="none" stroke="#a8c4e5" stroke-miterlimit="10" stroke-width="1.323"/>
        <path id="Path_895" data-name="Path 895" d="M2463.52,1427.97l6.464-3.634-2.32-6.718-6.464,3.634Z" transform="translate(-2429.255 -1396.1)" fill="none" stroke="#a8c4e5" stroke-miterlimit="10" stroke-width="1.323"/>
        <path id="Path_896" data-name="Path 896" d="M2423.252,1450.609l6.464-3.634-2.32-6.718-6.464,3.634Z" transform="translate(-2395.452 -1415.106)" fill="none" stroke="#a8c4e5" stroke-miterlimit="10" stroke-width="1.323"/>
        <path id="Path_897" data-name="Path 897" d="M2382.983,1473.249l6.464-3.634-2.32-6.718-6.464,3.634Z" transform="translate(-2361.647 -1434.111)" fill="none" stroke="#a8c4e5" stroke-miterlimit="10" stroke-width="1.323"/>
        <path id="Path_898" data-name="Path 898" d="M2342.715,1495.888l6.464-3.634-2.32-6.718-6.464,3.634Z" transform="translate(-2327.843 -1453.116)" fill="none" stroke="#a8c4e5" stroke-miterlimit="10" stroke-width="1.323"/>
        <path id="Path_899" data-name="Path 899" d="M2302.446,1518.528l6.464-3.634-2.32-6.718-6.464,3.634Z" transform="translate(-2294.039 -1472.121)" fill="none" stroke="#a8c4e5" stroke-miterlimit="10" stroke-width="1.323"/>
        <path id="Path_900" data-name="Path 900" d="M2558.509,1424.537l6.464-3.634-2.32-6.718-6.464,3.634Z" transform="translate(-2508.996 -1393.219)" fill="none" stroke="#a8c4e5" stroke-miterlimit="10" stroke-width="1.323"/>
        <path id="Path_901" data-name="Path 901" d="M2518.241,1447.176l6.464-3.634-2.32-6.718-6.464,3.634Z" transform="translate(-2475.192 -1412.224)" fill="none" stroke="#a8c4e5" stroke-miterlimit="10" stroke-width="1.323"/>
        <path id="Path_902" data-name="Path 902" d="M2477.973,1469.816l6.464-3.634-2.32-6.718-6.464,3.634Z" transform="translate(-2441.388 -1431.229)" fill="none" stroke="#a8c4e5" stroke-miterlimit="10" stroke-width="1.323"/>
        <path id="Path_903" data-name="Path 903" d="M2437.7,1492.456l6.464-3.634-2.32-6.718-6.464,3.634Z" transform="translate(-2407.584 -1450.234)" fill="none" stroke="#a8c4e5" stroke-miterlimit="10" stroke-width="1.323"/>
        <path id="Path_904" data-name="Path 904" d="M2397.436,1515.1l6.464-3.634-2.32-6.718-6.464,3.634Z" transform="translate(-2373.78 -1469.24)" fill="none" stroke="#a8c4e5" stroke-miterlimit="10" stroke-width="1.323"/>
        <path id="Path_905" data-name="Path 905" d="M2357.167,1537.735l6.464-3.634-2.32-6.718-6.464,3.634Z" transform="translate(-2339.976 -1488.245)" fill="none" stroke="#a8c4e5" stroke-miterlimit="10" stroke-width="1.323"/>
        <path id="Path_906" data-name="Path 906" d="M2316.9,1560.374l6.464-3.634-2.32-6.718-6.464,3.634Z" transform="translate(-2306.172 -1507.25)" fill="none" stroke="#a8c4e5" stroke-miterlimit="10" stroke-width="1.323"/>
      </g>
      <path id="Path_907" data-name="Path 907" d="M2476.88,1307.72l2.73-1.535a.482.482,0,0,0,.175-.6h0a.373.373,0,0,0-.524-.209l-2.73,1.535a.482.482,0,0,0-.175.6h0A.373.373,0,0,0,2476.88,1307.72Z" transform="translate(-2418.716 -1283.341)" fill="#1c3d5e"/>
      <path id="Path_908" data-name="Path 908" d="M2436.4,1330.514l2.73-1.535a.482.482,0,0,0,.175-.6h0a.373.373,0,0,0-.523-.21l-2.73,1.535a.482.482,0,0,0-.175.6h0A.373.373,0,0,0,2436.4,1330.514Z" transform="translate(-2384.737 -1302.476)" fill="#1c3d5e"/>
      <path id="Path_909" data-name="Path 909" d="M2395.926,1353.308l2.73-1.535a.482.482,0,0,0,.175-.6h0a.373.373,0,0,0-.524-.209l-2.73,1.535a.482.482,0,0,0-.175.6h0A.373.373,0,0,0,2395.926,1353.308Z" transform="translate(-2350.757 -1321.611)" fill="#1c3d5e"/>
      <path id="Path_910" data-name="Path 910" d="M2355.448,1376.1l2.73-1.535a.482.482,0,0,0,.175-.6h0a.373.373,0,0,0-.523-.209l-2.73,1.535a.482.482,0,0,0-.175.6h0A.373.373,0,0,0,2355.448,1376.1Z" transform="translate(-2316.777 -1340.745)" fill="#1c3d5e"/>
      <path id="Path_911" data-name="Path 911" d="M2314.971,1398.9l2.73-1.535a.482.482,0,0,0,.175-.6h0a.373.373,0,0,0-.524-.209l-2.73,1.535a.482.482,0,0,0-.175.6h0A.373.373,0,0,0,2314.971,1398.9Z" transform="translate(-2282.798 -1359.88)" fill="#1c3d5e"/>
      <path id="Path_912" data-name="Path 912" d="M2274.493,1421.69l2.73-1.535a.482.482,0,0,0,.175-.6h0a.373.373,0,0,0-.523-.209l-2.73,1.535a.482.482,0,0,0-.175.6h0A.373.373,0,0,0,2274.493,1421.69Z" transform="translate(-2248.818 -1379.015)" fill="#1c3d5e"/>
      <path id="Path_913" data-name="Path 913" d="M2396.292,1389.263c1.18,4.164,4.788,5.576,8.058,3.154s4.966-7.761,3.786-11.925-4.788-5.576-8.058-3.154S2395.113,1385.1,2396.292,1389.263Z" transform="translate(-2351.224 -1342.797)" fill="#db5723"/>
      <path id="Path_914" data-name="Path 914" d="M2416.791,1420.642l-1.791,4.3-5.432-5.626" transform="translate(-2362.683 -1379.028)" fill="none" stroke="#fff" stroke-miterlimit="10" stroke-width="2.044"/>
    </g>
    <g id="Group_465" data-name="Group 465" transform="translate(2004.01 537.69)">
      <path id="Path_915" data-name="Path 915" d="M2506.077,1594.766c-.4-.082-.8-.155-1.193-.227,1.969-5.449-5.679-9.619-8.35-10.885a2.688,2.688,0,0,0-1.835-.169,50.418,50.418,0,0,0-15.7,7.312,77.177,77.177,0,0,0-13.5,8.025c-.208.158-.408.317-.61.476q-1.246.5-2.482,1.037a58.134,58.134,0,0,0-12.847,7.624,29.157,29.157,0,0,0-3.741,3.156,2.7,2.7,0,0,0,.378,4.109,27.144,27.144,0,0,0,7.792,3.773,17.866,17.866,0,0,0,2.259,6.589,4.58,4.58,0,0,0,4.6,1.8,3.593,3.593,0,0,0,2.327-1.165,1.61,1.61,0,0,0,.2-1.639,28.826,28.826,0,0,1-1.341-4.778,21.505,21.505,0,0,0,8.131-2.494c14.25-7.577,3.159-15.755,3.159-15.755l.333-.194,1.034-.6.333-.194s11.51,8.9,25.671-1.212c.157-.112.308-.224.455-.335,1.986.217,3.218.4,3.265.406,2.25.325,3.916-.324,4.531-1.183a1.569,1.569,0,0,0,.132-.219C2509.523,1597.11,2508.6,1595.322,2506.077,1594.766Zm-4.4-1.194q.041-.465.048-.931A3.55,3.55,0,0,1,2501.681,1593.572Z" transform="translate(-2445.038 -1580.352)" fill="#a8c4e5" opacity="0.52" style="mix-blend-mode: multiply;isolation: isolate"/>
      <path id="Path_916" data-name="Path 916" d="M2503.607,1635.257a16.251,16.251,0,0,1-.9-15.367c1.826-4.042,5.293-8.029,10.3-11.85a83.747,83.747,0,0,1,18.79-10.35l.757.656a94.84,94.84,0,0,0-20.709,17.4c-5.75,6.584-1.048,18.367-1,18.49a1.638,1.638,0,0,1-.2,1.667,3.654,3.654,0,0,1-2.367,1.185A4.658,4.658,0,0,1,2503.607,1635.257Z" transform="translate(-2492.177 -1592.351)" fill="#2e6399"/>
      <path id="Path_917" data-name="Path 917" d="M2469.06,1636.189a77.634,77.634,0,0,1,19.665-5.718c8.345-1.244,16.5-1.647,24.752.054,2.562.566,3.5,2.384,3.05,3.308a1.582,1.582,0,0,1-.134.222c-.625.874-2.32,1.534-4.609,1.2-.19-.029-19.2-2.835-30.136.357-17.724,5.172-28.961,11.5-29.073,11.565l.182-.356C2452.823,1646.768,2458.192,1640.948,2469.06,1636.189Z" transform="translate(-2451.366 -1618.962)" fill="#2e6399"/>
      <path id="Path_918" data-name="Path 918" d="M2498.465,1575.572a2.735,2.735,0,0,0-1.867-.172c-3.632.949-16.689,5-24.507,15.744l-.087.051c-14.864,3.7-22.062,9.2-25.121,12.3a2.727,2.727,0,0,0-.621.98l-.534-.151.425,1.679,0,0a2.725,2.725,0,0,0,1.11,1.669c4.212,2.937,13.67,7.812,24.376,2.12,14.493-7.706,3.213-16.023,3.213-16.023l.339-.2,1.051-.613.339-.2s11.706,9.052,26.108-1.233C2513.682,1583.689,2501.937,1577.217,2498.465,1575.572Zm-28.256,31.786a19.512,19.512,0,0,1-17.572.139,2.751,2.751,0,0,1-.657-4.57c2.654-2.335,7.7-5.675,16.569-8.1a2.76,2.76,0,0,1,2.215.337l1.772,1.135S2480.993,1601.624,2470.209,1607.357Zm29.858-17.4a20.062,20.062,0,0,1-19.136,1.446h0a2.755,2.755,0,0,1-.68-4.409c5.638-5.628,13.03-8.029,15.715-8.755a2.743,2.743,0,0,1,2.012.234C2500.792,1579.981,2508.19,1584.77,2500.067,1589.958Z" transform="translate(-2445.617 -1573.564)" fill="#8caded"/>
      <path id="Path_919" data-name="Path 919" d="M2636.746,1584.679a8.875,8.875,0,0,0,8.706,6.073c6.884-.113,15.976-1.984,17.556-6.5s.237-10.619-3.321-11.8S2640.062,1576.975,2636.746,1584.679Z" transform="translate(-2605.971 -1571.028)" fill="#e3f2ff" opacity="0.65"/>
      <path id="Path_920" data-name="Path 920" d="M2466.36,1683.7a8.876,8.876,0,0,0,8.706,6.073c6.883-.113,15.976-1.984,17.556-6.5s.237-10.619-3.321-11.8S2469.676,1676,2466.36,1683.7Z" transform="translate(-2462.937 -1654.156)" fill="#e3f2ff" opacity="0.65"/>
      <path id="Path_921" data-name="Path 921" d="M2451.792,1596.62a2.751,2.751,0,0,1-.657-4.57c2.654-2.335,7.7-5.675,16.569-8.1a2.76,2.76,0,0,1,2.215.337l1.772,1.135s8.456,5.328-2.327,11.062A19.511,19.511,0,0,1,2451.792,1596.62Zm28.293-16.092h0a2.755,2.755,0,0,1-.68-4.409c5.638-5.628,13.029-8.029,15.715-8.755a2.742,2.742,0,0,1,2.012.233c2.814,1.507,10.213,6.3,2.09,11.485A20.062,20.062,0,0,1,2480.084,1580.528Zm-34.048,12.095a2.745,2.745,0,0,0,.385,4.179c4.212,2.937,13.67,7.812,24.376,2.12,14.493-7.706,3.213-16.023,3.213-16.023l.339-.2,1.051-.613.339-.2s11.705,9.051,26.108-1.233c10.988-7.845-.757-14.317-4.229-15.962a2.736,2.736,0,0,0-1.867-.172c-3.632.949-16.689,5-24.507,15.744l-.087.051C2456.294,1584.016,2449.1,1589.521,2446.037,1592.623Z" transform="translate(-2445.213 -1564.433)" fill="#fff"/>
      <path id="Path_922" data-name="Path 922" d="M2470.971,1722.625s-1.35-1.563-.776-3.063,3.833-3.593,5.771-4.7" transform="translate(-2466.038 -1690.716)" fill="none" stroke="#fff" stroke-linecap="round" stroke-linejoin="round" stroke-width="1.405"/>
      <path id="Path_923" data-name="Path 923" d="M2645.75,1620.282s-1.35-1.562-.776-3.063,3.833-3.593,5.771-4.7" transform="translate(-2612.759 -1604.802)" fill="none" stroke="#fff" stroke-linecap="round" stroke-linejoin="round" stroke-width="1.405"/>
      <path id="Path_924" data-name="Path 924" d="M2512.9,1730.027h0a.331.331,0,0,1-.249-.395l1.323-5.821a.331.331,0,0,1,.395-.248h0a.331.331,0,0,1,.249.395l-1.323,5.821A.331.331,0,0,1,2512.9,1730.027Z" transform="translate(-2501.792 -1698.01)" fill="#fff"/>
      <path id="Path_925" data-name="Path 925" d="M2526.563,1729.2h0a.157.157,0,0,1-.118-.188l1.4-6.158a.158.158,0,0,1,.188-.119h0a.158.158,0,0,1,.119.188l-1.4,6.158A.158.158,0,0,1,2526.563,1729.2Z" transform="translate(-2513.374 -1697.319)" fill="#fff"/>
      <path id="Path_926" data-name="Path 926" d="M2685.3,1631.409h0a.331.331,0,0,1-.249-.395l1.323-5.821a.331.331,0,0,1,.395-.248h0a.331.331,0,0,1,.249.395l-1.323,5.821A.331.331,0,0,1,2685.3,1631.409Z" transform="translate(-2646.512 -1615.223)" fill="#fff"/>
      <path id="Path_927" data-name="Path 927" d="M2698.958,1630.581h0a.158.158,0,0,1-.118-.188l1.4-6.158a.158.158,0,0,1,.188-.118h0a.157.157,0,0,1,.118.188l-1.4,6.158A.157.157,0,0,1,2698.958,1630.581Z" transform="translate(-2658.094 -1614.532)" fill="#fff"/>
    </g>
  </g>
</svg>
