<svg xmlns="http://www.w3.org/2000/svg" width="536.344" height="470.287" viewBox="0 0 536.344 470.287">
  <g id="Support" transform="translate(-30.763 -146.166)">
    <g id="Background_Complete" data-name="Background Complete" transform="translate(40.045 255.715)">
      <g id="Group_61" data-name="Group 61">
        <path id="Path_8" data-name="Path 8" d="M51.243,225.435l-12.475,20.11,6.195,3.838a5.608,5.608,0,0,1,2.574,5.291,32.744,32.744,0,0,0-.111,3.453,5.678,5.678,0,0,1-2.935,5.171l-6.385,3.423L49.3,287.585l6.383-3.424a5.533,5.533,0,0,1,5.784.314,32.906,32.906,0,0,0,3.2,1.984,5.535,5.535,0,0,1,2.864,5.048l-.23,7.243,23.655.734.219-7.268a5.551,5.551,0,0,1,3.211-4.855q.83-.387,1.644-.825t1.6-.911a5.528,5.528,0,0,1,5.793.006l6.2,3.843,12.475-20.11-6.213-3.856a5.593,5.593,0,0,1-2.562-5.285,32.944,32.944,0,0,0,.116-3.446,5.677,5.677,0,0,1,2.935-5.165l6.386-3.425L111.57,227.324l-6.386,3.425a5.679,5.679,0,0,1-5.927-.413,32.876,32.876,0,0,0-2.933-1.809,5.593,5.593,0,0,1-2.986-5.059l.225-7.31-23.655-.736-.225,7.263a5.616,5.616,0,0,1-3.286,4.877q-.789.374-1.571.793t-1.517.865a5.639,5.639,0,0,1-5.9.039Zm17.877,16.27a19.391,19.391,0,1,1-6.837,22.6A19.387,19.387,0,0,1,69.12,241.706Z" transform="translate(-38.106 -215.423)" fill="#ebebeb"/>
        <g id="Group_60" data-name="Group 60" transform="translate(165.493 101.677)">
          <path id="Path_10" data-name="Path 10" d="M220.65,324.933a3.325,3.325,0,0,1-1.638-2.828c0-.569.044-1.135.011-1.7a5.462,5.462,0,0,1,.1-1.7,3.329,3.329,0,0,1,.841-1.478,6.494,6.494,0,0,1,1.416-.956l2.946-1.715-.019.072-7.018-12.035.159.042-3.872,2.275a3.455,3.455,0,0,1-2.293.287,8.06,8.06,0,0,1-2.062-.987l-.969-.546a3.659,3.659,0,0,1-.947-.715,3.531,3.531,0,0,1-.958-2.153l-.052-4.5.292.292-13.936.137.428-.428.035,4.511a3.772,3.772,0,0,1-.985,2.32,3.889,3.889,0,0,1-1.007.789l-.949.561-.951.565a3.844,3.844,0,0,1-3.731.207l-3.922-2.232.766-.206L175.416,314.9l-.225-.839,3.917,2.252a3.849,3.849,0,0,1,1.556,2.108,4.035,4.035,0,0,1,.173,1.3l-.032,1.1.023,1.1a4.038,4.038,0,0,1-.181,1.3,3.852,3.852,0,0,1-1.553,2.088l-3.921,2.246.214-.793,6.907,12.1-.705-.188,3.932-2.211a3.739,3.739,0,0,1,2.491-.264,3.809,3.809,0,0,1,1.16.489l.953.565.953.562a3.8,3.8,0,0,1,.983.77,3.677,3.677,0,0,1,.962,2.265l-.035,4.5-.34-.34,13.936.138-.2.2.052-4.49a3.44,3.44,0,0,1,.935-2.1,8.227,8.227,0,0,1,1.9-1.244,8.392,8.392,0,0,1,2.035-.981,3.376,3.376,0,0,1,2.242.264l3.879,2.251-.1.027,7.009-12.04.006.022Zm0,0,3.707,2.12.014.008-.009.015-6.915,12.093-.034.061-.062-.034-3.886-2.217a3.188,3.188,0,0,0-2.122-.234,7.779,7.779,0,0,0-1.963.992,8.035,8.035,0,0,0-1.813,1.231,3.144,3.144,0,0,0-.818,1.933l.038,4.468v.2h-.2l-13.936.138-.336,0,0-.344-.051-4.454a2.892,2.892,0,0,0-.79-1.762,2.97,2.97,0,0,0-.784-.588l-.988-.556-.985-.559a2.934,2.934,0,0,0-.9-.36,2.828,2.828,0,0,0-1.872.234l-3.834,2.258-.444.262-.263-.45-7.018-12.035-.291-.5.5-.295,3.839-2.237a2.646,2.646,0,0,0,1.055-1.445,2.853,2.853,0,0,0,.119-.914l-.033-1.134.024-1.136a2.808,2.808,0,0,0-.126-.906,2.609,2.609,0,0,0-1.059-1.418l-3.836-2.244-.532-.311.307-.528,7.009-12.04.283-.487.483.281,3.846,2.23a2.732,2.732,0,0,0,1.82.219,2.935,2.935,0,0,0,.873-.349l.986-.561.99-.559a2.883,2.883,0,0,0,.761-.571,2.8,2.8,0,0,0,.766-1.708l.051-4.449.005-.432.423,0,13.936.137.295,0,0,.289-.037,4.463a3.051,3.051,0,0,0,.794,1.877,8.015,8.015,0,0,0,1.79,1.217,7.789,7.789,0,0,0,1.938.985,3.111,3.111,0,0,0,2.069-.22l3.9-2.188.1-.058.057.1,6.907,12.1.027.046-.046.027-2.96,1.692a6.435,6.435,0,0,0-1.409.933,3.271,3.271,0,0,0-.836,1.446,5.38,5.38,0,0,0-.107,1.686c.028.569-.023,1.139-.025,1.705A3.317,3.317,0,0,0,220.65,324.933Z" transform="translate(-174.045 -295.863)" fill="#ebebeb"/>
          <path id="Path_11" data-name="Path 11" d="M196.731,329.548a11.743,11.743,0,1,1,8.13-3.284A11.713,11.713,0,0,1,196.731,329.548Zm0,0a11.087,11.087,0,0,0,11.089-11.417,11.1,11.1,0,0,0-22.192.006,11.1,11.1,0,0,0,11.1,11.41Z" transform="translate(-171.154 -293.162)" fill="#ebebeb"/>
        </g>
      </g>
    </g>
    <g id="Desk" transform="translate(30.763 597.765)">
      <path id="Path_12" data-name="Path 12" d="M30.763,437.9l67.043-.307,67.043-.112,134.086-.212,134.086.21,67.043.111,67.043.309-67.043.309-67.043.111-134.086.21-134.086-.212L97.806,438.2Z" transform="translate(-30.763 -437.266)" fill="#263238"/>
    </g>
    <g id="Character_1" data-name="Character 1" transform="translate(48.193 307.185)">
      <g id="Group_136" data-name="Group 136">
        <g id="Group_101" data-name="Group 101" transform="translate(115.741 111.45)">
          <g id="Group_99" data-name="Group 99" transform="translate(0.109 1.124)">
            <path id="Path_59" data-name="Path 59" d="M137.809,319.35c11.116,48.4,34.13,106.42,43.948,115.836,12.42,11.91,94.619,33.749,98.719,34.192,10.155,1.026,30.492-72.057,19.682-73.619-16.459-2.378-76.3-5.634-79.883-9.316-3.721-3.85-28.975-35.7-54.947-71.683C147.405,289.893,130.913,289.318,137.809,319.35Z" transform="translate(-136.205 -296.441)" fill="#ad6359"/>
            <g id="Group_98" data-name="Group 98" transform="translate(136.121 98.249)">
              <path id="Path_60" data-name="Path 60" d="M243.9,444.917c1.21.613,18.385,9.251,29.005,12.329,7.922,2.3,30.908,8.3,34.3-.176,2.323-5.775-10.778-10.895-19.961-14.721-4.837-2.016-10.8-7.08-9.374-10.19,2.493-5.436,14.947.024,23.136,4.783,15.838,9.2,36.936,25.767,46.61,17.733,3.653-3.039-.593-8.569-6.805-13.993,10.08,6.32,20.832,11.5,25.024,8.292,2.407-1.83,2.519-4.342,1.179-7.211,3.112,1.011,5.862.814,7.78-1.213,3.278-3.429,1.68-8.49-1.9-13.679a3.9,3.9,0,0,0,2.975-1.955c6.939-10.579-27.788-40.951-39.8-43.794-35.335-8.4-72.569-6.837-72.569-6.837C249.612,385.376,243.867,444.893,243.9,444.917Z" transform="translate(-243.895 -374.169)" fill="#ad6359"/>
              <g id="Group_97" data-name="Group 97" transform="translate(51.874 10.113)">
                <path id="Path_61" data-name="Path 61" d="M285.021,404.406a59.961,59.961,0,0,1,23.569,9.072c8.958,5.912,14.9,12.833,22.417,19.8.2.183-.081.5-.279.312-3.582-3.313-18.422-15.767-22.255-18.6a57.113,57.113,0,0,0-23.483-10.446C284.9,404.531,284.929,404.391,285.021,404.406Z" transform="translate(-284.934 -376.299)" fill="#263238"/>
                <path id="Path_62" data-name="Path 62" d="M290.232,392.545c9.287,2.538,18.8,5.107,27.423,9.5,9.433,4.807,16.815,12.644,24.074,20.185q6.538,6.8,12.77,13.874c.173.2-.091.511-.279.312q-11.046-11.687-22.789-22.7a75.543,75.543,0,0,0-25.01-15.762c-5.314-2.025-10.773-3.639-16.224-5.247C290.1,392.677,290.128,392.516,290.232,392.545Z" transform="translate(-283.561 -379.431)" fill="#263238"/>
                <path id="Path_63" data-name="Path 63" d="M298.069,382.17c9.024,1.853,16.895,3.438,24.885,8.273,10.579,6.4,20.789,17.187,24.373,21.01,3.958,4.224,7.769,8.575,11.516,12.986.153.178-.157.449-.315.272A299.466,299.466,0,0,0,331,397.451a59.616,59.616,0,0,0-15.391-10.008c-5.615-2.418-11.631-3.788-17.555-5.21A.032.032,0,0,1,298.069,382.17Z" transform="translate(-281.476 -382.169)" fill="#263238"/>
              </g>
            </g>
          </g>
          <g id="Group_100" data-name="Group 100">
            <path id="Path_64" data-name="Path 64" d="M286.256,392.049l-25.28,80.081s-68.439-19.537-80.946-33.027-35.588-83.137-42.378-116.893,10.28-32.921,25.967-11.638,54.743,72.868,56.927,73.988S286.256,392.049,286.256,392.049Z" transform="translate(-136.119 -295.551)" fill="#ffc727"/>
            <path id="Path_65" data-name="Path 65" d="M286.256,392.049l-25.28,80.081s-68.439-19.537-80.946-33.027-35.588-83.137-42.378-116.893,10.28-32.921,25.967-11.638,54.743,72.868,56.927,73.988S286.256,392.049,286.256,392.049Z" transform="translate(-136.119 -295.551)" fill="#49bfa4"/>
            <path id="Path_66" data-name="Path 66" d="M231.822,416.491c3.061-9.441,6.2-18.862,8.911-28.417,1.541-5.43,3.112-10.854,4.6-16.3.056-.2-.288-.33-.363-.128-3.448,9.355-6.885,18.745-9.9,28.257-3,9.464-6.087,18.9-8.969,28.406-1.638,5.4-3.109,10.836-4.418,16.336-.027.11.147.173.191.067C225.635,435.466,228.739,426,231.822,416.491Z" transform="translate(-113.531 -275.488)" fill="#263238"/>
            <path id="Path_67" data-name="Path 67" d="M226.459,461.122l-3.034-1.062c-5.7-2.035-11.515-4.222-16.988-6.459-.708-.278-1.4-.569-2.086-.86-1.1-.455-2.2-.923-3.261-1.39-.544-.228-1.062-.468-1.593-.7-.19-.089-.379-.164-.569-.253-.556-.253-1.1-.506-1.643-.758-2.174-1-4.234-2-6.156-3.008-.442-.228-.9-.468-1.327-.708a47.612,47.612,0,0,1-8.444-5.549c-.24-.215-.48-.43-.7-.645-.24-.215-.442-.43-.632-.632-12.514-13.487-35.595-83.134-42.382-116.9-.076-.392-.152-.784-.228-1.163-.013-.089-.025-.164-.038-.253-.455-2.566-.86-5.739-1.188-9.177v-.038c-.948-16.8,7-19.542,16.824-12.16C177.605,352,215.108,438.825,226.459,461.122Z" transform="translate(-136.119 -295.551)" fill="#263238"/>
          </g>
        </g>
        <g id="Group_104" data-name="Group 104" transform="translate(18.325 107.302)">
          <path id="Path_68" data-name="Path 68" d="M210.665,475.433l-149.191.791c.121-3.207,21.361-97.129,38.244-131.788,21.646-44.441,32.812-48.011,39.481-50.406,8.528-3.065,23.715-1.542,27.324.159,4.089,1.9,17.107,24.641,21.771,41.309C197.661,368.973,212.762,473.393,210.665,475.433Z" transform="translate(-58.41 -292.269)" fill="#ebebeb"/>
          <g id="Group_102" data-name="Group 102" transform="translate(0 5.273)">
            <path id="Path_69" data-name="Path 69" d="M132.229,296.441s18.925,70.212,19.9,74.875c1.423,6.781,10.881,103.445,10.881,103.445l-103.964.362s22.737-89.492,39.583-128.747C117.057,303.442,132.229,296.441,132.229,296.441Z" transform="translate(-59.05 -296.441)" fill="#ffc727"/>
          </g>
          <g id="Group_103" data-name="Group 103" transform="translate(0 5.273)">
            <path id="Path_70" data-name="Path 70" d="M132.229,296.441s18.925,70.212,19.9,74.875c1.423,6.781,10.881,103.445,10.881,103.445l-103.964.362s22.737-89.492,39.583-128.747C117.057,303.442,132.229,296.441,132.229,296.441Z" transform="translate(-59.05 -296.441)" fill="#49bfa4"/>
          </g>
          <path id="Path_71" data-name="Path 71" d="M145.687,294.65c.56,2.241,18.048,59.285,19.26,73.5,1.345,15.777,13.3,107.4,13.3,107.4h15.133S171.43,343.843,165.4,329.931C153.1,301.583,145.687,294.65,145.687,294.65Z" transform="translate(-36.177 -291.64)" fill="#ffc727"/>
          <path id="Path_72" data-name="Path 72" d="M145.687,294.65c.56,2.241,18.048,59.285,19.26,73.5,1.345,15.777,13.3,107.4,13.3,107.4h15.133S171.43,343.843,165.4,329.931C153.1,301.583,145.687,294.65,145.687,294.65Z" transform="translate(-36.177 -291.64)" fill="#49bfa4"/>
        </g>
        <g id="Group_116" data-name="Group 116" transform="translate(0 115.644)">
          <g id="Group_115" data-name="Group 115">
            <g id="Group_112" data-name="Group 112" transform="translate(1.716 1.3)">
              <path id="Path_73" data-name="Path 73" d="M116.068,311.942c-24.986,26.76-85.711,128.286-66.441,146.8,19.406,18.649,126.21-6.409,156.249-20.718,8.935-4.257-25.02-59.968-35.523-61.269-8.743-1.082-53.446,19.366-54.739,16.794-1.461-2.906,5.639-24.36,16.394-63.2C144.408,285.573,127.1,300.122,116.068,311.942Z" transform="translate(-45.91 -299.897)" fill="#ad6359"/>
              <g id="Group_111" data-name="Group 111" transform="translate(111.15 41.852)">
                <g id="Group_110" data-name="Group 110">
                  <path id="Path_74" data-name="Path 74" d="M179.482,350.034c21.718-3.025,27.759-.468,44.732-12.754,11.137-8.062,21.066-4.411,14.711,8.4-10.393,20.954-37.593,30.741-48,31.418Z" transform="translate(-121.796 -333.008)" fill="#ad6359"/>
                  <g id="Group_105" data-name="Group 105" transform="translate(0 16.315)">
                    <path id="Path_75" data-name="Path 75" d="M133.845,367.533s24.4-13.55,47.226-19.064c15.785-3.812,51.05-8.278,84.79,26.516,8,8.253,13.554,25.689-4.413,16.957-12.763-6.2-18.982-13.993-27.061-16.248,0,0,4.429,23.015-4.152,30.709-3.834,3.439-14.521,12.579-23.856,18.51a44.75,44.75,0,0,1-3.864-4.155s-8.694,6.431-25.06,4.873Z" transform="translate(-133.845 -345.916)" fill="#ad6359"/>
                  </g>
                  <g id="Group_109" data-name="Group 109" transform="translate(58.749 17.635)">
                    <path id="Path_76" data-name="Path 76" d="M184.446,346.96c7.546,3.936,23.4,12.544,33.921,24.1,11.686,12.832,30.737,40.7,21.175,49.228-7.01,6.253-15.22-3.746-15.22-3.746s5.447,13.179-2.122,17.442c-6.9,3.884-12.784-4.232-12.784-4.232s1.93,8.562-5.434,11.025c-8.858,2.963-11.448-15.468-23.013-20.219C178.373,419.486,184.446,346.96,184.446,346.96Z" transform="translate(-180.323 -346.96)" fill="#ad6359"/>
                    <g id="Group_108" data-name="Group 108" transform="translate(9.674 34.165)">
                      <g id="Group_106" data-name="Group 106" transform="translate(12.614)">
                        <path id="Path_77" data-name="Path 77" d="M198.094,374.005c6.491,4.864,18.4,19.695,21.69,35.055.075.348-.148.59-.284.288a170.367,170.367,0,0,0-21.526-35.233C197.913,374.042,198.022,373.951,198.094,374.005Z" transform="translate(-197.956 -373.989)" fill="#263238"/>
                      </g>
                      <g id="Group_107" data-name="Group 107" transform="translate(0 12.168)">
                        <path id="Path_78" data-name="Path 78" d="M188.119,383.636c5.169,4.773,16.757,20.606,19.559,36.286.063.35-.177.579-.3.27a182.617,182.617,0,0,0-19.387-36.454C187.935,383.662,188.052,383.574,188.119,383.636Z" transform="translate(-187.976 -383.615)" fill="#263238"/>
                      </g>
                    </g>
                  </g>
                </g>
                <path id="Path_79" data-name="Path 79" d="M213.426,369.362c7.077,2.084,11.681,5.557,17.653,9.7a97.33,97.33,0,0,0,9.117,5.774c2.884,1.559,7.135,3.916,10.206,1.474,1.71-1.359,1.685-3.831,1.3-5.782-.427-2.189-2.591-6.235-3.891-8.053-.066-.092.094-.21.162-.118a40.51,40.51,0,0,1,4.253,7.171,9.42,9.42,0,0,1,.64,5.524c-1.04,3.9-5.643,4.415-8.9,3.342a30.883,30.883,0,0,1-5.571-2.7c-1.717-.983-3.384-2.05-5.023-3.157-3.365-2.273-6.594-4.738-9.933-7.049a91.969,91.969,0,0,0-10.123-5.9C213.187,369.528,213.286,369.322,213.426,369.362Z" transform="translate(-112.879 -323.412)" fill="#263238"/>
                <path id="Path_80" data-name="Path 80" d="M228.247,394.262c-1.83-4.036-11.749-20.844-14.966-24.733a.1.1,0,0,1,.147-.139c5.516,5.23,14.382,19.119,16.449,23.569,2.041,4.4,4.392,10.019,4.394,14.92,0,7.4-4.9,8.8-6.718,9.158a9.577,9.577,0,0,1-6.292-1.03,19.287,19.287,0,0,1-5.7-5.361c-.077-.1.058-.238.145-.139,2.562,2.912,6.819,5.789,10.838,5.261a6.728,6.728,0,0,0,4.574-2.467c1.251-1.7,1.351-3.932,1.181-5.956C231.91,402.763,230.128,398.408,228.247,394.262Z" transform="translate(-112.88 -323.411)" fill="#263238"/>
              </g>
            </g>
            <g id="Group_114" data-name="Group 114">
              <path id="Path_81" data-name="Path 81" d="M157.419,379.954l34.228,72.008S57.758,482.034,46.205,458.729,86.651,344.2,110.082,317.641c27.155-30.785,30.622-20.315,24.638,6.972-6.264,28.568-18.357,69.883-18.357,69.883Z" transform="translate(-44.553 -298.869)" fill="#ffc727"/>
              <path id="Path_82" data-name="Path 82" d="M157.419,379.954l34.228,72.008S57.758,482.034,46.205,458.729,86.651,344.2,110.082,317.641c27.155-30.785,30.622-20.315,24.638,6.972-6.264,28.568-18.357,69.883-18.357,69.883Z" transform="translate(-44.553 -298.869)" fill="#49bfa4"/>
              <g id="Group_113" data-name="Group 113" transform="translate(13.597 52.354)">
                <path id="Path_83" data-name="Path 83" d="M69.183,394.588a156.484,156.484,0,0,1,19.525-11.468,151.838,151.838,0,0,1,20.766-8.332c4.049-1.339,8.148-2.476,12.248-3.644.125-.035.173.157.051.195A195.3,195.3,0,0,0,100.8,379.5q-10.22,4.554-20.256,9.471c-3.788,1.858-7.487,3.894-11.209,5.878A.151.151,0,0,1,69.183,394.588Z" transform="translate(-51.665 -332.143)" fill="#263238"/>
                <path id="Path_84" data-name="Path 84" d="M142.114,368.81c-.674.176-37.287,12.265-38.488,12.825.153-.552,6.721-20.022,7.7-22.872.1-.284.182-.571.277-.856.667-1.272,1.342-2.537,1.959-3.836.791-1.663,1.57-3.333,2.351-5,.024-.052-.051-.094-.077-.043-.856,1.627-1.714,3.254-2.56,4.887-.392.756-.757,1.522-1.12,2.29.645-2.014,1.264-4.032,1.882-6.061.985-3.233,1.866-6.488,2.738-9.754.028-.106-.129-.14-.163-.04-1.943,5.679-4.064,11.293-6.023,16.964s-9.493,26.571-9.435,26.553c.067.054,40.328-14.231,41.106-14.556A.26.26,0,0,0,142.114,368.81Z" transform="translate(-43.204 -340.288)" fill="#263238"/>
                <path id="Path_85" data-name="Path 85" d="M139.445,407.854c-3.768-8.037-7.474-16.106-11.54-24-2.311-4.486-4.6-8.988-6.951-13.454-.088-.169-.389-.04-.315.138,3.462,8.216,6.955,16.449,10.792,24.505,3.819,8.016,7.571,16.064,11.494,24.033q3.346,6.8,7.095,13.368c.049.087.2.023.164-.072C147,424.027,143.239,415.947,139.445,407.854Z" transform="translate(-38.065 -332.36)" fill="#263238"/>
                <path id="Path_86" data-name="Path 86" d="M190.534,422.537c-1.34-2.217-3.032-5.412-4.464-7.571-.379-.57-.819-.451-.516.147,1.02,2.012,1.866,4.276,2.874,6.342-1.878.374-3.767.708-5.644,1.1-2.17.455-4.339.92-6.511,1.369q-6.38,1.314-12.785,2.5-12.973,2.4-26.037,4.242a509.976,509.976,0,0,1-52.668,4.944c-4.928.181-9.864.265-14.8.2a142.672,142.672,0,0,1-14.564-.7c-.131-.016-.159.207-.027.235a80.942,80.942,0,0,0,12.668,1.643q6.695.33,13.406.265c8.9-.1,17.792-.676,26.653-1.49q26.358-2.421,52.456-7.061,7.3-1.289,14.575-2.75c2.446-.492,4.893-.983,7.33-1.522S190.763,422.913,190.534,422.537Z" transform="translate(-55.309 -320.67)" fill="#263238"/>
              </g>
            </g>
          </g>
        </g>
        <g id="Group_135" data-name="Group 135" transform="translate(76.922)">
          <g id="Group_133" data-name="Group 133">
            <g id="Group_118" data-name="Group 118" transform="translate(19.666 77.639)">
              <g id="Group_117" data-name="Group 117">
                <path id="Path_87" data-name="Path 87" d="M152.243,327.678c-8.856,2.442-24.692-10.643-31.157-21.483-.439-.745.428-8.782,1.021-18.6.336-5.959.57-12.6.346-18.677-.052-1.248,38.454,7.853,38.454,7.853s-3.276,12.875-2.821,23.468a13.658,13.658,0,0,0,.354,2.484c.018.114.056.252.071.411C159.458,307.843,160.8,325.313,152.243,327.678Z" transform="translate(-120.966 -268.802)" fill="#ad6359"/>
              </g>
              <path id="Path_88" data-name="Path 88" d="M124,268.952c2.148,10.207,9.454,34.793,29.807,34.5a23.085,23.085,0,0,0,3.892-.355,1.88,1.88,0,0,0-.064-.416,15.339,15.339,0,0,1-.361-2.476c-.453-10.61,2.831-23.485,2.831-23.485S132.328,270.158,124,268.952Z" transform="translate(-120.165 -268.762)" fill="#263238"/>
            </g>
            <g id="Group_132" data-name="Group 132">
              <g id="Group_119" data-name="Group 119" transform="translate(58.517 41.078)">
                <path id="Path_89" data-name="Path 89" d="M156.2,257.842c-.422,9.33,5.87,17.194,14.056,17.565s15.163-6.893,15.585-16.222-5.871-17.193-14.056-17.563S156.623,248.513,156.2,257.842Z" transform="translate(-150.521 -239.421)" fill="#455a64"/>
                <ellipse id="Ellipse_8" data-name="Ellipse 8" cx="18.812" cy="16.504" rx="18.812" ry="16.504" transform="translate(0 37.586) rotate(-87.408)" fill="#c7c7c7"/>
              </g>
              <g id="Group_120" data-name="Group 120" transform="translate(21.136 13.326)">
                <path id="Path_90" data-name="Path 90" d="M127.16,233.93c-6.622,12.491-7.039,52.2.747,62.581,11.29,15.048,33.472,20.573,47.192,6.157,13.3-13.972,12.926-65.734,3.883-75.547C165.663,212.666,136.943,215.476,127.16,233.93Z" transform="translate(-122.129 -217.922)" fill="#ad6359"/>
              </g>
              <g id="Group_126" data-name="Group 126" transform="translate(50.791 45.054)">
                <g id="Group_121" data-name="Group 121" transform="translate(2.591 12.236)">
                  <path id="Path_91" data-name="Path 91" d="M152.81,254.879c-.023-.1-.206.133-.2.241.144,2.672-.14,5.758-2.541,6.7-.073.029-.063.163.027.149C153.04,261.487,153.376,257.388,152.81,254.879Z" transform="translate(-147.012 -252.136)" fill="#263238"/>
                  <path id="Path_92" data-name="Path 92" d="M150.987,252.708c-4.308-.23-4.452,8.4-.46,8.618C154.455,261.535,154.6,252.9,150.987,252.708Z" transform="translate(-147.64 -252.703)" fill="#263238"/>
                </g>
                <g id="Group_122" data-name="Group 122" transform="translate(23.141 12.55)">
                  <path id="Path_93" data-name="Path 93" d="M164.114,255.14c.023-.1.207.129.2.239-.129,2.672.173,5.756,2.577,6.684.075.029.064.163-.024.149C163.923,261.747,163.564,257.651,164.114,255.14Z" transform="translate(-163.898 -252.38)" fill="#263238"/>
                  <path id="Path_94" data-name="Path 94" d="M166.533,252.957c4.308-.255,4.5,8.378.511,8.613C163.117,261.8,162.924,253.171,166.533,252.957Z" transform="translate(-163.883 -252.952)" fill="#263238"/>
                </g>
                <path id="Path_95" data-name="Path 95" d="M147.662,248.368a33.794,33.794,0,0,0,3.509-.513c1.344-.211,2.436-.241,3.479-1.2a1.829,1.829,0,0,0,.137-2.226c-1.052-1.375-2.762-1.524-4.39-1.336a6.65,6.65,0,0,0-4.314,2.088A1.947,1.947,0,0,0,147.662,248.368Z" transform="translate(-145.59 -243.023)" fill="#263238"/>
                <path id="Path_96" data-name="Path 96" d="M170.68,249.24a33.5,33.5,0,0,1-3.417-.947c-1.307-.378-2.386-.545-3.3-1.631a1.828,1.828,0,0,1,.143-2.226c1.213-1.231,2.929-1.167,4.521-.776a6.649,6.649,0,0,1,4.02,2.609A1.948,1.948,0,0,1,170.68,249.24Z" transform="translate(-140.823 -242.921)" fill="#263238"/>
                <path id="Path_97" data-name="Path 97" d="M148.423,274.485c.629.637,1.254,1.51,2.223,1.608a7.056,7.056,0,0,0,2.886-.626.094.094,0,0,1,.114.139,3.6,3.6,0,0,1-3.419,1.4,2.851,2.851,0,0,1-2.064-2.4C148.125,274.446,148.33,274.393,148.423,274.485Z" transform="translate(-144.912 -234.728)" fill="#263238"/>
                <g id="Group_124" data-name="Group 124" transform="translate(6.4 2.972)">
                  <g id="Group_123" data-name="Group 123">
                    <path id="Path_98" data-name="Path 98" d="M150.708,274.2a9.11,9.11,0,0,0,6.01,4.154,11.482,11.482,0,0,0,3.274.2,3.35,3.35,0,0,0,.627-.061c.195-.021.372-.04.587-.081a.666.666,0,0,0,.547-.589v-.02a1.338,1.338,0,0,0-.021-.274v-.254c.091-2.058-.058-5.194-.058-5.194.747.391,4.554,2.179,4.511,1.1-.383-8.915-.81-18.829-3.075-27.619a.248.248,0,0,0-.489.061c.03,8.581,1.569,17.1,1.737,25.723a15.957,15.957,0,0,0-4.277-1.378c-.293.081.393,6.055.279,6.976a.347.347,0,0,1-.019.1c-3.467.384-6.058-.7-9.378-3.083C150.765,273.807,150.55,273.984,150.708,274.2Z" transform="translate(-150.654 -245.374)" fill="#263238"/>
                  </g>
                </g>
                <g id="Group_125" data-name="Group 125" transform="translate(5.263 31.726)">
                  <path id="Path_99" data-name="Path 99" d="M159.033,271.486a10.814,10.814,0,0,1-4.382,3.281,4.858,4.858,0,0,1-2.955.135c-2.126-.6-2.148-2.558-1.728-4.228a11.651,11.651,0,0,1,1-2.552A13.991,13.991,0,0,0,159.033,271.486Z" transform="translate(-149.754 -268.122)" fill="#263238"/>
                  <path id="Path_100" data-name="Path 100" d="M154.651,274.234a4.858,4.858,0,0,1-2.955.135c-2.126-.6-2.148-2.558-1.728-4.228C152.253,270.413,154.494,272.005,154.651,274.234Z" transform="translate(-149.754 -267.589)" fill="#ff98b9"/>
                </g>
              </g>
              <g id="Group_128" data-name="Group 128" transform="translate(20.152)">
                <path id="Path_101" data-name="Path 101" d="M122.177,260.973c2.613-.417,8.84-9.23,11.489-12.734,2.786-3.632,4.174-22.273,4.416-26.523a28.2,28.2,0,0,0-10.941,11.2C124.173,238.511,122.474,249.537,122.177,260.973Z" transform="translate(-121.133 -203.594)" fill="#263238" opacity="0.2"/>
                <g id="Group_127" data-name="Group 127">
                  <path id="Path_102" data-name="Path 102" d="M165.1,234.89a13.456,13.456,0,0,1-12.415,4.166c-4.464-.87-8.82-4.113-10.293-8.513a.107.107,0,0,0-.2.068c1.575,4.706,5.222,8.656,10.274,9.514a13.844,13.844,0,0,0,12.885-5.013A.167.167,0,0,0,165.1,234.89Z" transform="translate(-115.851 -201.282)" fill="#263238"/>
                  <path id="Path_103" data-name="Path 103" d="M154.328,207.38c-7.791-.077-15.076,4.006-18.091,9.22a15.074,15.074,0,0,0-1.778,9.776c.016.135.3.116.288-.02a16.561,16.561,0,0,1,8.279-14.709,21.342,21.342,0,0,1,18.937-1.667,13.508,13.508,0,0,1,7.062,6.047c.143.287.732.123.616-.169C167.684,210.93,161.379,207.45,154.328,207.38Z" transform="translate(-117.932 -207.379)" fill="#263238"/>
                  <path id="Path_104" data-name="Path 104" d="M190.216,224.406a17.17,17.17,0,0,0-7.023-9.464c-4.683-3.108-10.1-2.844-15.475-2.47a.113.113,0,0,0,.014.226c4.578-.3,9.239-.343,13.366,1.936a16.887,16.887,0,0,1,7.546,8.463,16.456,16.456,0,0,1-7.464,20.214,16.71,16.71,0,0,1-13.222.924c-.168-.059-.3.186-.13.253,7.815,3.036,17.232-.272,21.066-7.828A17.1,17.1,0,0,0,190.216,224.406Z" transform="translate(-109.136 -206.092)" fill="#263238"/>
                  <path id="Path_105" data-name="Path 105" d="M124.541,243.781s-6.89-14.19-.42-22.028c3.667-4.443,15.264-3.42,15.264-3.42s3.987-6.545,13.692-8.4c9.807-1.872,21.163,4.227,21.163,4.227s9.427-4.951,17.9.308c11.812,7.333,9.634,25.652-2.723,31.116-8.676,3.838-19.979-4.13-19.979-4.13-1.119.11-12.769,6.567-21.015-3.917,0,0-7.231,5.97-13.359,1.376C135.064,238.916,131.65,245.117,124.541,243.781Z" transform="translate(-121.351 -206.799)" fill="#263238"/>
                </g>
              </g>
              <g id="Group_129" data-name="Group 129" transform="translate(12.309 50.131)">
                <path id="Path_106" data-name="Path 106" d="M131.148,259.085s-6.553-13.952-12.737-11.825-2.759,21.3,3.444,24.917a6.844,6.844,0,0,0,9.663-2.063Z" transform="translate(-115.146 -247.039)" fill="#ad6359"/>
                <path id="Path_107" data-name="Path 107" d="M118.637,251.544a.093.093,0,0,0-.066.171c4.324,2.689,6.027,7.424,6.967,12.189-1.085-1.959-2.8-3.227-5.395-1.981-.135.066-.052.276.083.27a4.21,4.21,0,0,1,4.315,2.237,20.357,20.357,0,0,1,1.547,4.07c.147.454.935.361.86-.145-.005-.037-.013-.076-.019-.114C128.073,262.333,124.9,253.241,118.637,251.544Z" transform="translate(-114.254 -245.851)" fill="#263238"/>
              </g>
              <g id="Group_131" data-name="Group 131" transform="translate(0 1.421)">
                <g id="Group_130" data-name="Group 130" transform="translate(20.148 69.372)">
                  <path id="Path_108" data-name="Path 108" d="M143.817,282.769,131.359,277.4l-10.011-12.471,1.924-1.544,9.627,11.993,11.893,5.125Z" transform="translate(-121.348 -263.385)" fill="#c7c7c7"/>
                  <path id="Path_109" data-name="Path 109" d="M138.095,277.571c1.217-3.624,11.386-2.288,9.542,3.206S136.873,281.21,138.095,277.571Z" transform="translate(-116.957 -260.175)" fill="#37474f"/>
                </g>
                <path id="Path_110" data-name="Path 110" d="M117.611,257.054s-1.36-20.39,4.614-31.634c6.65-12.52,34.2-24.437,53.039-10.974,0,0-30.688-5.487-44.979,11.873-6.02,7.314-5.868,31.281-5.868,31.281Z" transform="translate(-102.222 -208.503)" fill="#c7c7c7"/>
                <ellipse id="Ellipse_9" data-name="Ellipse 9" cx="16.504" cy="18.812" rx="16.504" ry="18.812" transform="translate(1.291 40.374) rotate(-0.568)" fill="#c7c7c7"/>
                <path id="Path_111" data-name="Path 111" d="M135.079,258.139c.092,9.339-6.474,16.976-14.668,17.057s-14.909-7.424-15-16.762,6.474-16.974,14.668-17.057S134.986,248.8,135.079,258.139Z" transform="translate(-105.408 -199.824)" fill="#455a64"/>
              </g>
            </g>
          </g>
          <g id="Group_134" data-name="Group 134" transform="translate(11.603 105.566)">
            <path id="Path_112" data-name="Path 112" d="M159.913,296.689l-8.92,22.494L122.966,290.9l-7.866,9.151s27.492,45.017,27.655,42.978l9.169-19.4,13.417,13.406-1.232-33.8Z" transform="translate(-114.452 -290.896)" fill="#ebebeb"/>
            <path id="Path_113" data-name="Path 113" d="M165.812,318.4c-.391-5.573-.628-11.2-1.277-16.748-.023-.2-.332-.283-.379-.051-1.093,5.39.514,26.7.512,31.806-.018-.019-.04-.039-.058-.058-.56-.58-12.434-11.793-12.55-11.614-1.993,3.082-8.723,17.206-9.182,18.491-4.347-7.152-22.791-35.337-27.931-42.094a.194.194,0,0,0-.334.2c3.846,7.554,27.679,44.75,28.016,44.65.23.176,8.593-17.221,9.586-20.5,2.012,2.446,14,15.106,14.041,14.277A175.341,175.341,0,0,0,165.812,318.4Z" transform="translate(-114.588 -289.007)" fill="#263238"/>
          </g>
        </g>
      </g>
    </g>
    <g id="Device" transform="translate(207.749 455.227)">
      <g id="Group_157" data-name="Group 157">
        <g id="Group_151" data-name="Group 151" transform="translate(91.587 141.732)">
          <g id="Group_150" data-name="Group 150" transform="translate(2.124)">
            <g id="Group_141" data-name="Group 141" transform="translate(0 2.994)">
              <rect id="Rectangle_102" data-name="Rectangle 102" width="8.674" height="5.663" fill="#455a64"/>
            </g>
            <g id="Group_142" data-name="Group 142" transform="translate(11.248 2.619)">
              <rect id="Rectangle_103" data-name="Rectangle 103" width="8.674" height="5.663" fill="#455a64"/>
            </g>
            <g id="Group_143" data-name="Group 143" transform="translate(22.496 2.245)">
              <rect id="Rectangle_104" data-name="Rectangle 104" width="8.674" height="5.663" fill="#455a64"/>
            </g>
            <g id="Group_144" data-name="Group 144" transform="translate(33.744 1.871)">
              <rect id="Rectangle_105" data-name="Rectangle 105" width="8.674" height="5.663" fill="#455a64"/>
            </g>
            <g id="Group_145" data-name="Group 145" transform="translate(44.992 1.497)">
              <rect id="Rectangle_106" data-name="Rectangle 106" width="8.674" height="5.663" fill="#455a64"/>
            </g>
            <g id="Group_146" data-name="Group 146" transform="translate(56.24 1.123)">
              <rect id="Rectangle_107" data-name="Rectangle 107" width="8.674" height="5.663" fill="#455a64"/>
            </g>
            <g id="Group_147" data-name="Group 147" transform="translate(67.488 0.748)">
              <rect id="Rectangle_108" data-name="Rectangle 108" width="8.674" height="5.663" fill="#455a64"/>
            </g>
            <g id="Group_148" data-name="Group 148" transform="translate(78.736 0.374)">
              <rect id="Rectangle_109" data-name="Rectangle 109" width="8.674" height="5.663" fill="#455a64"/>
            </g>
            <g id="Group_149" data-name="Group 149" transform="translate(89.984)">
              <rect id="Rectangle_110" data-name="Rectangle 110" width="8.674" height="5.663" fill="#455a64"/>
            </g>
          </g>
          <path id="Path_118" data-name="Path 118" d="M360.3,448.092H257.4V441.2L360.3,438.332Z" transform="translate(-257.395 -436.178)" fill="#37474f"/>
        </g>
        <g id="Group_154" data-name="Group 154" transform="translate(125.049)">
          <g id="Group_152" data-name="Group 152">
            <path id="Path_119" data-name="Path 119" d="M453.749,450.972H283.868L310.885,324.5H480.765Z" transform="translate(-283.868 -324.5)" fill="#455a64"/>
            <path id="Path_120" data-name="Path 120" d="M458.72,450.972H288.839L315.856,324.5H485.737Z" transform="translate(-282.556 -324.5)" fill="#37474f"/>
            <ellipse id="Ellipse_10" data-name="Ellipse 10" cx="11.368" cy="9.705" rx="11.368" ry="9.705" transform="matrix(0.734, -0.679, 0.679, 0.734, 93.974, 56.495)" fill="#263238"/>
          </g>
          <g id="Group_153" data-name="Group 153" transform="translate(44.566 88.625)">
            <path id="Path_121" data-name="Path 121" d="M402.678,452.607H319.126v-6.488l83.552-2.7Z" transform="translate(-319.126 -381.729)" fill="#455a64"/>
            <path id="Path_122" data-name="Path 122" d="M418.211,465.482h-44.86l-27.017-70.868h44.86Z" transform="translate(-311.943 -394.614)" fill="#455a64"/>
            <path id="Path_123" data-name="Path 123" d="M424.052,465.482h-44.86l-27.016-70.868h44.859Z" transform="translate(-310.4 -394.614)" fill="#263238"/>
          </g>
        </g>
        <g id="Group_156" data-name="Group 156" transform="translate(0 130.877)">
          <path id="Path_124" data-name="Path 124" d="M273.348,458.39H187.207c-7.353,0,3.285-20.933,30.115-28.964S281.811,450.537,273.348,458.39Z" transform="translate(-184.938 -428.04)" fill="#37474f"/>
          <g id="Group_155" data-name="Group 155" transform="translate(54.607 7.442)">
            <path id="Path_125" data-name="Path 125" d="M228.139,456.836a26.215,26.215,0,0,1,1.174-7.024,29.579,29.579,0,0,1,2.9-6.563,23.683,23.683,0,0,1,4.571-5.554,20.357,20.357,0,0,1,6.056-3.767c-.928.757-1.977,1.288-2.82,2.115l-1.33,1.124-1.221,1.237a30.134,30.134,0,0,0-4.175,5.5,41.356,41.356,0,0,0-3.054,6.23A51.371,51.371,0,0,0,228.139,456.836Z" transform="translate(-228.139 -433.928)" fill="#263238"/>
            <path id="Path_126" data-name="Path 126" d="M236.214,436.294a50.347,50.347,0,0,1,7.432,3.035,50.86,50.86,0,0,1,6.931,4.111,30.93,30.93,0,0,1,6,5.443A18.683,18.683,0,0,1,258.8,452.3a10.079,10.079,0,0,1,1.007,3.91,11.362,11.362,0,0,0-1.552-3.614,18.355,18.355,0,0,0-2.408-3.073,42.065,42.065,0,0,0-6.007-5.056c-2.131-1.545-4.391-2.92-6.659-4.289-1.136-.683-2.293-1.334-3.461-1.968C238.573,437.542,237.391,436.934,236.214,436.294Z" transform="translate(-226.007 -433.303)" fill="#263238"/>
          </g>
        </g>
      </g>
    </g>
    <g id="Speech_Bubbles" data-name="Speech Bubbles" transform="translate(225.904 146.166)">
      <g id="Group_160" data-name="Group 160" transform="translate(0 77.124)">
        <g id="Group_158" data-name="Group 158">
          <path id="Path_127" data-name="Path 127" d="M277.118,233.717a38.261,38.261,0,0,1-63.944,24.207l-19.147,2.811,9.58-16.553a38.275,38.275,0,1,1,73.511-10.465Z" transform="translate(-192.738 -191.119)" fill="#fff"/>
          <path id="Path_128" data-name="Path 128" d="M277.387,233.787a38.551,38.551,0,0,1-7.724,19.4,34.647,34.647,0,0,1-7.508,7.412,37.763,37.763,0,0,1-9.232,5.141,38.15,38.15,0,0,1-10.3,2.457,37.709,37.709,0,0,1-5.316.1,33.6,33.6,0,0,1-5.3-.551,38.624,38.624,0,0,1-18.934-9.349l.453.139-19.128,2.936-1.388.214.7-1.224,9.523-16.585-.044.655a38.7,38.7,0,0,1,2.357-34.112,39.148,39.148,0,0,1,11.987-12.763,38.929,38.929,0,0,1,33.64-4.53,39.1,39.1,0,0,1,14.759,9.05A38.5,38.5,0,0,1,277.387,233.787Zm0,0a37.861,37.861,0,0,0-43.4-41.419,37.638,37.638,0,0,0-15.806,6.244A39.437,39.437,0,0,0,206.728,211.1,37.787,37.787,0,0,0,201.87,227.3a38.258,38.258,0,0,0,2.694,16.674l.138.341-.182.313-9.637,16.519-.685-1.01,19.166-2.685.264-.037.188.177a37.69,37.69,0,0,0,18.327,9.44,32.864,32.864,0,0,0,5.191.632,36.96,36.96,0,0,0,5.238-.009,37.738,37.738,0,0,0,10.221-2.25,35.663,35.663,0,0,0,9.232-4.975,42.87,42.87,0,0,0,4.041-3.375,42.316,42.316,0,0,0,3.481-3.953A38.471,38.471,0,0,0,277.387,233.787Z" transform="translate(-193.007 -191.189)" fill="#263238"/>
        </g>
        <g id="Group_159" data-name="Group 159" transform="translate(25.178 35.147)">
          <path id="Path_129" data-name="Path 129" d="M248.461,223.628a4.632,4.632,0,1,1-4.631-4.633A4.631,4.631,0,0,1,248.461,223.628Z" transform="translate(-205.99 -218.995)" fill="#263238"/>
          <path id="Path_130" data-name="Path 130" d="M235.326,223.628a4.632,4.632,0,1,1-4.633-4.633A4.632,4.632,0,0,1,235.326,223.628Z" transform="translate(-209.458 -218.995)" fill="#263238"/>
          <path id="Path_131" data-name="Path 131" d="M222.19,223.628a4.632,4.632,0,1,1-4.631-4.633A4.631,4.631,0,0,1,222.19,223.628Z" transform="translate(-212.926 -218.995)" fill="#263238"/>
        </g>
      </g>
      <g id="Group_163" data-name="Group 163" transform="translate(146.971)">
        <g id="Group_161" data-name="Group 161">
          <path id="Path_132" data-name="Path 132" d="M272.633,76.694A38.261,38.261,0,0,0,336.577,100.9l19.146,2.811-9.58-16.552a38.275,38.275,0,1,0-73.51-10.466Z" transform="translate(-272.42 -34.096)" fill="#fff"/>
          <path id="Path_133" data-name="Path 133" d="M284.088,45.158a38.215,38.215,0,0,1,32.065-10.649,38.612,38.612,0,0,1,16.334,6.129A39.122,39.122,0,0,1,344.474,53.4a38.7,38.7,0,0,1,2.357,34.112l-.044-.655,9.523,16.585.7,1.224-1.388-.212L336.5,101.516l.454-.139a38.617,38.617,0,0,1-18.935,9.349,33.587,33.587,0,0,1-5.3.551,37.533,37.533,0,0,1-5.318-.1,38.161,38.161,0,0,1-10.3-2.457,37.738,37.738,0,0,1-9.232-5.139,43,43,0,0,1-4.039-3.42,42.629,42.629,0,0,1-3.468-3.993,38.493,38.493,0,0,1,3.73-51.008Zm-3.616,50.919a42.508,42.508,0,0,0,3.481,3.953A42.852,42.852,0,0,0,288,103.4a35.617,35.617,0,0,0,9.231,4.975,37.752,37.752,0,0,0,10.222,2.251,37.135,37.135,0,0,0,5.237.008,32.9,32.9,0,0,0,5.193-.631,37.7,37.7,0,0,0,18.327-9.441l.188-.177.264.038,19.165,2.683-.685,1.011L345.5,87.6l-.182-.312.138-.343a38.215,38.215,0,0,0,2.694-16.672,37.776,37.776,0,0,0-4.858-16.195,39.405,39.405,0,0,0-11.451-12.49,37.591,37.591,0,0,0-15.806-6.244,38.2,38.2,0,0,0-17.021,1.275,38.022,38.022,0,0,0-26.38,40.142A38.449,38.449,0,0,0,280.472,96.077Z" transform="translate(-272.42 -34.166)" fill="#263238"/>
        </g>
        <g id="Group_162" data-name="Group 162" transform="translate(24.274 12.862)">
          <path id="Path_134" data-name="Path 134" d="M309.038,74.772V79.55a3.518,3.518,0,0,1-3.6,3.6,3.606,3.606,0,0,1-3.6-3.6V71.905c0-.073.073-.073.073-.147-.073-.073-.073-.073-.073-.147a3.707,3.707,0,0,1,3.6-3.6,8.233,8.233,0,1,0,0-16.464,8.12,8.12,0,0,0-7.056,4.042,3.626,3.626,0,0,1-5,1.323,3.585,3.585,0,0,1-1.25-4.925,15.448,15.448,0,1,1,16.906,22.785Zm0,16.1v1.323a3.518,3.518,0,0,1-3.6,3.6,3.606,3.606,0,0,1-3.6-3.6V90.869a3.656,3.656,0,0,1,3.6-3.6A3.563,3.563,0,0,1,309.038,90.869Z" transform="translate(-291.624 -44.342)" fill="#49bfa4"/>
        </g>
      </g>
    </g>
  </g>
</svg>
